G04*
G04 #@! TF.GenerationSoftware,Altium Limited,Altium Designer,18.0.9 (584)*
G04*
G04 Layer_Physical_Order=1*
G04 Layer_Color=255*
%FSLAX25Y25*%
%MOIN*%
G70*
G01*
G75*
%ADD18R,0.03150X0.03150*%
%ADD19R,0.05118X0.03543*%
%ADD20C,0.05906*%
%ADD21C,0.01968*%
%ADD22C,0.01772*%
%ADD23C,0.01181*%
%ADD24C,0.01575*%
%ADD25C,0.17717*%
%ADD26C,0.06000*%
%ADD27O,0.11811X0.07087*%
%ADD28C,0.05000*%
%ADD29C,0.05906*%
G36*
X393701Y0D02*
X0D01*
Y196850D01*
X393701D01*
Y0D01*
D02*
G37*
%LPC*%
G36*
X371413Y143597D02*
X371413Y143597D01*
X236221D01*
X236221Y143597D01*
X236220Y143597D01*
X143154D01*
X143154Y143597D01*
X143154Y143597D01*
X50634D01*
X50634Y143597D01*
X49602Y143461D01*
X48640Y143063D01*
X47815Y142429D01*
X47815Y142429D01*
X38716Y133331D01*
X38083Y132505D01*
X37684Y131544D01*
X37549Y130512D01*
X37549Y130512D01*
Y124378D01*
X37501Y124016D01*
X37632Y123023D01*
X37592Y122983D01*
X37039Y122908D01*
X34974Y124974D01*
X34317Y125412D01*
X33543Y125566D01*
X14348D01*
X14205Y125913D01*
X13477Y126862D01*
X12528Y127591D01*
X11422Y128048D01*
X10236Y128205D01*
X5512D01*
X4326Y128048D01*
X3221Y127591D01*
X2272Y126862D01*
X1543Y125913D01*
X1085Y124808D01*
X929Y123622D01*
X1085Y122436D01*
X1543Y121331D01*
X2272Y120382D01*
X3221Y119653D01*
X4326Y119196D01*
X5512Y119040D01*
X10236D01*
X11422Y119196D01*
X12528Y119653D01*
X13477Y120382D01*
X14205Y121331D01*
X14283Y121520D01*
X16449D01*
X16584Y121020D01*
X12882Y117318D01*
X12528Y117591D01*
X11422Y118048D01*
X10236Y118204D01*
X5512D01*
X4326Y118048D01*
X3221Y117591D01*
X2272Y116862D01*
X1543Y115913D01*
X1085Y114808D01*
X929Y113622D01*
X1085Y112436D01*
X1543Y111331D01*
X2272Y110382D01*
X3221Y109653D01*
X4326Y109196D01*
X5512Y109040D01*
X10236D01*
X11422Y109196D01*
X12528Y109653D01*
X13477Y110382D01*
X14205Y111331D01*
X14663Y112436D01*
X14805Y113519D01*
X18948Y117662D01*
X32366D01*
X73212Y76815D01*
X72929Y76391D01*
X72107Y76732D01*
X71063Y76869D01*
X70019Y76732D01*
X69046Y76329D01*
X68210Y75687D01*
X67569Y74852D01*
X67166Y73879D01*
X67066Y73117D01*
X66538Y72938D01*
X34501Y104974D01*
X33845Y105412D01*
X33071Y105566D01*
X14348D01*
X14205Y105913D01*
X13477Y106862D01*
X12528Y107591D01*
X11422Y108048D01*
X10236Y108204D01*
X5512D01*
X4326Y108048D01*
X3221Y107591D01*
X2272Y106862D01*
X1543Y105913D01*
X1085Y104808D01*
X929Y103622D01*
X1085Y102436D01*
X1543Y101331D01*
X2272Y100382D01*
X3221Y99654D01*
X4326Y99196D01*
X5512Y99040D01*
X10236D01*
X11422Y99196D01*
X12528Y99654D01*
X13477Y100382D01*
X14205Y101331D01*
X14283Y101520D01*
X23474D01*
X23721Y101020D01*
X23278Y100443D01*
X22875Y99469D01*
X22737Y98425D01*
X22875Y97381D01*
X23278Y96408D01*
X23618Y95964D01*
X23372Y95464D01*
X14391D01*
X14205Y95913D01*
X13477Y96862D01*
X12528Y97591D01*
X11422Y98048D01*
X10236Y98204D01*
X5512D01*
X4326Y98048D01*
X3221Y97591D01*
X2272Y96862D01*
X1543Y95913D01*
X1085Y94808D01*
X929Y93622D01*
X1085Y92436D01*
X1543Y91331D01*
X2272Y90382D01*
X3221Y89653D01*
X4326Y89196D01*
X5512Y89039D01*
X10236D01*
X11422Y89196D01*
X12528Y89653D01*
X13477Y90382D01*
X14205Y91331D01*
X14241Y91418D01*
X38004D01*
X56022Y73400D01*
X55843Y72872D01*
X55255Y72795D01*
X54282Y72392D01*
X53446Y71750D01*
X52805Y70915D01*
X52402Y69942D01*
X52265Y68898D01*
X52402Y67853D01*
X52805Y66880D01*
X53446Y66045D01*
X54282Y65404D01*
X55255Y65001D01*
X56299Y64863D01*
X57343Y65001D01*
X58316Y65404D01*
X59152Y66045D01*
X59793Y66880D01*
X60196Y67853D01*
X60274Y68441D01*
X60802Y68621D01*
X66286Y63136D01*
X66942Y62698D01*
X67716Y62544D01*
X78690D01*
X104670Y36564D01*
Y33962D01*
X104197Y33599D01*
X103636Y32868D01*
X103283Y32016D01*
X103163Y31102D01*
X103283Y30189D01*
X103636Y29337D01*
X104197Y28606D01*
X104670Y28243D01*
Y22993D01*
X104208Y22802D01*
X66130Y60879D01*
X65474Y61318D01*
X64700Y61472D01*
X40602D01*
X17100Y84974D01*
X16443Y85412D01*
X15669Y85566D01*
X14348D01*
X14205Y85913D01*
X13477Y86862D01*
X12528Y87591D01*
X11422Y88048D01*
X10236Y88204D01*
X5512D01*
X4326Y88048D01*
X3221Y87591D01*
X2272Y86862D01*
X1543Y85913D01*
X1085Y84808D01*
X929Y83622D01*
X1085Y82436D01*
X1543Y81331D01*
X2272Y80382D01*
X3221Y79654D01*
X4326Y79196D01*
X5512Y79040D01*
X10236D01*
X11422Y79196D01*
X12528Y79654D01*
X13477Y80382D01*
X14205Y81331D01*
X14283Y81520D01*
X14831D01*
X38333Y58018D01*
X38990Y57580D01*
X39764Y57426D01*
X63862D01*
X115056Y6231D01*
X115713Y5792D01*
X116487Y5638D01*
X116508D01*
X116549Y5611D01*
X117323Y5457D01*
X117827Y5557D01*
X290551D01*
X291287Y5704D01*
X291911Y6121D01*
X298102Y12312D01*
X298819Y12218D01*
X299733Y12338D01*
X300584Y12691D01*
X301315Y13252D01*
X301876Y13983D01*
X302229Y14834D01*
X302349Y15748D01*
X302229Y16662D01*
X301876Y17513D01*
X301315Y18244D01*
X300584Y18805D01*
X299733Y19158D01*
X299683Y19164D01*
X299522Y19638D01*
X315139Y35255D01*
X315556Y35878D01*
X315702Y36614D01*
Y58875D01*
X316276Y59315D01*
X316837Y60046D01*
X317189Y60897D01*
X317310Y61811D01*
X317189Y62725D01*
X316837Y63576D01*
X316276Y64307D01*
X315545Y64868D01*
X314693Y65221D01*
X313779Y65341D01*
X312866Y65221D01*
X312014Y64868D01*
X311283Y64307D01*
X310722Y63576D01*
X310370Y62725D01*
X310249Y61811D01*
X310370Y60897D01*
X310722Y60046D01*
X311283Y59315D01*
X311857Y58875D01*
Y37411D01*
X305927Y31481D01*
X305466Y31673D01*
Y37221D01*
X306039Y37661D01*
X306600Y38392D01*
X306953Y39244D01*
X307073Y40157D01*
X306953Y41071D01*
X306600Y41923D01*
X306039Y42654D01*
X305308Y43215D01*
X304456Y43567D01*
X303543Y43688D01*
X302629Y43567D01*
X301778Y43215D01*
X301046Y42654D01*
X300485Y41923D01*
X300133Y41071D01*
X300012Y40157D01*
X300133Y39244D01*
X300485Y38392D01*
X301046Y37661D01*
X301620Y37221D01*
Y31391D01*
X289492Y19263D01*
X289068Y19546D01*
X289237Y19952D01*
X289357Y20866D01*
X289237Y21780D01*
X288884Y22631D01*
X288323Y23362D01*
X287592Y23923D01*
X286740Y24276D01*
X285827Y24396D01*
X285236Y24318D01*
X277809Y31745D01*
X277152Y32184D01*
X276378Y32338D01*
X176000D01*
Y32496D01*
X168882D01*
Y32338D01*
X161520D01*
X161157Y32811D01*
X160426Y33372D01*
X159575Y33725D01*
X158661Y33845D01*
X157747Y33725D01*
X157449Y33601D01*
X141982Y49068D01*
X141325Y49507D01*
X140551Y49661D01*
X110287D01*
X80783Y79165D01*
X80857Y79718D01*
X80897Y79758D01*
X81890Y79627D01*
X82934Y79764D01*
X83907Y80167D01*
X84743Y80809D01*
X85384Y81644D01*
X85787Y82617D01*
X85924Y83661D01*
X85787Y84706D01*
X85384Y85679D01*
X84743Y86514D01*
X83907Y87155D01*
X82934Y87559D01*
X81890Y87696D01*
X80846Y87559D01*
X79873Y87155D01*
X79037Y86514D01*
X78396Y85679D01*
X77993Y84706D01*
X77855Y83661D01*
X77986Y82669D01*
X77947Y82629D01*
X77394Y82554D01*
X40428Y119520D01*
X40503Y120073D01*
X40543Y120112D01*
X41535Y119981D01*
X42580Y120119D01*
X43553Y120522D01*
X44388Y121163D01*
X45029Y121999D01*
X45432Y122971D01*
X45570Y124016D01*
X45522Y124378D01*
Y128860D01*
X52285Y135623D01*
X132875D01*
X133066Y135161D01*
X132417Y134512D01*
X131783Y133686D01*
X131385Y132725D01*
X131249Y131693D01*
X131249Y131693D01*
Y124378D01*
X131202Y124016D01*
X131339Y122971D01*
X131742Y121999D01*
X132383Y121163D01*
X133219Y120522D01*
X134192Y120119D01*
X135236Y119981D01*
X136280Y120119D01*
X137253Y120522D01*
X138089Y121163D01*
X138730Y121999D01*
X139133Y122971D01*
X139271Y124016D01*
X139223Y124378D01*
Y130042D01*
X144805Y135623D01*
X225942D01*
X226070Y135314D01*
X226101Y135123D01*
X225484Y134320D01*
X225086Y133359D01*
X224950Y132327D01*
X224950Y132327D01*
Y124378D01*
X224903Y124016D01*
X225040Y122971D01*
X225443Y121999D01*
X226084Y121163D01*
X226920Y120522D01*
X227893Y120119D01*
X228937Y119981D01*
X229981Y120119D01*
X230954Y120522D01*
X231790Y121163D01*
X232431Y121999D01*
X232834Y122971D01*
X232972Y124016D01*
X232924Y124378D01*
Y130675D01*
X237872Y135623D01*
X319456D01*
X319684Y135123D01*
X319185Y134474D01*
X318787Y133512D01*
X318651Y132480D01*
X318651Y132480D01*
Y124378D01*
X318603Y124016D01*
X318741Y122971D01*
X319144Y121999D01*
X319785Y121163D01*
X320620Y120522D01*
X321594Y120119D01*
X322638Y119981D01*
X323682Y120119D01*
X324655Y120522D01*
X325491Y121163D01*
X326132Y121999D01*
X326535Y122971D01*
X326672Y124016D01*
X326625Y124378D01*
Y130829D01*
X331419Y135623D01*
X369762D01*
X379489Y125896D01*
X379038Y124808D01*
X378882Y123622D01*
X379038Y122436D01*
X379496Y121331D01*
X380224Y120382D01*
X381173Y119653D01*
X381840Y119377D01*
Y117867D01*
X381173Y117591D01*
X380224Y116862D01*
X379496Y115913D01*
X379038Y114808D01*
X378882Y113622D01*
X379038Y112436D01*
X379496Y111331D01*
X380224Y110382D01*
X381173Y109653D01*
X382278Y109196D01*
X383465Y109040D01*
X388189D01*
X389375Y109196D01*
X390480Y109653D01*
X391429Y110382D01*
X392158Y111331D01*
X392615Y112436D01*
X392772Y113622D01*
X392615Y114808D01*
X392158Y115913D01*
X391429Y116862D01*
X390480Y117591D01*
X389814Y117867D01*
Y119377D01*
X390480Y119653D01*
X391429Y120382D01*
X392158Y121331D01*
X392615Y122436D01*
X392772Y123622D01*
X392615Y124808D01*
X392158Y125913D01*
X391429Y126862D01*
X390480Y127591D01*
X389375Y128048D01*
X388498Y128164D01*
X374233Y142429D01*
X373407Y143063D01*
X372445Y143461D01*
X372325Y143477D01*
X371413Y143597D01*
D02*
G37*
G36*
X337402Y131987D02*
X336357Y131850D01*
X335384Y131447D01*
X334549Y130806D01*
X333908Y129970D01*
X333505Y128997D01*
X333367Y127953D01*
X333505Y126909D01*
X333908Y125935D01*
X334549Y125100D01*
X335384Y124459D01*
X336357Y124056D01*
X337402Y123918D01*
X338446Y124056D01*
X339419Y124459D01*
X340254Y125100D01*
X340896Y125935D01*
X341299Y126909D01*
X341436Y127953D01*
X341299Y128997D01*
X340896Y129970D01*
X340254Y130806D01*
X339419Y131447D01*
X338446Y131850D01*
X337402Y131987D01*
D02*
G37*
G36*
X243701D02*
X242657Y131850D01*
X241684Y131447D01*
X240848Y130806D01*
X240207Y129970D01*
X239804Y128997D01*
X239666Y127953D01*
X239804Y126909D01*
X240207Y125935D01*
X240848Y125100D01*
X241684Y124459D01*
X242657Y124056D01*
X243701Y123918D01*
X244745Y124056D01*
X245718Y124459D01*
X246554Y125100D01*
X247195Y125935D01*
X247598Y126909D01*
X247735Y127953D01*
X247598Y128997D01*
X247195Y129970D01*
X246554Y130806D01*
X245718Y131447D01*
X244745Y131850D01*
X243701Y131987D01*
D02*
G37*
G36*
X150000D02*
X148956Y131850D01*
X147983Y131447D01*
X147147Y130806D01*
X146506Y129970D01*
X146103Y128997D01*
X145966Y127953D01*
X146103Y126909D01*
X146506Y125935D01*
X147147Y125100D01*
X147983Y124459D01*
X148956Y124056D01*
X150000Y123918D01*
X151044Y124056D01*
X152017Y124459D01*
X152853Y125100D01*
X153494Y125935D01*
X153897Y126909D01*
X154034Y127953D01*
X153897Y128997D01*
X153494Y129970D01*
X152853Y130806D01*
X152017Y131447D01*
X151044Y131850D01*
X150000Y131987D01*
D02*
G37*
G36*
X56299D02*
X55255Y131850D01*
X54282Y131447D01*
X53446Y130806D01*
X52805Y129970D01*
X52402Y128997D01*
X52265Y127953D01*
X52402Y126909D01*
X52805Y125935D01*
X53446Y125100D01*
X54282Y124459D01*
X55255Y124056D01*
X56299Y123918D01*
X57343Y124056D01*
X58316Y124459D01*
X59152Y125100D01*
X59793Y125935D01*
X60196Y126909D01*
X60334Y127953D01*
X60196Y128997D01*
X59793Y129970D01*
X59152Y130806D01*
X58316Y131447D01*
X57343Y131850D01*
X56299Y131987D01*
D02*
G37*
G36*
X352165Y128050D02*
X351121Y127913D01*
X350148Y127510D01*
X349312Y126869D01*
X348671Y126033D01*
X348268Y125060D01*
X348131Y124016D01*
X348268Y122971D01*
X348671Y121999D01*
X349312Y121163D01*
X350148Y120522D01*
X351121Y120119D01*
X352165Y119981D01*
X353210Y120119D01*
X354183Y120522D01*
X355018Y121163D01*
X355659Y121999D01*
X356062Y122971D01*
X356200Y124016D01*
X356062Y125060D01*
X355659Y126033D01*
X355018Y126869D01*
X354183Y127510D01*
X353210Y127913D01*
X352165Y128050D01*
D02*
G37*
G36*
X258465D02*
X257420Y127913D01*
X256447Y127510D01*
X255612Y126869D01*
X254971Y126033D01*
X254568Y125060D01*
X254430Y124016D01*
X254568Y122971D01*
X254971Y121999D01*
X255612Y121163D01*
X256447Y120522D01*
X257420Y120119D01*
X258465Y119981D01*
X259509Y120119D01*
X260482Y120522D01*
X261317Y121163D01*
X261959Y121999D01*
X262362Y122971D01*
X262499Y124016D01*
X262362Y125060D01*
X261959Y126033D01*
X261317Y126869D01*
X260482Y127510D01*
X259509Y127913D01*
X258465Y128050D01*
D02*
G37*
G36*
X164764D02*
X163720Y127913D01*
X162747Y127510D01*
X161911Y126869D01*
X161270Y126033D01*
X160867Y125060D01*
X160729Y124016D01*
X160867Y122971D01*
X161270Y121999D01*
X161911Y121163D01*
X162747Y120522D01*
X163720Y120119D01*
X164764Y119981D01*
X165808Y120119D01*
X166781Y120522D01*
X167617Y121163D01*
X168258Y121999D01*
X168661Y122971D01*
X168798Y124016D01*
X168661Y125060D01*
X168258Y126033D01*
X167617Y126869D01*
X166781Y127510D01*
X165808Y127913D01*
X164764Y128050D01*
D02*
G37*
G36*
X71063D02*
X70019Y127913D01*
X69046Y127510D01*
X68210Y126869D01*
X67569Y126033D01*
X67166Y125060D01*
X67028Y124016D01*
X67166Y122971D01*
X67569Y121999D01*
X68210Y121163D01*
X69046Y120522D01*
X70019Y120119D01*
X71063Y119981D01*
X72107Y120119D01*
X73080Y120522D01*
X73916Y121163D01*
X74557Y121999D01*
X74960Y122971D01*
X75098Y124016D01*
X74960Y125060D01*
X74557Y126033D01*
X73916Y126869D01*
X73080Y127510D01*
X72107Y127913D01*
X71063Y128050D01*
D02*
G37*
G36*
X369809Y109365D02*
X369809Y109365D01*
X314827D01*
X314827Y109365D01*
X314827Y109365D01*
X221126D01*
X221126Y109365D01*
X221126Y109365D01*
X127425D01*
X127425Y109365D01*
X127425Y109365D01*
X72307D01*
X71275Y109229D01*
X70314Y108831D01*
X69488Y108197D01*
X69488Y108197D01*
X64110Y102819D01*
X63476Y101993D01*
X63078Y101032D01*
X62942Y100000D01*
X63078Y98968D01*
X63476Y98007D01*
X64110Y97181D01*
X64936Y96547D01*
X65897Y96149D01*
X66929Y96013D01*
X67961Y96149D01*
X68923Y96547D01*
X69748Y97181D01*
X73958Y101391D01*
X82430D01*
X82677Y100891D01*
X82333Y100443D01*
X81930Y99469D01*
X81792Y98425D01*
X81930Y97381D01*
X82333Y96408D01*
X82974Y95572D01*
X83810Y94931D01*
X84783Y94528D01*
X85827Y94391D01*
X86871Y94528D01*
X87844Y94931D01*
X88680Y95572D01*
X89321Y96408D01*
X89724Y97381D01*
X89861Y98425D01*
X89724Y99469D01*
X89321Y100443D01*
X88977Y100891D01*
X89223Y101391D01*
X117076D01*
X117323Y100891D01*
X116978Y100443D01*
X116575Y99469D01*
X116438Y98425D01*
X116575Y97381D01*
X116978Y96408D01*
X117620Y95572D01*
X118455Y94931D01*
X119428Y94528D01*
X120472Y94391D01*
X121517Y94528D01*
X122490Y94931D01*
X123325Y95572D01*
X123548Y95862D01*
X129077Y101391D01*
X176131D01*
X176378Y100891D01*
X176034Y100443D01*
X175630Y99469D01*
X175493Y98425D01*
X175630Y97381D01*
X176034Y96408D01*
X176675Y95572D01*
X177510Y94931D01*
X178483Y94528D01*
X179528Y94391D01*
X180572Y94528D01*
X181545Y94931D01*
X182380Y95572D01*
X183022Y96408D01*
X183425Y97381D01*
X183562Y98425D01*
X183425Y99469D01*
X183022Y100443D01*
X182677Y100891D01*
X182924Y101391D01*
X210777D01*
X211023Y100891D01*
X210679Y100443D01*
X210276Y99469D01*
X210139Y98425D01*
X210276Y97381D01*
X210679Y96408D01*
X211320Y95572D01*
X212156Y94931D01*
X213129Y94528D01*
X214173Y94391D01*
X215217Y94528D01*
X216191Y94931D01*
X217026Y95572D01*
X217248Y95862D01*
X222777Y101391D01*
X269832D01*
X270079Y100891D01*
X269734Y100443D01*
X269331Y99469D01*
X269194Y98425D01*
X269331Y97381D01*
X269734Y96408D01*
X270375Y95572D01*
X271211Y94931D01*
X272184Y94528D01*
X273228Y94391D01*
X274273Y94528D01*
X275246Y94931D01*
X276081Y95572D01*
X276722Y96408D01*
X277125Y97381D01*
X277263Y98425D01*
X277125Y99469D01*
X276722Y100443D01*
X276378Y100891D01*
X276625Y101391D01*
X304478D01*
X304724Y100891D01*
X304380Y100443D01*
X303977Y99469D01*
X303839Y98425D01*
X303977Y97381D01*
X304380Y96408D01*
X305021Y95572D01*
X305857Y94931D01*
X306830Y94528D01*
X307874Y94391D01*
X308918Y94528D01*
X309891Y94931D01*
X310727Y95572D01*
X310949Y95862D01*
X316478Y101391D01*
X363533D01*
X363779Y100891D01*
X363435Y100443D01*
X363032Y99469D01*
X362895Y98425D01*
X363032Y97381D01*
X363435Y96408D01*
X364076Y95572D01*
X364912Y94931D01*
X365885Y94528D01*
X366929Y94391D01*
X367973Y94528D01*
X368946Y94931D01*
X369782Y95572D01*
X370423Y96408D01*
X370826Y97381D01*
X370964Y98425D01*
X370859Y99224D01*
X371239Y99678D01*
X371565Y99635D01*
X381218D01*
X381840Y99377D01*
Y97867D01*
X381173Y97591D01*
X380224Y96862D01*
X379496Y95913D01*
X379038Y94808D01*
X378882Y93622D01*
X379038Y92436D01*
X379496Y91331D01*
X380224Y90382D01*
X381173Y89653D01*
X382278Y89196D01*
X383465Y89039D01*
X388189D01*
X389375Y89196D01*
X390480Y89653D01*
X391429Y90382D01*
X392158Y91331D01*
X392615Y92436D01*
X392772Y93622D01*
X392615Y94808D01*
X392158Y95913D01*
X391429Y96862D01*
X390480Y97591D01*
X389814Y97867D01*
Y99377D01*
X390480Y99654D01*
X391429Y100382D01*
X392158Y101331D01*
X392615Y102436D01*
X392772Y103622D01*
X392615Y104808D01*
X392158Y105913D01*
X391429Y106862D01*
X390480Y107591D01*
X389375Y108048D01*
X388189Y108204D01*
X383465D01*
X382278Y108048D01*
X381218Y107609D01*
X373216D01*
X372628Y108197D01*
X371802Y108831D01*
X370841Y109229D01*
X370721Y109245D01*
X369809Y109365D01*
D02*
G37*
G36*
X362992Y87696D02*
X361948Y87559D01*
X360975Y87155D01*
X360139Y86514D01*
X359498Y85679D01*
X359095Y84706D01*
X358958Y83661D01*
X359095Y82617D01*
X359498Y81644D01*
X360139Y80809D01*
X360975Y80167D01*
X361948Y79764D01*
X362992Y79627D01*
X364036Y79764D01*
X365009Y80167D01*
X365845Y80809D01*
X366486Y81644D01*
X366889Y82617D01*
X367027Y83661D01*
X366889Y84706D01*
X366486Y85679D01*
X365845Y86514D01*
X365009Y87155D01*
X364036Y87559D01*
X362992Y87696D01*
D02*
G37*
G36*
X311811D02*
X310767Y87559D01*
X309794Y87155D01*
X308958Y86514D01*
X308317Y85679D01*
X307914Y84706D01*
X307776Y83661D01*
X307914Y82617D01*
X308317Y81644D01*
X308958Y80809D01*
X309794Y80167D01*
X310767Y79764D01*
X311811Y79627D01*
X312855Y79764D01*
X313828Y80167D01*
X314664Y80809D01*
X315305Y81644D01*
X315708Y82617D01*
X315845Y83661D01*
X315708Y84706D01*
X315305Y85679D01*
X314664Y86514D01*
X313828Y87155D01*
X312855Y87559D01*
X311811Y87696D01*
D02*
G37*
G36*
X269291D02*
X268247Y87559D01*
X267274Y87155D01*
X266439Y86514D01*
X265797Y85679D01*
X265394Y84706D01*
X265257Y83661D01*
X265394Y82617D01*
X265797Y81644D01*
X266439Y80809D01*
X267274Y80167D01*
X268247Y79764D01*
X269291Y79627D01*
X270336Y79764D01*
X271309Y80167D01*
X272144Y80809D01*
X272785Y81644D01*
X273188Y82617D01*
X273326Y83661D01*
X273188Y84706D01*
X272785Y85679D01*
X272144Y86514D01*
X271309Y87155D01*
X270336Y87559D01*
X269291Y87696D01*
D02*
G37*
G36*
X218110D02*
X217066Y87559D01*
X216093Y87155D01*
X215257Y86514D01*
X214616Y85679D01*
X214213Y84706D01*
X214076Y83661D01*
X214213Y82617D01*
X214616Y81644D01*
X215257Y80809D01*
X216093Y80167D01*
X217066Y79764D01*
X218110Y79627D01*
X219154Y79764D01*
X220128Y80167D01*
X220963Y80809D01*
X221604Y81644D01*
X222007Y82617D01*
X222145Y83661D01*
X222007Y84706D01*
X221604Y85679D01*
X220963Y86514D01*
X220128Y87155D01*
X219154Y87559D01*
X218110Y87696D01*
D02*
G37*
G36*
X175591D02*
X174546Y87559D01*
X173573Y87155D01*
X172738Y86514D01*
X172097Y85679D01*
X171694Y84706D01*
X171556Y83661D01*
X171694Y82617D01*
X172097Y81644D01*
X172738Y80809D01*
X173573Y80167D01*
X174546Y79764D01*
X175591Y79627D01*
X176635Y79764D01*
X177608Y80167D01*
X178443Y80809D01*
X179085Y81644D01*
X179488Y82617D01*
X179625Y83661D01*
X179488Y84706D01*
X179085Y85679D01*
X178443Y86514D01*
X177608Y87155D01*
X176635Y87559D01*
X175591Y87696D01*
D02*
G37*
G36*
X124409D02*
X123365Y87559D01*
X122392Y87155D01*
X121557Y86514D01*
X120915Y85679D01*
X120512Y84706D01*
X120375Y83661D01*
X120512Y82617D01*
X120915Y81644D01*
X121557Y80809D01*
X122392Y80167D01*
X123365Y79764D01*
X124409Y79627D01*
X125454Y79764D01*
X126427Y80167D01*
X127262Y80809D01*
X127903Y81644D01*
X128306Y82617D01*
X128444Y83661D01*
X128306Y84706D01*
X127903Y85679D01*
X127262Y86514D01*
X126427Y87155D01*
X125454Y87559D01*
X124409Y87696D01*
D02*
G37*
G36*
X30709D02*
X29664Y87559D01*
X28691Y87155D01*
X27856Y86514D01*
X27215Y85679D01*
X26812Y84706D01*
X26674Y83661D01*
X26812Y82617D01*
X27215Y81644D01*
X27856Y80809D01*
X28691Y80167D01*
X29664Y79764D01*
X30709Y79627D01*
X31753Y79764D01*
X32726Y80167D01*
X33562Y80809D01*
X34203Y81644D01*
X34606Y82617D01*
X34743Y83661D01*
X34606Y84706D01*
X34203Y85679D01*
X33562Y86514D01*
X32726Y87155D01*
X31753Y87559D01*
X30709Y87696D01*
D02*
G37*
G36*
X352165Y76869D02*
X351121Y76732D01*
X350148Y76329D01*
X349312Y75687D01*
X348671Y74852D01*
X348268Y73879D01*
X348131Y72835D01*
X348268Y71790D01*
X348671Y70817D01*
X349312Y69982D01*
X350148Y69341D01*
X351121Y68938D01*
X352165Y68800D01*
X353210Y68938D01*
X354183Y69341D01*
X355018Y69982D01*
X355659Y70817D01*
X356062Y71790D01*
X356200Y72835D01*
X356062Y73879D01*
X355659Y74852D01*
X355018Y75687D01*
X354183Y76329D01*
X353210Y76732D01*
X352165Y76869D01*
D02*
G37*
G36*
X322638D02*
X321594Y76732D01*
X320620Y76329D01*
X319785Y75687D01*
X319144Y74852D01*
X318741Y73879D01*
X318603Y72835D01*
X318741Y71790D01*
X319144Y70817D01*
X319785Y69982D01*
X320620Y69341D01*
X321594Y68938D01*
X322638Y68800D01*
X323682Y68938D01*
X324655Y69341D01*
X325491Y69982D01*
X326132Y70817D01*
X326535Y71790D01*
X326672Y72835D01*
X326535Y73879D01*
X326132Y74852D01*
X325491Y75687D01*
X324655Y76329D01*
X323682Y76732D01*
X322638Y76869D01*
D02*
G37*
G36*
X258465D02*
X257420Y76732D01*
X256447Y76329D01*
X255612Y75687D01*
X254971Y74852D01*
X254568Y73879D01*
X254430Y72835D01*
X254568Y71790D01*
X254971Y70817D01*
X255612Y69982D01*
X256447Y69341D01*
X257420Y68938D01*
X258465Y68800D01*
X259509Y68938D01*
X260482Y69341D01*
X261317Y69982D01*
X261959Y70817D01*
X262362Y71790D01*
X262499Y72835D01*
X262362Y73879D01*
X261959Y74852D01*
X261317Y75687D01*
X260482Y76329D01*
X259509Y76732D01*
X258465Y76869D01*
D02*
G37*
G36*
X228937D02*
X227893Y76732D01*
X226920Y76329D01*
X226084Y75687D01*
X225443Y74852D01*
X225040Y73879D01*
X224903Y72835D01*
X225040Y71790D01*
X225443Y70817D01*
X226084Y69982D01*
X226920Y69341D01*
X227893Y68938D01*
X228937Y68800D01*
X229981Y68938D01*
X230954Y69341D01*
X231790Y69982D01*
X232431Y70817D01*
X232834Y71790D01*
X232972Y72835D01*
X232834Y73879D01*
X232431Y74852D01*
X231790Y75687D01*
X230954Y76329D01*
X229981Y76732D01*
X228937Y76869D01*
D02*
G37*
G36*
X164764D02*
X163720Y76732D01*
X162747Y76329D01*
X161911Y75687D01*
X161270Y74852D01*
X160867Y73879D01*
X160729Y72835D01*
X160867Y71790D01*
X161270Y70817D01*
X161911Y69982D01*
X162747Y69341D01*
X163720Y68938D01*
X164764Y68800D01*
X165808Y68938D01*
X166781Y69341D01*
X167617Y69982D01*
X168258Y70817D01*
X168661Y71790D01*
X168798Y72835D01*
X168661Y73879D01*
X168258Y74852D01*
X167617Y75687D01*
X166781Y76329D01*
X165808Y76732D01*
X164764Y76869D01*
D02*
G37*
G36*
X135236D02*
X134192Y76732D01*
X133219Y76329D01*
X132383Y75687D01*
X131742Y74852D01*
X131339Y73879D01*
X131202Y72835D01*
X131339Y71790D01*
X131742Y70817D01*
X132383Y69982D01*
X133219Y69341D01*
X134192Y68938D01*
X135236Y68800D01*
X136280Y68938D01*
X137253Y69341D01*
X138089Y69982D01*
X138730Y70817D01*
X139133Y71790D01*
X139271Y72835D01*
X139133Y73879D01*
X138730Y74852D01*
X138089Y75687D01*
X137253Y76329D01*
X136280Y76732D01*
X135236Y76869D01*
D02*
G37*
G36*
X41535D02*
X40491Y76732D01*
X39518Y76329D01*
X38683Y75687D01*
X38041Y74852D01*
X37638Y73879D01*
X37501Y72835D01*
X37638Y71790D01*
X38041Y70817D01*
X38683Y69982D01*
X39518Y69341D01*
X40491Y68938D01*
X41535Y68800D01*
X42580Y68938D01*
X43553Y69341D01*
X44388Y69982D01*
X45029Y70817D01*
X45432Y71790D01*
X45570Y72835D01*
X45432Y73879D01*
X45029Y74852D01*
X44388Y75687D01*
X43553Y76329D01*
X42580Y76732D01*
X41535Y76869D01*
D02*
G37*
G36*
X304331Y79971D02*
X303299Y79835D01*
X302337Y79437D01*
X301512Y78803D01*
X300878Y77978D01*
X300480Y77016D01*
X300344Y75984D01*
X300480Y74952D01*
X300551Y74781D01*
X282176Y56407D01*
X281781Y55816D01*
X281642Y55118D01*
X281642Y55118D01*
Y44468D01*
X281471Y44398D01*
X280645Y43764D01*
X280012Y42938D01*
X279614Y41977D01*
X279478Y40945D01*
X279614Y39913D01*
X280012Y38951D01*
X280645Y38126D01*
X281471Y37492D01*
X282433Y37094D01*
X283465Y36958D01*
X284496Y37094D01*
X285458Y37492D01*
X286284Y38126D01*
X286917Y38951D01*
X287316Y39913D01*
X287451Y40945D01*
X287316Y41977D01*
X286917Y42938D01*
X286284Y43764D01*
X285458Y44398D01*
X285287Y44468D01*
Y47644D01*
X285318Y47680D01*
X285559Y47660D01*
X285844Y47520D01*
X285912Y46999D01*
X286311Y46038D01*
X286944Y45212D01*
X287770Y44579D01*
X288731Y44180D01*
X289763Y44045D01*
X290795Y44180D01*
X291757Y44579D01*
X292582Y45212D01*
X293216Y46038D01*
X293614Y46999D01*
X293750Y48031D01*
X293614Y49063D01*
X293216Y50025D01*
X292582Y50850D01*
X291946Y51339D01*
X291851Y51875D01*
X291876Y51976D01*
X305096Y65196D01*
X305267Y65125D01*
X306299Y64990D01*
X307331Y65125D01*
X308293Y65524D01*
X309118Y66157D01*
X309752Y66983D01*
X310150Y67945D01*
X310286Y68976D01*
X310150Y70008D01*
X309752Y70970D01*
X309118Y71795D01*
X308293Y72429D01*
X307458Y72775D01*
X307404Y72844D01*
X307302Y73128D01*
X307283Y73338D01*
X307783Y73991D01*
X308182Y74952D01*
X308318Y75984D01*
X308182Y77016D01*
X307783Y77978D01*
X307150Y78803D01*
X306324Y79437D01*
X305363Y79835D01*
X304331Y79971D01*
D02*
G37*
G36*
X337402Y72932D02*
X336357Y72795D01*
X335384Y72392D01*
X334549Y71750D01*
X333908Y70915D01*
X333505Y69942D01*
X333367Y68898D01*
X333505Y67853D01*
X333908Y66880D01*
X334549Y66045D01*
X335384Y65404D01*
X336357Y65001D01*
X337402Y64863D01*
X338446Y65001D01*
X339419Y65404D01*
X340254Y66045D01*
X340896Y66880D01*
X341299Y67853D01*
X341436Y68898D01*
X341299Y69942D01*
X340896Y70915D01*
X340254Y71750D01*
X339419Y72392D01*
X338446Y72795D01*
X337402Y72932D01*
D02*
G37*
G36*
X243701D02*
X242657Y72795D01*
X241684Y72392D01*
X240848Y71750D01*
X240207Y70915D01*
X239804Y69942D01*
X239666Y68898D01*
X239804Y67853D01*
X240207Y66880D01*
X240848Y66045D01*
X241684Y65404D01*
X242657Y65001D01*
X243701Y64863D01*
X244745Y65001D01*
X245718Y65404D01*
X246554Y66045D01*
X247195Y66880D01*
X247598Y67853D01*
X247735Y68898D01*
X247598Y69942D01*
X247195Y70915D01*
X246554Y71750D01*
X245718Y72392D01*
X244745Y72795D01*
X243701Y72932D01*
D02*
G37*
G36*
X150000D02*
X148956Y72795D01*
X147983Y72392D01*
X147147Y71750D01*
X146506Y70915D01*
X146103Y69942D01*
X145966Y68898D01*
X146103Y67853D01*
X146506Y66880D01*
X147147Y66045D01*
X147983Y65404D01*
X148956Y65001D01*
X150000Y64863D01*
X151044Y65001D01*
X152017Y65404D01*
X152853Y66045D01*
X153494Y66880D01*
X153897Y67853D01*
X154034Y68898D01*
X153897Y69942D01*
X153494Y70915D01*
X152853Y71750D01*
X152017Y72392D01*
X151044Y72795D01*
X150000Y72932D01*
D02*
G37*
G36*
X114961Y58255D02*
X114047Y58134D01*
X113196Y57782D01*
X112464Y57221D01*
X111903Y56489D01*
X111551Y55638D01*
X111430Y54724D01*
X111551Y53811D01*
X111903Y52959D01*
X112464Y52228D01*
X113196Y51667D01*
X114047Y51315D01*
X114961Y51194D01*
X115874Y51315D01*
X116018Y51374D01*
X116570Y50822D01*
X117096Y50470D01*
X117717Y50347D01*
X143340D01*
X143400Y50203D01*
X143960Y49472D01*
X144692Y48911D01*
X145543Y48559D01*
X146457Y48438D01*
X147370Y48559D01*
X148222Y48911D01*
X148953Y49472D01*
X149514Y50203D01*
X149867Y51055D01*
X149987Y51968D01*
X149867Y52882D01*
X149514Y53734D01*
X148953Y54465D01*
X148222Y55026D01*
X147370Y55378D01*
X146457Y55499D01*
X145543Y55378D01*
X144692Y55026D01*
X143960Y54465D01*
X143400Y53734D01*
X143340Y53590D01*
X118820D01*
X118752Y53624D01*
X118407Y54090D01*
X118491Y54724D01*
X118370Y55638D01*
X118018Y56489D01*
X117457Y57221D01*
X116726Y57782D01*
X115874Y58134D01*
X114961Y58255D01*
D02*
G37*
G36*
X45276Y28003D02*
X44244Y27867D01*
X43282Y27468D01*
X42456Y26835D01*
X41823Y26009D01*
X41425Y25048D01*
X41289Y24016D01*
X41425Y22984D01*
X41823Y22022D01*
X42456Y21197D01*
X43282Y20563D01*
X44048Y20246D01*
Y13056D01*
X43676Y12901D01*
X42850Y12268D01*
X42217Y11442D01*
X41818Y10481D01*
X41682Y9449D01*
X41818Y8417D01*
X42217Y7455D01*
X42850Y6630D01*
X43676Y5996D01*
X44637Y5598D01*
X45669Y5462D01*
X46701Y5598D01*
X47663Y5996D01*
X48488Y6630D01*
X49122Y7455D01*
X49520Y8417D01*
X49656Y9449D01*
X49520Y10481D01*
X49122Y11442D01*
X48488Y12268D01*
X47663Y12901D01*
X47291Y13056D01*
Y20580D01*
X48095Y21197D01*
X48728Y22022D01*
X48990Y22655D01*
X49531D01*
X49699Y22251D01*
X50260Y21520D01*
X50991Y20958D01*
X51134Y20899D01*
Y11811D01*
X51258Y11190D01*
X51595Y10685D01*
X51588Y10630D01*
X51708Y9716D01*
X52061Y8865D01*
X52622Y8134D01*
X53353Y7573D01*
X54204Y7220D01*
X55118Y7100D01*
X56032Y7220D01*
X56883Y7573D01*
X57614Y8134D01*
X58175Y8865D01*
X58528Y9716D01*
X58648Y10630D01*
X58528Y11544D01*
X58175Y12395D01*
X57614Y13126D01*
X56883Y13687D01*
X56032Y14040D01*
X55118Y14160D01*
X54754Y14112D01*
X54378Y14442D01*
Y20899D01*
X54521Y20958D01*
X55252Y21520D01*
X55813Y22251D01*
X56166Y23102D01*
X56286Y24016D01*
X56166Y24929D01*
X55813Y25781D01*
X55252Y26512D01*
X54521Y27073D01*
X53670Y27426D01*
X52756Y27546D01*
X51842Y27426D01*
X50991Y27073D01*
X50260Y26512D01*
X49699Y25781D01*
X49531Y25377D01*
X48990D01*
X48728Y26009D01*
X48095Y26835D01*
X47269Y27468D01*
X46308Y27867D01*
X45276Y28003D01*
D02*
G37*
G36*
X30315Y39026D02*
X29283Y38890D01*
X28321Y38492D01*
X27496Y37859D01*
X26862Y37033D01*
X26464Y36071D01*
X26328Y35039D01*
X26464Y34007D01*
X26862Y33046D01*
X27496Y32220D01*
X28321Y31587D01*
X28693Y31433D01*
Y17386D01*
X28321Y17232D01*
X27496Y16599D01*
X26862Y15773D01*
X26464Y14811D01*
X26328Y13780D01*
X26464Y12748D01*
X26862Y11786D01*
X27496Y10960D01*
X28321Y10327D01*
X29283Y9928D01*
X30315Y9793D01*
X31347Y9928D01*
X32308Y10327D01*
X32904Y10784D01*
X33315Y10469D01*
X33157Y10087D01*
X33021Y9055D01*
X33157Y8023D01*
X33555Y7062D01*
X34189Y6236D01*
X35014Y5602D01*
X35976Y5204D01*
X37008Y5068D01*
X38040Y5204D01*
X39001Y5602D01*
X39827Y6236D01*
X40461Y7062D01*
X40859Y8023D01*
X40995Y9055D01*
X40859Y10087D01*
X40461Y11049D01*
X39827Y11874D01*
X39001Y12508D01*
X38630Y12662D01*
Y24183D01*
X39395Y24500D01*
X40221Y25134D01*
X40854Y25959D01*
X41253Y26921D01*
X41388Y27953D01*
X41253Y28985D01*
X40854Y29946D01*
X40221Y30772D01*
X39395Y31405D01*
X38433Y31804D01*
X37402Y31940D01*
X36370Y31804D01*
X35408Y31405D01*
X34582Y30772D01*
X33949Y29946D01*
X33551Y28985D01*
X33415Y27953D01*
X33551Y26921D01*
X33949Y25959D01*
X34582Y25134D01*
X35386Y24517D01*
Y12662D01*
X35014Y12508D01*
X34418Y12050D01*
X34008Y12366D01*
X34166Y12748D01*
X34302Y13780D01*
X34166Y14811D01*
X33768Y15773D01*
X33134Y16599D01*
X32308Y17232D01*
X31937Y17386D01*
Y31433D01*
X32308Y31587D01*
X33134Y32220D01*
X33768Y33046D01*
X34166Y34007D01*
X34302Y35039D01*
X34166Y36071D01*
X33768Y37033D01*
X33134Y37859D01*
X32308Y38492D01*
X31347Y38890D01*
X30315Y39026D01*
D02*
G37*
%LPD*%
G36*
X37827Y95926D02*
X37636Y95464D01*
X30172D01*
X29925Y95964D01*
X30266Y96408D01*
X30669Y97381D01*
X30806Y98425D01*
X30669Y99469D01*
X30266Y100443D01*
X29822Y101020D01*
X30069Y101520D01*
X32233D01*
X37827Y95926D01*
D02*
G37*
G36*
X260504Y27819D02*
X259652Y27467D01*
X258921Y26906D01*
X258558Y26433D01*
X187111D01*
X186748Y26906D01*
X186017Y27467D01*
X185166Y27819D01*
X185271Y28292D01*
X260398D01*
X260504Y27819D01*
D02*
G37*
G36*
X110327Y35502D02*
X110249Y34911D01*
X110370Y33997D01*
X110722Y33146D01*
X111283Y32415D01*
X111756Y32052D01*
Y20158D01*
X111567Y20021D01*
X111276Y19932D01*
X108716Y22492D01*
Y28243D01*
X109189Y28606D01*
X109750Y29337D01*
X110103Y30189D01*
X110223Y31102D01*
X110103Y32016D01*
X109750Y32868D01*
X109189Y33599D01*
X108716Y33962D01*
Y36460D01*
X109178Y36651D01*
X110327Y35502D01*
D02*
G37*
G36*
X155149Y30179D02*
X155251Y29401D01*
X155604Y28550D01*
X156165Y27819D01*
X156896Y27258D01*
X157747Y26905D01*
X158661Y26785D01*
X159575Y26905D01*
X160426Y27258D01*
X161157Y27819D01*
X161262Y27955D01*
X161901Y27998D01*
X161992Y27909D01*
Y27150D01*
X167142D01*
Y28292D01*
X168882D01*
Y26953D01*
X176000D01*
Y28292D01*
X183233D01*
X183338Y27819D01*
X182487Y27467D01*
X181756Y26906D01*
X181195Y26175D01*
X180842Y25323D01*
X180722Y24409D01*
X180842Y23496D01*
X181195Y22644D01*
X181756Y21913D01*
X182487Y21352D01*
X183338Y21000D01*
X184252Y20879D01*
X185166Y21000D01*
X186017Y21352D01*
X186748Y21913D01*
X187111Y22386D01*
X258558D01*
X258921Y21913D01*
X259652Y21352D01*
X260504Y21000D01*
X261417Y20879D01*
X262331Y21000D01*
X263182Y21352D01*
X263913Y21913D01*
X264475Y22644D01*
X264827Y23496D01*
X264948Y24409D01*
X264827Y25323D01*
X264475Y26175D01*
X263913Y26906D01*
X263182Y27467D01*
X262331Y27819D01*
X262437Y28292D01*
X275540D01*
X282374Y21457D01*
X282297Y20866D01*
X282417Y19952D01*
X282769Y19101D01*
X283330Y18370D01*
X284062Y17809D01*
X284913Y17456D01*
X285827Y17336D01*
X286740Y17456D01*
X287147Y17625D01*
X287430Y17201D01*
X285554Y15324D01*
X121253D01*
X121204Y15373D01*
X120919Y15801D01*
X117831Y18889D01*
X118064Y19362D01*
X118504Y19304D01*
X119418Y19425D01*
X120269Y19777D01*
X121000Y20338D01*
X121561Y21070D01*
X121914Y21921D01*
X122034Y22835D01*
X121914Y23748D01*
X121561Y24600D01*
X121000Y25331D01*
X120527Y25694D01*
Y38189D01*
X120373Y38963D01*
X119934Y39619D01*
X118728Y40826D01*
X118072Y41264D01*
X117298Y41418D01*
X114331D01*
X110597Y45153D01*
X110788Y45615D01*
X139713D01*
X155149Y30179D01*
D02*
G37*
G36*
X302896Y71856D02*
X303086Y71519D01*
X303083Y71278D01*
X302847Y70970D01*
X302448Y70008D01*
X302312Y68976D01*
X302448Y67945D01*
X302519Y67773D01*
X288474Y53729D01*
X288080Y53138D01*
X287941Y52440D01*
X287941Y52440D01*
Y51555D01*
X287770Y51484D01*
X286944Y50850D01*
X286311Y50025D01*
X285912Y49063D01*
X285844Y48543D01*
X285559Y48403D01*
X285318Y48383D01*
X285287Y48419D01*
Y54363D01*
X302786Y71862D01*
X302896Y71856D01*
D02*
G37*
D18*
X164567Y35630D02*
D03*
Y29724D02*
D03*
D19*
X172441D02*
D03*
Y37205D02*
D03*
D20*
X236221Y139610D02*
X329768D01*
X143154D02*
X236221D01*
X228937Y132327D02*
X236221Y139610D01*
X228937Y124016D02*
Y132327D01*
X41535Y124016D02*
Y130512D01*
X50634Y139610D01*
X143154D01*
X135236Y124016D02*
Y131693D01*
X143154Y139610D01*
X322638Y124016D02*
Y132480D01*
X329768Y139610D01*
X371413D01*
X385827Y125197D01*
Y123622D02*
Y125197D01*
Y113622D02*
Y123622D01*
X66929Y100000D02*
X72307Y105378D01*
X127425D01*
X120472Y98425D02*
X127425Y105378D01*
X221126D01*
X214173Y98425D02*
X221126Y105378D01*
X314827D01*
X307874Y98425D02*
X314827Y105378D01*
X369809D01*
X371565Y103622D01*
X385827D01*
Y93622D02*
Y103622D01*
D21*
X33543Y123543D02*
X109449Y47638D01*
X33204Y119685D02*
X113493Y39395D01*
X7874Y123543D02*
X33543D01*
X18110Y119685D02*
X33204D01*
X33071Y103543D02*
X68764Y67850D01*
X7874Y103543D02*
X33071D01*
X7874Y93441D02*
X38842D01*
X118504Y22835D02*
Y38189D01*
X117298Y39395D02*
X118504Y38189D01*
X184252Y24409D02*
X261417D01*
X276378Y30315D02*
X285827Y20866D01*
X157874Y30315D02*
X158661D01*
X140551Y47638D02*
X157874Y30315D01*
X158661D02*
X276378D01*
X7874Y83543D02*
X15669D01*
X117142Y7661D02*
X117323Y7480D01*
X116487Y7661D02*
X117142D01*
X64700Y59449D02*
X116487Y7661D01*
X39764Y59449D02*
X64700D01*
X15669Y83543D02*
X39764Y59449D01*
X106693Y21654D02*
X117717Y10630D01*
X106693Y21654D02*
Y31102D01*
Y37402D01*
X79528Y64567D02*
X106693Y37402D01*
X67716Y64567D02*
X79528D01*
X38842Y93441D02*
X67716Y64567D01*
X7874Y93441D02*
Y93543D01*
X113779Y20079D02*
Y32677D01*
Y20079D02*
X119488Y14370D01*
X113493Y39395D02*
X117298D01*
X80840Y67850D02*
X113779Y34911D01*
X68764Y67850D02*
X80840D01*
X11969Y113543D02*
X18110Y119685D01*
X7874Y113543D02*
X11969D01*
X109449Y47638D02*
X140551D01*
D22*
X117323Y7480D02*
X290551D01*
X117717Y10630D02*
X287498D01*
X113779Y32677D02*
Y34911D01*
X119488Y14370D02*
X120457Y13402D01*
X297299Y20134D02*
X313779Y36614D01*
X297002Y20134D02*
X297299D01*
X313779Y36614D02*
Y61811D01*
X303543Y30594D02*
Y40157D01*
X286350Y13402D02*
X303543Y30594D01*
X120457Y13402D02*
X286350D01*
X287498Y10630D02*
X297002Y20134D01*
X290551Y7480D02*
X298819Y15748D01*
D23*
X114961Y54724D02*
X117717Y51968D01*
X146457D01*
X37008Y9055D02*
Y27953D01*
X53937Y10630D02*
X55118D01*
X52756Y11811D02*
X53937Y10630D01*
X52756Y11811D02*
Y24016D01*
X45276D02*
X45669Y23622D01*
Y9449D02*
Y23622D01*
X37008Y27953D02*
X37402D01*
X30315Y13780D02*
Y35039D01*
Y11417D02*
Y13780D01*
D24*
X283465Y55118D02*
X304331Y75984D01*
X283465Y40945D02*
Y55118D01*
X289763Y48031D02*
Y52440D01*
X289764Y52441D01*
X306299Y68976D01*
D25*
X377953Y181102D02*
D03*
Y15748D02*
D03*
X15748Y181102D02*
D03*
Y15748D02*
D03*
D26*
X366929Y98425D02*
D03*
X362992Y83661D02*
D03*
X352165Y72835D02*
D03*
X337402Y68898D02*
D03*
X322638Y72835D02*
D03*
X311811Y83661D02*
D03*
X307874Y98425D02*
D03*
X311811Y113189D02*
D03*
X322638Y124016D02*
D03*
X337402Y127953D02*
D03*
X352165Y124016D02*
D03*
X273228Y98425D02*
D03*
X269291Y83661D02*
D03*
X258465Y72835D02*
D03*
X243701Y68898D02*
D03*
X228937Y72835D02*
D03*
X218110Y83661D02*
D03*
X214173Y98425D02*
D03*
X218110Y113189D02*
D03*
X228937Y124016D02*
D03*
X243701Y127953D02*
D03*
X258465Y124016D02*
D03*
X179528Y98425D02*
D03*
X175591Y83661D02*
D03*
X164764Y72835D02*
D03*
X150000Y68898D02*
D03*
X135236Y72835D02*
D03*
X124409Y83661D02*
D03*
X120472Y98425D02*
D03*
X124409Y113189D02*
D03*
X135236Y124016D02*
D03*
X150000Y127953D02*
D03*
X164764Y124016D02*
D03*
X85827Y98425D02*
D03*
X81890Y83661D02*
D03*
X71063Y72835D02*
D03*
X56299Y68898D02*
D03*
X41535Y72835D02*
D03*
X30709Y83661D02*
D03*
X26772Y98425D02*
D03*
X30709Y113189D02*
D03*
X41535Y124016D02*
D03*
X56299Y127953D02*
D03*
X71063Y124016D02*
D03*
D27*
X385827Y103622D02*
D03*
Y113622D02*
D03*
Y123622D02*
D03*
Y93622D02*
D03*
Y73622D02*
D03*
Y83622D02*
D03*
X7874Y103622D02*
D03*
Y113622D02*
D03*
Y123622D02*
D03*
Y93622D02*
D03*
Y73622D02*
D03*
Y83622D02*
D03*
D28*
X37795Y146063D02*
D03*
X27953D02*
D03*
X23031Y136221D02*
D03*
X32874D02*
D03*
X18110Y146063D02*
D03*
X8268D02*
D03*
X72834Y96456D02*
D03*
X66929Y100000D02*
D03*
X382283Y165748D02*
D03*
X387205Y155905D02*
D03*
X382283Y146063D02*
D03*
X387205Y57480D02*
D03*
X382283Y47638D02*
D03*
X387205Y37795D02*
D03*
X382283Y27953D02*
D03*
X372441Y165748D02*
D03*
X377362Y155905D02*
D03*
X372441Y146063D02*
D03*
Y126378D02*
D03*
X377362Y77165D02*
D03*
Y57480D02*
D03*
Y37795D02*
D03*
X372441Y27953D02*
D03*
X362598Y185433D02*
D03*
Y165748D02*
D03*
X367520Y155905D02*
D03*
X362598Y146063D02*
D03*
Y126378D02*
D03*
X367520Y116535D02*
D03*
X362598Y8268D02*
D03*
X352756Y185433D02*
D03*
X357677Y175591D02*
D03*
X352756Y165748D02*
D03*
X357677Y155905D02*
D03*
X352756Y146063D02*
D03*
X357677Y116535D02*
D03*
Y18110D02*
D03*
X352756Y8268D02*
D03*
X342913Y185433D02*
D03*
X347835Y175591D02*
D03*
X342913Y165748D02*
D03*
X347835Y155905D02*
D03*
X342913Y146063D02*
D03*
X347835Y96850D02*
D03*
Y57480D02*
D03*
Y37795D02*
D03*
X342913Y8268D02*
D03*
X333071Y185433D02*
D03*
X337992Y175591D02*
D03*
X333071Y165748D02*
D03*
X337992Y155905D02*
D03*
X333071Y146063D02*
D03*
X337992Y116535D02*
D03*
Y96850D02*
D03*
Y57480D02*
D03*
X333071Y47638D02*
D03*
Y8268D02*
D03*
X323228Y185433D02*
D03*
X328150Y155905D02*
D03*
X323228Y146063D02*
D03*
X328150Y57480D02*
D03*
X313386Y185433D02*
D03*
X318307Y155905D02*
D03*
X313386Y146063D02*
D03*
Y126378D02*
D03*
X318307Y116535D02*
D03*
X303543Y185433D02*
D03*
X308465Y155905D02*
D03*
X303543Y146063D02*
D03*
Y126378D02*
D03*
X293701Y185433D02*
D03*
X298622Y155905D02*
D03*
X293701Y146063D02*
D03*
Y126378D02*
D03*
X298622Y116535D02*
D03*
X283858Y185433D02*
D03*
X288779Y155905D02*
D03*
X283858Y146063D02*
D03*
Y67323D02*
D03*
X274016Y185433D02*
D03*
X278937Y155905D02*
D03*
X274016Y146063D02*
D03*
Y126378D02*
D03*
X278937Y116535D02*
D03*
Y77165D02*
D03*
X274016Y67323D02*
D03*
X264173Y185433D02*
D03*
Y165748D02*
D03*
X269094Y155905D02*
D03*
X264173Y146063D02*
D03*
X269094Y116535D02*
D03*
X254331Y185433D02*
D03*
X259252Y175591D02*
D03*
X254331Y165748D02*
D03*
X259252Y155905D02*
D03*
X254331Y146063D02*
D03*
X259252Y116535D02*
D03*
Y96850D02*
D03*
X254331Y67323D02*
D03*
Y47638D02*
D03*
X244488Y185433D02*
D03*
X249410Y175591D02*
D03*
X244488Y165748D02*
D03*
X249410Y155905D02*
D03*
X244488Y146063D02*
D03*
X249410Y116535D02*
D03*
Y96850D02*
D03*
Y57480D02*
D03*
X244488Y47638D02*
D03*
X249410Y37795D02*
D03*
Y18110D02*
D03*
X234646Y185433D02*
D03*
X239567Y175591D02*
D03*
X234646Y165748D02*
D03*
X239567Y155905D02*
D03*
X234646Y146063D02*
D03*
X239567Y116535D02*
D03*
Y96850D02*
D03*
X234646Y67323D02*
D03*
X239567Y57480D02*
D03*
X234646Y47638D02*
D03*
X239567Y37795D02*
D03*
Y18110D02*
D03*
X224803Y185433D02*
D03*
X229724Y175591D02*
D03*
X224803Y165748D02*
D03*
X229724Y155905D02*
D03*
X224803Y146063D02*
D03*
X229724Y37795D02*
D03*
Y18110D02*
D03*
X214961Y185433D02*
D03*
X219882Y175591D02*
D03*
X214961Y165748D02*
D03*
X219882Y155905D02*
D03*
X214961Y146063D02*
D03*
Y67323D02*
D03*
X219882Y18110D02*
D03*
X205118Y185433D02*
D03*
X210039Y175591D02*
D03*
X205118Y165748D02*
D03*
X210039Y155905D02*
D03*
X205118Y146063D02*
D03*
Y126378D02*
D03*
X210039Y18110D02*
D03*
X195276Y185433D02*
D03*
X200197Y175591D02*
D03*
X195276Y165748D02*
D03*
X200197Y155905D02*
D03*
X195276Y146063D02*
D03*
Y126378D02*
D03*
X200197Y116535D02*
D03*
Y96850D02*
D03*
X195276Y87008D02*
D03*
X200197Y77165D02*
D03*
X195276Y67323D02*
D03*
X200197Y57480D02*
D03*
X185433Y185433D02*
D03*
X190354Y175591D02*
D03*
X185433Y165748D02*
D03*
X190354Y155905D02*
D03*
X185433Y146063D02*
D03*
Y126378D02*
D03*
X190354Y116535D02*
D03*
Y96850D02*
D03*
X185433Y87008D02*
D03*
X190354Y77165D02*
D03*
X185433Y67323D02*
D03*
X190354Y57480D02*
D03*
Y18110D02*
D03*
X175591Y185433D02*
D03*
X180512Y175591D02*
D03*
X175591Y165748D02*
D03*
X180512Y155905D02*
D03*
X175591Y146063D02*
D03*
X180512Y77165D02*
D03*
Y57480D02*
D03*
Y18110D02*
D03*
X165748Y185433D02*
D03*
X170669Y175591D02*
D03*
X165748Y165748D02*
D03*
X170669Y155905D02*
D03*
X165748Y146063D02*
D03*
X170669Y116535D02*
D03*
Y57480D02*
D03*
Y18110D02*
D03*
X155905Y185433D02*
D03*
X160827Y175591D02*
D03*
X155905Y165748D02*
D03*
X160827Y155905D02*
D03*
X155905Y146063D02*
D03*
X160827Y116535D02*
D03*
X155905Y87008D02*
D03*
X160827Y57480D02*
D03*
Y18110D02*
D03*
X146063Y185433D02*
D03*
X150984Y175591D02*
D03*
X146063Y165748D02*
D03*
X150984Y155905D02*
D03*
X146063Y146063D02*
D03*
Y87008D02*
D03*
X150984Y77165D02*
D03*
Y57480D02*
D03*
X136221Y185433D02*
D03*
X141142Y175591D02*
D03*
X136221Y165748D02*
D03*
X141142Y155905D02*
D03*
X136221Y146063D02*
D03*
Y87008D02*
D03*
X141142Y77165D02*
D03*
X126378Y185433D02*
D03*
X131299Y175591D02*
D03*
X126378Y165748D02*
D03*
X131299Y155905D02*
D03*
X126378Y146063D02*
D03*
Y126378D02*
D03*
X131299Y116535D02*
D03*
X116535Y185433D02*
D03*
X121457Y175591D02*
D03*
X116535Y165748D02*
D03*
X121457Y155905D02*
D03*
X116535Y146063D02*
D03*
Y126378D02*
D03*
X106693Y185433D02*
D03*
X111614Y175591D02*
D03*
X106693Y165748D02*
D03*
X111614Y155905D02*
D03*
X106693Y146063D02*
D03*
Y126378D02*
D03*
Y87008D02*
D03*
Y67323D02*
D03*
X96850Y185433D02*
D03*
X101772Y175591D02*
D03*
X96850Y165748D02*
D03*
X101772Y155905D02*
D03*
X96850Y146063D02*
D03*
X101772Y96850D02*
D03*
X96850Y87008D02*
D03*
X101772Y77165D02*
D03*
X96850Y67323D02*
D03*
X87008Y185433D02*
D03*
X91929Y175591D02*
D03*
X87008Y165748D02*
D03*
X91929Y155905D02*
D03*
X87008Y146063D02*
D03*
X91929Y116535D02*
D03*
Y77165D02*
D03*
X87008Y47638D02*
D03*
Y27953D02*
D03*
X77165Y185433D02*
D03*
X82087Y175591D02*
D03*
X77165Y165748D02*
D03*
X82087Y155905D02*
D03*
X77165Y146063D02*
D03*
X82087Y116535D02*
D03*
X77165Y27953D02*
D03*
X67323Y185433D02*
D03*
X72244Y175591D02*
D03*
X67323Y165748D02*
D03*
X72244Y155905D02*
D03*
X67323Y146063D02*
D03*
X72244Y116535D02*
D03*
X67323Y47638D02*
D03*
X72244Y37795D02*
D03*
X67323Y27953D02*
D03*
X57480Y185433D02*
D03*
X62402Y175591D02*
D03*
X57480Y165748D02*
D03*
X62402Y155905D02*
D03*
X57480Y146063D02*
D03*
X62402Y116535D02*
D03*
X57480Y87008D02*
D03*
Y47638D02*
D03*
X62402Y37795D02*
D03*
X57480Y27953D02*
D03*
X47638Y185433D02*
D03*
X52559Y175591D02*
D03*
X47638Y165748D02*
D03*
X52559Y155905D02*
D03*
X47638Y146063D02*
D03*
X52559Y116535D02*
D03*
X47638Y67323D02*
D03*
X37795Y185433D02*
D03*
X42717Y175591D02*
D03*
X37795Y165748D02*
D03*
X42717Y155905D02*
D03*
X37795Y87008D02*
D03*
X27953Y185433D02*
D03*
X32874Y175591D02*
D03*
X27953Y165748D02*
D03*
X32874Y155905D02*
D03*
X18110Y165748D02*
D03*
X23031Y155905D02*
D03*
X8268Y165748D02*
D03*
X13189Y155905D02*
D03*
Y136221D02*
D03*
X8268Y47638D02*
D03*
Y27953D02*
D03*
X118504Y22835D02*
D03*
X261417Y24409D02*
D03*
X184252D02*
D03*
X158661Y30315D02*
D03*
X106693Y31102D02*
D03*
X113779Y34911D02*
D03*
X285827Y20866D02*
D03*
X313779Y61811D02*
D03*
X303543Y40157D02*
D03*
X114961Y54724D02*
D03*
X146457Y51968D02*
D03*
X298819Y15748D02*
D03*
X55118Y10630D02*
D03*
X52756Y24016D02*
D03*
D29*
X45276D02*
D03*
X45669Y9449D02*
D03*
X37402Y27953D02*
D03*
X37008Y9055D02*
D03*
X30315Y13780D02*
D03*
Y35039D02*
D03*
X304331Y75984D02*
D03*
X283465Y40945D02*
D03*
X289763Y48031D02*
D03*
X306299Y68976D02*
D03*
M02*
