G04*
G04 #@! TF.GenerationSoftware,Altium Limited,Altium Designer,18.0.9 (584)*
G04*
G04 Layer_Physical_Order=2*
G04 Layer_Color=16711680*
%FSLAX25Y25*%
%MOIN*%
G70*
G01*
G75*
%ADD18R,0.03150X0.03150*%
%ADD19R,0.05118X0.03543*%
%ADD20C,0.05906*%
%ADD21C,0.01968*%
%ADD22C,0.01772*%
%ADD23C,0.01181*%
%ADD24C,0.01575*%
%ADD25C,0.17717*%
%ADD26C,0.06000*%
%ADD27O,0.11811X0.07087*%
%ADD28C,0.05000*%
%ADD29C,0.05906*%
%ADD30R,0.03543X0.05118*%
%ADD31O,0.07480X0.02362*%
%ADD32O,0.04724X0.01378*%
%ADD33R,0.03150X0.03150*%
%ADD34C,0.01378*%
G36*
X393701Y0D02*
X314219D01*
X313795Y184D01*
X313795Y500D01*
Y5334D01*
X312645D01*
Y8524D01*
X313583D01*
X314434Y8693D01*
X315082Y9126D01*
X317029D01*
Y6500D01*
X322572D01*
Y13618D01*
X317029D01*
Y12370D01*
X315082D01*
X314434Y12803D01*
X313583Y12972D01*
X308465D01*
X307613Y12803D01*
X306966Y12370D01*
X300987D01*
X300817Y12870D01*
X301315Y13252D01*
X301755Y13825D01*
X307416D01*
X307613Y13693D01*
X308465Y13524D01*
X313583D01*
X314434Y13693D01*
X315155Y14175D01*
X315637Y14897D01*
X315807Y15748D01*
X315637Y16599D01*
X315155Y17321D01*
X314434Y17803D01*
X313583Y17972D01*
X308465D01*
X307613Y17803D01*
X307416Y17671D01*
X301755D01*
X301315Y18244D01*
X300584Y18805D01*
X299733Y19158D01*
X298819Y19278D01*
X297905Y19158D01*
X297054Y18805D01*
X296323Y18244D01*
X295762Y17513D01*
X295409Y16662D01*
X295289Y15748D01*
X295409Y14834D01*
X295762Y13983D01*
X295930Y13763D01*
X295553Y13433D01*
X289177Y19809D01*
X289237Y19952D01*
X289357Y20866D01*
X289237Y21780D01*
X288884Y22631D01*
X288323Y23362D01*
X288241Y23426D01*
X288410Y23926D01*
X291496D01*
X291496Y23926D01*
X292194Y24064D01*
X292785Y24459D01*
X300879Y32554D01*
X300879Y32554D01*
X301274Y33145D01*
X301413Y33843D01*
X301413Y33843D01*
Y36812D01*
X301913Y37044D01*
X302629Y36748D01*
X303543Y36627D01*
X304456Y36748D01*
X305308Y37100D01*
X306039Y37661D01*
X306600Y38392D01*
X306767Y38795D01*
X307245Y38940D01*
X307613Y38693D01*
X308465Y38524D01*
X313583D01*
X314434Y38693D01*
X314781Y38926D01*
X318307D01*
X318307Y38926D01*
X319005Y39064D01*
X319596Y39459D01*
X323926Y43790D01*
X323926Y43790D01*
X324322Y44381D01*
X324460Y45079D01*
Y69260D01*
X324655Y69341D01*
X325491Y69982D01*
X326132Y70817D01*
X326535Y71790D01*
X326672Y72835D01*
X326535Y73879D01*
X326132Y74852D01*
X325491Y75687D01*
X325052Y76024D01*
X325222Y76524D01*
X331135D01*
X335050Y72609D01*
X335017Y72110D01*
X334549Y71750D01*
X333908Y70915D01*
X333505Y69942D01*
X333367Y68898D01*
X333505Y67853D01*
X333908Y66880D01*
X334549Y66045D01*
X335384Y65404D01*
X336357Y65001D01*
X337402Y64863D01*
X338446Y65001D01*
X339419Y65404D01*
X340254Y66045D01*
X340591Y66483D01*
X341091Y66314D01*
Y47999D01*
X330662Y37570D01*
X314781D01*
X314434Y37803D01*
X313583Y37972D01*
X308465D01*
X307613Y37803D01*
X306892Y37321D01*
X306410Y36599D01*
X306241Y35748D01*
X306410Y34897D01*
X306892Y34176D01*
X307613Y33694D01*
X308465Y33524D01*
X313583D01*
X314434Y33694D01*
X314781Y33926D01*
X331417D01*
X331417Y33926D01*
X332115Y34064D01*
X332706Y34459D01*
X344202Y45955D01*
X344202Y45956D01*
X344597Y46547D01*
X344736Y47244D01*
X344736Y47244D01*
Y76378D01*
X344597Y77075D01*
X344202Y77667D01*
X344202Y77667D01*
X336919Y84950D01*
X336327Y85345D01*
X335630Y85484D01*
X335630Y85484D01*
X315386D01*
X315305Y85679D01*
X314962Y86126D01*
X315208Y86626D01*
X345836D01*
X350343Y82119D01*
Y76409D01*
X350148Y76329D01*
X349312Y75687D01*
X348671Y74852D01*
X348268Y73879D01*
X348131Y72835D01*
X348268Y71790D01*
X348671Y70817D01*
X349312Y69982D01*
X350148Y69341D01*
X351121Y68938D01*
X352165Y68800D01*
X353210Y68938D01*
X354183Y69341D01*
X354764Y69787D01*
X355264Y69540D01*
Y37763D01*
X350072Y32570D01*
X314781D01*
X314434Y32803D01*
X313583Y32972D01*
X308465D01*
X307613Y32803D01*
X306892Y32320D01*
X306410Y31599D01*
X306241Y30748D01*
X306410Y29897D01*
X306892Y29175D01*
X307613Y28694D01*
X308465Y28524D01*
X313583D01*
X314434Y28694D01*
X314781Y28926D01*
X350444D01*
X350652Y28426D01*
X349796Y27570D01*
X314781D01*
X314434Y27803D01*
X313583Y27972D01*
X308465D01*
X307613Y27803D01*
X306892Y27321D01*
X306410Y26599D01*
X306241Y25748D01*
X306410Y24897D01*
X306892Y24175D01*
X307613Y23694D01*
X308465Y23524D01*
X313583D01*
X314434Y23694D01*
X314781Y23926D01*
X350551D01*
X350551Y23926D01*
X351249Y24064D01*
X351840Y24459D01*
X368218Y40837D01*
X368218Y40837D01*
X368613Y41429D01*
X368752Y42126D01*
X368752Y42126D01*
Y80073D01*
X369068Y80390D01*
X369068Y80390D01*
X369394Y80878D01*
X369894Y80779D01*
Y40582D01*
X351883Y22570D01*
X314781D01*
X314434Y22803D01*
X313583Y22972D01*
X308465D01*
X307613Y22803D01*
X306892Y22321D01*
X306410Y21599D01*
X306241Y20748D01*
X306410Y19897D01*
X306892Y19175D01*
X307613Y18693D01*
X308465Y18524D01*
X313583D01*
X314434Y18693D01*
X314781Y18926D01*
X352638D01*
X352638Y18926D01*
X353335Y19064D01*
X353926Y19459D01*
X373005Y38538D01*
X373005Y38538D01*
X373400Y39129D01*
X373539Y39827D01*
Y100408D01*
X373539Y100408D01*
X373400Y101106D01*
X373005Y101697D01*
X370201Y104501D01*
X369609Y104896D01*
X368912Y105035D01*
X368912Y105035D01*
X364946D01*
X364946Y105035D01*
X364249Y104896D01*
X363657Y104501D01*
X360853Y101697D01*
X360458Y101106D01*
X360319Y100408D01*
X360319Y100408D01*
Y86652D01*
X360139Y86514D01*
X359498Y85679D01*
X359409Y85464D01*
X358909Y85563D01*
Y108268D01*
X358909Y108268D01*
X358770Y108965D01*
X358375Y109556D01*
X341218Y126714D01*
X341299Y126909D01*
X341436Y127953D01*
X341299Y128997D01*
X340896Y129970D01*
X340254Y130806D01*
X339419Y131447D01*
X338446Y131850D01*
X337402Y131987D01*
X336357Y131850D01*
X335613Y131542D01*
X335330Y131966D01*
X336188Y132823D01*
X345702D01*
X350343Y128182D01*
Y127591D01*
X350148Y127510D01*
X349312Y126869D01*
X348671Y126033D01*
X348268Y125060D01*
X348131Y124016D01*
X348268Y122971D01*
X348671Y121999D01*
X349312Y121163D01*
X350148Y120522D01*
X351121Y120119D01*
X352165Y119981D01*
X353210Y120119D01*
X354183Y120522D01*
X355018Y121163D01*
X355659Y121999D01*
X356062Y122971D01*
X356200Y124016D01*
X356062Y125060D01*
X355659Y126033D01*
X355018Y126869D01*
X354183Y127510D01*
X353988Y127591D01*
Y128937D01*
X353849Y129634D01*
X353454Y130226D01*
X353454Y130226D01*
X347745Y135934D01*
X347154Y136329D01*
X346457Y136468D01*
X346457Y136468D01*
X335433D01*
X335433Y136468D01*
X334736Y136329D01*
X334144Y135934D01*
X334144Y135934D01*
X329814Y131604D01*
X329419Y131012D01*
X329280Y130315D01*
X329280Y130315D01*
Y99180D01*
X324442Y94342D01*
X309776D01*
X309676Y94842D01*
X309891Y94931D01*
X310727Y95572D01*
X311368Y96408D01*
X311771Y97381D01*
X311909Y98425D01*
X311771Y99469D01*
X311368Y100443D01*
X310727Y101278D01*
X309891Y101919D01*
X308918Y102322D01*
X307874Y102460D01*
X306830Y102322D01*
X305857Y101919D01*
X305021Y101278D01*
X304380Y100443D01*
X303977Y99469D01*
X303839Y98425D01*
X303977Y97381D01*
X304380Y96408D01*
X305021Y95572D01*
X305857Y94931D01*
X306830Y94528D01*
X307874Y94391D01*
X308073Y94417D01*
X308254Y93936D01*
X308062Y93808D01*
X308062Y93808D01*
X302436Y88182D01*
X302041Y87591D01*
X301913Y86949D01*
X301413Y86998D01*
Y108283D01*
X301274Y108981D01*
X300879Y109572D01*
X300879Y109572D01*
X274517Y135934D01*
X273926Y136329D01*
X273228Y136468D01*
X273228Y136468D01*
X246850D01*
X246850Y136468D01*
X246153Y136329D01*
X245562Y135934D01*
X245562Y135934D01*
X242412Y132785D01*
X242017Y132194D01*
X241885Y131530D01*
X241684Y131447D01*
X240848Y130806D01*
X240207Y129970D01*
X239804Y128997D01*
X239666Y127953D01*
X239750Y127313D01*
X239277Y127080D01*
X235737Y130619D01*
X235146Y131014D01*
X234449Y131153D01*
X233751Y131014D01*
X233664Y130956D01*
X220473D01*
X220472Y130956D01*
X219775Y130818D01*
X219184Y130422D01*
X219184Y130422D01*
X206585Y117824D01*
X206190Y117233D01*
X206052Y116535D01*
X206052Y116535D01*
Y52330D01*
X199609Y45887D01*
X171260D01*
X170562Y45749D01*
X170470Y45687D01*
X168996D01*
X168805Y46149D01*
X176879Y54223D01*
X176879Y54223D01*
X177274Y54814D01*
X177413Y55512D01*
X177413Y55512D01*
Y80087D01*
X177608Y80167D01*
X178443Y80809D01*
X179085Y81644D01*
X179488Y82617D01*
X179625Y83661D01*
X179488Y84706D01*
X179085Y85679D01*
X178443Y86514D01*
X177608Y87155D01*
X176635Y87559D01*
X175591Y87696D01*
X174546Y87559D01*
X173573Y87155D01*
X173304Y86949D01*
X172974Y87326D01*
X177463Y91815D01*
X181510D01*
X181511Y91815D01*
X182208Y91954D01*
X182799Y92349D01*
X185934Y95484D01*
X185934Y95484D01*
X186329Y96075D01*
X186468Y96773D01*
X186468Y96773D01*
Y114173D01*
X186468Y114173D01*
X186329Y114871D01*
X185934Y115462D01*
X185934Y115462D01*
X176092Y125304D01*
X175501Y125699D01*
X174803Y125838D01*
X174803Y125838D01*
X168339D01*
X168258Y126033D01*
X167617Y126869D01*
X166781Y127510D01*
X165808Y127913D01*
X164764Y128050D01*
X163720Y127913D01*
X162747Y127510D01*
X161911Y126869D01*
X161270Y126033D01*
X160867Y125060D01*
X160729Y124016D01*
X160867Y122971D01*
X161270Y121999D01*
X161911Y121163D01*
X162747Y120522D01*
X163720Y120119D01*
X164764Y119981D01*
X165808Y120119D01*
X166781Y120522D01*
X167617Y121163D01*
X168258Y121999D01*
X168339Y122193D01*
X174048D01*
X182823Y113418D01*
Y101435D01*
X182323Y101322D01*
X181545Y101919D01*
X180572Y102322D01*
X179528Y102460D01*
X178483Y102322D01*
X177510Y101919D01*
X176675Y101278D01*
X176034Y100443D01*
X175870Y100047D01*
X132969D01*
X132762Y100547D01*
X151147Y118932D01*
X151498Y119458D01*
X151622Y120079D01*
Y124295D01*
X152017Y124459D01*
X152853Y125100D01*
X153494Y125935D01*
X153897Y126909D01*
X154034Y127953D01*
X153897Y128997D01*
X153494Y129970D01*
X152853Y130806D01*
X152017Y131447D01*
X151044Y131850D01*
X150000Y131987D01*
X148956Y131850D01*
X147983Y131447D01*
X147147Y130806D01*
X146506Y129970D01*
X146103Y128997D01*
X145966Y127953D01*
X146103Y126909D01*
X146506Y125935D01*
X147147Y125100D01*
X147983Y124459D01*
X148378Y124295D01*
Y120750D01*
X124831Y97204D01*
X124549Y97312D01*
X124380Y97459D01*
X124507Y98425D01*
X124370Y99469D01*
X123966Y100443D01*
X123325Y101278D01*
X122490Y101919D01*
X121517Y102322D01*
X120472Y102460D01*
X119428Y102322D01*
X118455Y101919D01*
X117620Y101278D01*
X117082Y100578D01*
X116582Y100748D01*
Y108661D01*
X116459Y109282D01*
X116107Y109808D01*
X100753Y125162D01*
X100227Y125514D01*
X99606Y125637D01*
X74721D01*
X74557Y126033D01*
X73916Y126869D01*
X73080Y127510D01*
X72107Y127913D01*
X71063Y128050D01*
X70019Y127913D01*
X69046Y127510D01*
X68210Y126869D01*
X67569Y126033D01*
X67166Y125060D01*
X67028Y124016D01*
X67166Y122971D01*
X67569Y121999D01*
X68210Y121163D01*
X69046Y120522D01*
X70019Y120119D01*
X71063Y119981D01*
X72107Y120119D01*
X73080Y120522D01*
X73916Y121163D01*
X74557Y121999D01*
X74721Y122394D01*
X98935D01*
X113339Y107990D01*
Y57841D01*
X113196Y57782D01*
X112464Y57221D01*
X111903Y56489D01*
X111551Y55638D01*
X111430Y54724D01*
X111551Y53811D01*
X111903Y52959D01*
X112464Y52228D01*
X113196Y51667D01*
X114047Y51315D01*
X114961Y51194D01*
X115874Y51315D01*
X116726Y51667D01*
X116981Y51863D01*
X117429Y51642D01*
Y49059D01*
X117553Y48439D01*
X117904Y47912D01*
X122899Y42918D01*
X123425Y42567D01*
X123690Y42514D01*
X124044Y42262D01*
X124042Y41944D01*
X123967Y41565D01*
X124098Y40906D01*
X124223Y40718D01*
X124453Y40315D01*
X124223Y39912D01*
X124098Y39724D01*
X123967Y39065D01*
X124098Y38406D01*
X124223Y38218D01*
X124453Y37815D01*
X124223Y37412D01*
X124098Y37224D01*
X123967Y36565D01*
X124022Y36287D01*
X123622Y35787D01*
X117194D01*
X117189Y35825D01*
X116837Y36676D01*
X116276Y37407D01*
X115545Y37968D01*
X114693Y38321D01*
X113779Y38441D01*
X112866Y38321D01*
X112014Y37968D01*
X111283Y37407D01*
X110722Y36676D01*
X110370Y35825D01*
X110249Y34911D01*
X110370Y33997D01*
X110722Y33146D01*
X110917Y32892D01*
X110696Y32444D01*
X109926D01*
X109750Y32868D01*
X109189Y33599D01*
X108458Y34160D01*
X107607Y34512D01*
X106693Y34633D01*
X105779Y34512D01*
X104928Y34160D01*
X104197Y33599D01*
X103636Y32868D01*
X103283Y32016D01*
X103163Y31102D01*
X103283Y30189D01*
X103636Y29337D01*
X104197Y28606D01*
X104928Y28045D01*
X105779Y27692D01*
X106693Y27572D01*
X107607Y27692D01*
X108458Y28045D01*
X109189Y28606D01*
X109491Y29000D01*
X115515D01*
X116174Y29131D01*
X116732Y29504D01*
X117071Y29843D01*
X125414D01*
X125796Y29343D01*
X125741Y29065D01*
X125796Y28787D01*
X125776Y28693D01*
X125450Y28244D01*
X125434Y28236D01*
X125185Y28187D01*
X124597D01*
X123976Y28063D01*
X123450Y27712D01*
X121065Y25327D01*
X121000Y25331D01*
X120269Y25892D01*
X119418Y26245D01*
X118504Y26365D01*
X117590Y26245D01*
X116739Y25892D01*
X116008Y25331D01*
X115447Y24600D01*
X115094Y23748D01*
X114974Y22835D01*
X115094Y21921D01*
X115391Y21204D01*
X115159Y20704D01*
X55011D01*
X54841Y21204D01*
X55252Y21520D01*
X55813Y22251D01*
X56166Y23102D01*
X56286Y24016D01*
X56166Y24929D01*
X55813Y25781D01*
X55252Y26512D01*
X54521Y27073D01*
X54378Y27132D01*
Y55234D01*
X68728Y69584D01*
X69046Y69341D01*
X70019Y68938D01*
X71063Y68800D01*
X72107Y68938D01*
X73080Y69341D01*
X73916Y69982D01*
X74557Y70817D01*
X74960Y71790D01*
X75098Y72835D01*
X74960Y73879D01*
X74557Y74852D01*
X73916Y75687D01*
X73080Y76329D01*
X72107Y76732D01*
X71063Y76869D01*
X70019Y76732D01*
X69046Y76329D01*
X68210Y75687D01*
X67569Y74852D01*
X67166Y73879D01*
X67028Y72835D01*
X67071Y72514D01*
X51609Y57052D01*
X51258Y56526D01*
X51134Y55905D01*
Y27132D01*
X50991Y27073D01*
X50260Y26512D01*
X49699Y25781D01*
X49531Y25377D01*
X48990D01*
X48728Y26009D01*
X48095Y26835D01*
X47269Y27468D01*
X46897Y27622D01*
Y57202D01*
X54859Y65164D01*
X55255Y65001D01*
X56299Y64863D01*
X57343Y65001D01*
X58316Y65404D01*
X59152Y66045D01*
X59793Y66880D01*
X60196Y67853D01*
X60334Y68898D01*
X60196Y69942D01*
X59793Y70915D01*
X59152Y71750D01*
X58316Y72392D01*
X57343Y72795D01*
X56299Y72932D01*
X55255Y72795D01*
X54282Y72392D01*
X53446Y71750D01*
X52805Y70915D01*
X52402Y69942D01*
X52265Y68898D01*
X52402Y67853D01*
X52566Y67458D01*
X44129Y59021D01*
X43777Y58495D01*
X43654Y57874D01*
Y27622D01*
X43282Y27468D01*
X42456Y26835D01*
X41823Y26009D01*
X41425Y25048D01*
X41289Y24016D01*
X41425Y22984D01*
X41823Y22022D01*
X42456Y21197D01*
X42504Y21160D01*
X42343Y20687D01*
X39355D01*
X36455Y23586D01*
X36689Y24060D01*
X37402Y23966D01*
X38433Y24102D01*
X39395Y24500D01*
X40221Y25134D01*
X40854Y25959D01*
X41253Y26921D01*
X41388Y27953D01*
X41253Y28985D01*
X40854Y29946D01*
X40221Y30772D01*
X39395Y31405D01*
X39023Y31559D01*
Y68029D01*
X40096Y69101D01*
X40491Y68938D01*
X41535Y68800D01*
X42580Y68938D01*
X43553Y69341D01*
X44388Y69982D01*
X45029Y70817D01*
X45432Y71790D01*
X45570Y72835D01*
X45432Y73879D01*
X45029Y74852D01*
X44388Y75687D01*
X43553Y76329D01*
X42580Y76732D01*
X41535Y76869D01*
X40491Y76732D01*
X39518Y76329D01*
X38683Y75687D01*
X38041Y74852D01*
X37638Y73879D01*
X37501Y72835D01*
X37638Y71790D01*
X37802Y71395D01*
X36255Y69848D01*
X35903Y69321D01*
X35780Y68701D01*
Y31559D01*
X35408Y31405D01*
X34582Y30772D01*
X33949Y29946D01*
X33551Y28985D01*
X33415Y27953D01*
X33509Y27240D01*
X33035Y27007D01*
X29369Y30673D01*
X29602Y31146D01*
X30315Y31053D01*
X31347Y31188D01*
X32308Y31587D01*
X33134Y32220D01*
X33768Y33046D01*
X34166Y34007D01*
X34302Y35039D01*
X34166Y36071D01*
X33768Y37033D01*
X33134Y37859D01*
X32308Y38492D01*
X31937Y38646D01*
Y79840D01*
X32726Y80167D01*
X33562Y80809D01*
X34203Y81644D01*
X34606Y82617D01*
X34743Y83661D01*
X34606Y84706D01*
X34203Y85679D01*
X33562Y86514D01*
X32726Y87155D01*
X31753Y87559D01*
X30709Y87696D01*
X29664Y87559D01*
X28691Y87155D01*
X27856Y86514D01*
X27215Y85679D01*
X26812Y84706D01*
X26674Y83661D01*
X26812Y82617D01*
X27215Y81644D01*
X27856Y80809D01*
X28691Y80167D01*
X28693Y80167D01*
Y38646D01*
X28321Y38492D01*
X27496Y37859D01*
X26862Y37033D01*
X26464Y36071D01*
X26328Y35039D01*
X26422Y34327D01*
X25948Y34093D01*
X23669Y36373D01*
Y85549D01*
X27837Y89717D01*
X73541D01*
X78157Y85101D01*
X77993Y84706D01*
X77855Y83661D01*
X77993Y82617D01*
X78396Y81644D01*
X79037Y80809D01*
X79873Y80167D01*
X80846Y79764D01*
X81890Y79627D01*
X82934Y79764D01*
X83907Y80167D01*
X84743Y80809D01*
X85384Y81644D01*
X85787Y82617D01*
X85924Y83661D01*
X85787Y84706D01*
X85384Y85679D01*
X84743Y86514D01*
X83907Y87155D01*
X82934Y87559D01*
X81890Y87696D01*
X80846Y87559D01*
X80450Y87395D01*
X75359Y92485D01*
X74833Y92837D01*
X74213Y92960D01*
X27165D01*
X26545Y92837D01*
X26019Y92485D01*
X21588Y88054D01*
X21126Y88246D01*
Y99935D01*
X25475Y104284D01*
X65636D01*
X65735Y103784D01*
X64936Y103453D01*
X64110Y102819D01*
X63703Y102412D01*
X27134D01*
X26772Y102460D01*
X25727Y102322D01*
X24754Y101919D01*
X23919Y101278D01*
X23278Y100443D01*
X22875Y99469D01*
X22737Y98425D01*
X22875Y97381D01*
X23278Y96408D01*
X23919Y95572D01*
X24754Y94931D01*
X25727Y94528D01*
X26772Y94391D01*
X27134Y94438D01*
X65354D01*
X65354Y94438D01*
X66386Y94574D01*
X67348Y94972D01*
X68173Y95606D01*
X69748Y97181D01*
X70382Y98007D01*
X70780Y98968D01*
X70916Y100000D01*
X70780Y101032D01*
X70382Y101993D01*
X69748Y102819D01*
X68923Y103453D01*
X68123Y103784D01*
X68223Y104284D01*
X77675D01*
X82094Y99865D01*
X81930Y99469D01*
X81792Y98425D01*
X81930Y97381D01*
X82333Y96408D01*
X82974Y95572D01*
X83810Y94931D01*
X84783Y94528D01*
X85827Y94391D01*
X86871Y94528D01*
X87844Y94931D01*
X88680Y95572D01*
X89321Y96408D01*
X89724Y97381D01*
X89861Y98425D01*
X89724Y99469D01*
X89321Y100443D01*
X88680Y101278D01*
X87844Y101919D01*
X86871Y102322D01*
X85827Y102460D01*
X84783Y102322D01*
X84387Y102158D01*
X79493Y107052D01*
X78967Y107404D01*
X78347Y107527D01*
X24803D01*
X24183Y107404D01*
X23656Y107052D01*
X19407Y102802D01*
X18945Y102994D01*
Y116651D01*
X29278Y126985D01*
X38141D01*
X38388Y126485D01*
X38041Y126033D01*
X37638Y125060D01*
X37501Y124016D01*
X37638Y122971D01*
X38041Y121999D01*
X38683Y121163D01*
X39518Y120522D01*
X40491Y120119D01*
X41535Y119981D01*
X42580Y120119D01*
X43553Y120522D01*
X44388Y121163D01*
X45029Y121999D01*
X45432Y122971D01*
X45570Y124016D01*
X45432Y125060D01*
X45029Y126033D01*
X44683Y126485D01*
X44930Y126985D01*
X52392D01*
X52402Y126909D01*
X52805Y125935D01*
X53446Y125100D01*
X54282Y124459D01*
X55255Y124056D01*
X56299Y123918D01*
X57343Y124056D01*
X58316Y124459D01*
X59152Y125100D01*
X59793Y125935D01*
X60196Y126909D01*
X60334Y127953D01*
X60196Y128997D01*
X59793Y129970D01*
X59152Y130806D01*
X58316Y131447D01*
X57343Y131850D01*
X56299Y131987D01*
X55255Y131850D01*
X54282Y131447D01*
X53446Y130806D01*
X53003Y130228D01*
X28606D01*
X27986Y130105D01*
X27460Y129753D01*
X16176Y118470D01*
X15825Y117943D01*
X15701Y117323D01*
Y33858D01*
X15825Y33238D01*
X16176Y32712D01*
X30694Y18194D01*
X30472Y17746D01*
X30315Y17766D01*
X29283Y17630D01*
X28321Y17232D01*
X27496Y16599D01*
X26862Y15773D01*
X26464Y14811D01*
X26328Y13780D01*
X26464Y12748D01*
X26862Y11786D01*
X27496Y10960D01*
X28321Y10327D01*
X28693Y10173D01*
Y9323D01*
X28817Y8702D01*
X29168Y8176D01*
X35948Y1397D01*
X36474Y1045D01*
X37095Y922D01*
X50633D01*
X50996Y679D01*
X51617Y556D01*
X58619D01*
X59240Y679D01*
X59603Y922D01*
X144669D01*
X145290Y1045D01*
X145816Y1397D01*
X152525Y8105D01*
X152876Y8631D01*
X153000Y9252D01*
Y12343D01*
X153051D01*
X153710Y12474D01*
X154269Y12847D01*
X154642Y13406D01*
X154773Y14065D01*
X154642Y14724D01*
X154517Y14912D01*
X154287Y15315D01*
X154517Y15718D01*
X154642Y15906D01*
X154773Y16565D01*
X154642Y17224D01*
X154517Y17412D01*
X154287Y17815D01*
X154517Y18218D01*
X154642Y18406D01*
X154773Y19065D01*
X154642Y19724D01*
X154517Y19912D01*
X154287Y20315D01*
X154517Y20718D01*
X154642Y20906D01*
X154773Y21565D01*
X154642Y22224D01*
X154517Y22412D01*
X154287Y22815D01*
X154517Y23218D01*
X154642Y23406D01*
X154773Y24065D01*
X154642Y24724D01*
X154567Y24837D01*
X154955Y25155D01*
X156848Y23263D01*
X157374Y22911D01*
X157995Y22788D01*
X181135D01*
X181195Y22644D01*
X181756Y21913D01*
X182487Y21352D01*
X183338Y21000D01*
X184252Y20879D01*
X185166Y21000D01*
X186017Y21352D01*
X186748Y21913D01*
X187309Y22644D01*
X187662Y23496D01*
X187782Y24409D01*
X187662Y25323D01*
X187474Y25777D01*
X187898Y26061D01*
X210129Y3830D01*
X210129Y3830D01*
X210720Y3434D01*
X211417Y3296D01*
X211417Y3296D01*
X283465D01*
X283465Y3296D01*
X284162Y3434D01*
X284753Y3830D01*
X286722Y5798D01*
X287117Y6389D01*
X287256Y7087D01*
X287256Y7087D01*
Y13780D01*
X287256Y13780D01*
X287117Y14477D01*
X286722Y15068D01*
X284804Y16986D01*
X284886Y17223D01*
X285040Y17440D01*
X285827Y17336D01*
X286740Y17456D01*
X286884Y17516D01*
X294798Y9601D01*
X295324Y9250D01*
X295945Y9126D01*
X306966D01*
X307613Y8693D01*
X308465Y8524D01*
X309402D01*
Y5334D01*
X308646D01*
Y500D01*
X308646Y184D01*
X308222Y0D01*
X0D01*
Y196850D01*
X393701D01*
Y0D01*
D02*
G37*
G36*
X297768Y107529D02*
Y91289D01*
X297306Y91098D01*
X288690Y99714D01*
X288099Y100109D01*
X287402Y100248D01*
X287402Y100248D01*
X276803D01*
X276722Y100443D01*
X276081Y101278D01*
X275246Y101919D01*
X274273Y102322D01*
X273228Y102460D01*
X272184Y102322D01*
X271211Y101919D01*
X270375Y101278D01*
X269734Y100443D01*
X269331Y99469D01*
X269194Y98425D01*
X269331Y97381D01*
X269734Y96408D01*
X270375Y95572D01*
X271211Y94931D01*
X272184Y94528D01*
X273228Y94391D01*
X274273Y94528D01*
X275246Y94931D01*
X276081Y95572D01*
X276722Y96408D01*
X276803Y96603D01*
X286647D01*
X295193Y88056D01*
Y80085D01*
X294731Y79893D01*
X289674Y84950D01*
X289083Y85345D01*
X288386Y85484D01*
X288386Y85484D01*
X272866D01*
X272785Y85679D01*
X272144Y86514D01*
X271309Y87155D01*
X270336Y87559D01*
X269291Y87696D01*
X268247Y87559D01*
X267274Y87155D01*
X266439Y86514D01*
X265797Y85679D01*
X265394Y84706D01*
X265344Y84324D01*
X264871Y84163D01*
X257588Y91446D01*
X256997Y91841D01*
X256299Y91980D01*
X256299Y91980D01*
X224606D01*
X224606Y91980D01*
X224346Y91928D01*
X224100Y92389D01*
X230226Y98514D01*
X230621Y99106D01*
X230759Y99803D01*
X230759Y99803D01*
Y120441D01*
X230954Y120522D01*
X231790Y121163D01*
X232431Y121999D01*
X232834Y122971D01*
X232972Y124016D01*
X232834Y125060D01*
X232431Y126033D01*
X231834Y126811D01*
X231947Y127311D01*
X233891D01*
X241231Y119971D01*
X241822Y119576D01*
X242520Y119437D01*
X242520Y119437D01*
X255709D01*
X255709Y119437D01*
X256406Y119576D01*
X256997Y119971D01*
X257225Y120199D01*
X257420Y120119D01*
X258465Y119981D01*
X259509Y120119D01*
X260482Y120522D01*
X261317Y121163D01*
X261959Y121999D01*
X262362Y122971D01*
X262499Y124016D01*
X262362Y125060D01*
X261959Y126033D01*
X261317Y126869D01*
X260482Y127510D01*
X259509Y127913D01*
X258465Y128050D01*
X257420Y127913D01*
X256447Y127510D01*
X255612Y126869D01*
X254971Y126033D01*
X254568Y125060D01*
X254430Y124016D01*
X254503Y123458D01*
X254174Y123082D01*
X243275D01*
X242828Y123529D01*
X243061Y124002D01*
X243701Y123918D01*
X244745Y124056D01*
X245718Y124459D01*
X246554Y125100D01*
X247195Y125935D01*
X247598Y126909D01*
X247735Y127953D01*
X247598Y128997D01*
X247195Y129970D01*
X246554Y130806D01*
X246308Y130994D01*
X246275Y131493D01*
X247605Y132823D01*
X272474D01*
X297768Y107529D01*
D02*
G37*
G36*
X226040Y126811D02*
X225443Y126033D01*
X225040Y125060D01*
X224903Y124016D01*
X225040Y122971D01*
X225443Y121999D01*
X226084Y121163D01*
X226920Y120522D01*
X227115Y120441D01*
Y100558D01*
X221686Y95130D01*
X217183D01*
X217070Y95630D01*
X217667Y96408D01*
X218070Y97381D01*
X218208Y98425D01*
X218070Y99469D01*
X217667Y100443D01*
X217026Y101278D01*
X216191Y101919D01*
X215217Y102322D01*
X214173Y102460D01*
X213129Y102322D01*
X212156Y101919D01*
X211320Y101278D01*
X210679Y100443D01*
X210276Y99469D01*
X210196Y98864D01*
X209696Y98896D01*
Y115781D01*
X221227Y127311D01*
X225927D01*
X226040Y126811D01*
D02*
G37*
G36*
X222947Y91075D02*
X219349Y87478D01*
X219154Y87559D01*
X218110Y87696D01*
X217066Y87559D01*
X216093Y87155D01*
X215257Y86514D01*
X214616Y85679D01*
X214213Y84706D01*
X214076Y83661D01*
X214213Y82617D01*
X214382Y82209D01*
X213958Y81926D01*
X213240Y82645D01*
Y89009D01*
X215716Y91485D01*
X222441D01*
X222441Y91485D01*
X222701Y91536D01*
X222947Y91075D01*
D02*
G37*
G36*
X292618Y76851D02*
Y51453D01*
X292119Y51206D01*
X291757Y51484D01*
X290795Y51882D01*
X289763Y52018D01*
X288731Y51882D01*
X287770Y51484D01*
X286944Y50850D01*
X286311Y50025D01*
X286135Y49602D01*
X278594D01*
X278276Y50102D01*
X278405Y50748D01*
X278236Y51599D01*
X277754Y52320D01*
X277032Y52803D01*
X276181Y52972D01*
X271063D01*
X270212Y52803D01*
X269491Y52320D01*
X269008Y51599D01*
X268839Y50748D01*
X269008Y49897D01*
X269491Y49176D01*
X270212Y48693D01*
X271063Y48524D01*
X272780D01*
X273048Y48024D01*
X273013Y47972D01*
X271063D01*
X270212Y47803D01*
X269491Y47321D01*
X269008Y46599D01*
X268839Y45748D01*
X269008Y44897D01*
X269491Y44175D01*
X270212Y43694D01*
X271063Y43524D01*
X276181D01*
X277032Y43694D01*
X277754Y44175D01*
X278236Y44897D01*
X278405Y45748D01*
X278576Y45957D01*
X286372D01*
X286944Y45212D01*
X287770Y44579D01*
X288731Y44180D01*
X289763Y44045D01*
X290795Y44180D01*
X291757Y44579D01*
X291835Y44639D01*
X292283Y44418D01*
Y38876D01*
X290977Y37570D01*
X286338D01*
X286177Y38044D01*
X286284Y38126D01*
X286917Y38951D01*
X287316Y39913D01*
X287451Y40945D01*
X287316Y41977D01*
X286917Y42938D01*
X286284Y43764D01*
X285458Y44398D01*
X284496Y44796D01*
X283465Y44932D01*
X282433Y44796D01*
X281471Y44398D01*
X280645Y43764D01*
X280012Y42938D01*
X279941Y42767D01*
X277085D01*
X277032Y42803D01*
X276181Y42972D01*
X271063D01*
X270212Y42803D01*
X269491Y42320D01*
X269008Y41599D01*
X268839Y40748D01*
X269008Y39897D01*
X269491Y39176D01*
X270212Y38693D01*
X271063Y38524D01*
X276181D01*
X277032Y38693D01*
X277674Y39123D01*
X279941D01*
X280012Y38951D01*
X280645Y38126D01*
X280752Y38044D01*
X280591Y37570D01*
X277379D01*
X277032Y37803D01*
X276181Y37972D01*
X271063D01*
X270212Y37803D01*
X269491Y37321D01*
X269008Y36599D01*
X268839Y35748D01*
X269008Y34897D01*
X269491Y34176D01*
X270212Y33694D01*
X271063Y33524D01*
X276181D01*
X277032Y33694D01*
X277379Y33926D01*
X291732D01*
X291732Y33926D01*
X292430Y34064D01*
X293021Y34459D01*
X294426Y35865D01*
X294960Y35691D01*
X294995Y35466D01*
X292100Y32570D01*
X277379D01*
X277032Y32803D01*
X276181Y32972D01*
X271063D01*
X270212Y32803D01*
X269491Y32320D01*
X269008Y31599D01*
X268839Y30748D01*
X269008Y29897D01*
X269491Y29175D01*
X270212Y28694D01*
X271063Y28524D01*
X276181D01*
X277032Y28694D01*
X277379Y28926D01*
X291443D01*
X291634Y28464D01*
X290741Y27570D01*
X277379D01*
X277032Y27803D01*
X276181Y27972D01*
X271063D01*
X270212Y27803D01*
X269491Y27321D01*
X269008Y26599D01*
X268839Y25748D01*
X269008Y24897D01*
X269491Y24175D01*
X270212Y23694D01*
X271063Y23524D01*
X276181D01*
X277032Y23694D01*
X277379Y23926D01*
X283243D01*
X283413Y23426D01*
X283330Y23362D01*
X282769Y22631D01*
X282417Y21780D01*
X282297Y20866D01*
X282417Y19952D01*
X282769Y19101D01*
X283330Y18370D01*
X283793Y18015D01*
X283581Y17547D01*
X283465Y17571D01*
X283465Y17570D01*
X277379D01*
X277032Y17803D01*
X276181Y17972D01*
X271063D01*
X270212Y17803D01*
X269491Y17321D01*
X269008Y16599D01*
X268839Y15748D01*
X269008Y14897D01*
X269491Y14175D01*
X270212Y13693D01*
X271063Y13524D01*
X276181D01*
X277032Y13693D01*
X277379Y13926D01*
X282710D01*
X283611Y13025D01*
Y7841D01*
X282710Y6940D01*
X212172D01*
X184631Y34481D01*
X184823Y34943D01*
X213730D01*
X214351Y35067D01*
X214877Y35418D01*
X230084Y50625D01*
X230435Y51151D01*
X230559Y51772D01*
Y69177D01*
X230954Y69341D01*
X231790Y69982D01*
X232431Y70817D01*
X232834Y71790D01*
X232972Y72835D01*
X232834Y73879D01*
X232431Y74852D01*
X232087Y75300D01*
X232334Y75800D01*
X239733D01*
X241878Y73655D01*
Y72472D01*
X241684Y72392D01*
X240848Y71750D01*
X240207Y70915D01*
X239804Y69942D01*
X239666Y68898D01*
X239804Y67853D01*
X240207Y66880D01*
X240848Y66045D01*
X241684Y65404D01*
X242657Y65001D01*
X243701Y64863D01*
X244745Y65001D01*
X245718Y65404D01*
X246554Y66045D01*
X247195Y66880D01*
X247598Y67853D01*
X247735Y68898D01*
X247598Y69942D01*
X247195Y70915D01*
X246554Y71750D01*
X245718Y72392D01*
X245523Y72472D01*
Y74410D01*
X245385Y75107D01*
X244989Y75698D01*
X244989Y75698D01*
X242771Y77916D01*
X242963Y78378D01*
X250627D01*
X254731Y74274D01*
X254568Y73879D01*
X254430Y72835D01*
X254568Y71790D01*
X254971Y70817D01*
X255612Y69982D01*
X256447Y69341D01*
X257420Y68938D01*
X258465Y68800D01*
X259095Y68883D01*
X259595Y68454D01*
Y27423D01*
X258921Y26906D01*
X258360Y26175D01*
X258007Y25323D01*
X257887Y24409D01*
X258007Y23496D01*
X258360Y22644D01*
X258921Y21913D01*
X259595Y21396D01*
Y16929D01*
X259595Y16929D01*
X259734Y16232D01*
X260129Y15641D01*
X266310Y9459D01*
X266310Y9459D01*
X266901Y9064D01*
X267598Y8926D01*
X267599Y8926D01*
X269865D01*
X270212Y8693D01*
X271063Y8524D01*
X276181D01*
X277032Y8693D01*
X277754Y9176D01*
X278236Y9897D01*
X278405Y10748D01*
X278236Y11599D01*
X277754Y12320D01*
X277032Y12803D01*
X276181Y12972D01*
X271063D01*
X270212Y12803D01*
X269865Y12570D01*
X268353D01*
X263240Y17684D01*
Y21396D01*
X263913Y21913D01*
X264368Y22505D01*
X264949Y22631D01*
X268121Y19459D01*
X268712Y19064D01*
X269409Y18926D01*
X269409Y18926D01*
X269865D01*
X270212Y18693D01*
X271063Y18524D01*
X276181D01*
X277032Y18693D01*
X277754Y19175D01*
X278236Y19897D01*
X278405Y20748D01*
X278236Y21599D01*
X277754Y22321D01*
X277032Y22803D01*
X276181Y22972D01*
X271063D01*
X270212Y22803D01*
X270044Y22691D01*
X267527Y25208D01*
Y26185D01*
X267527Y26185D01*
X267388Y26883D01*
X267177Y27200D01*
Y68588D01*
X267511Y69088D01*
X267649Y69785D01*
X267649Y69785D01*
Y79562D01*
X268065Y79840D01*
X268247Y79764D01*
X269291Y79627D01*
X270336Y79764D01*
X271309Y80167D01*
X272144Y80809D01*
X272785Y81644D01*
X272866Y81839D01*
X287631D01*
X292618Y76851D01*
D02*
G37*
G36*
X261430Y78513D02*
Y76232D01*
X260930Y75985D01*
X260482Y76329D01*
X259509Y76732D01*
X258465Y76869D01*
X257420Y76732D01*
X257025Y76568D01*
X252446Y81147D01*
X251920Y81498D01*
X251299Y81622D01*
X226638D01*
X226431Y82122D01*
X229101Y84792D01*
X255151D01*
X261430Y78513D01*
D02*
G37*
G36*
X176034Y96408D02*
X176415Y95912D01*
X176207Y95360D01*
X176011Y95322D01*
X175420Y94926D01*
X175420Y94926D01*
X168066Y87572D01*
X167671Y86981D01*
X167532Y86283D01*
X167671Y85586D01*
X167733Y85493D01*
Y76229D01*
X167233Y75982D01*
X166781Y76329D01*
X165808Y76732D01*
X164764Y76869D01*
X163720Y76732D01*
X162747Y76329D01*
X161911Y75687D01*
X161270Y74852D01*
X160867Y73879D01*
X160729Y72835D01*
X160867Y71790D01*
X161270Y70817D01*
X161911Y69982D01*
X162552Y69490D01*
X162656Y68887D01*
X159368Y65598D01*
X153005D01*
X153000Y65610D01*
X152894Y66098D01*
X153494Y66880D01*
X153897Y67853D01*
X154034Y68898D01*
X153897Y69942D01*
X153494Y70915D01*
X152853Y71750D01*
X152017Y72392D01*
X151044Y72795D01*
X150000Y72932D01*
X148956Y72795D01*
X147983Y72392D01*
X147147Y71750D01*
X146506Y70915D01*
X146342Y70519D01*
X143701D01*
X143080Y70396D01*
X142554Y70044D01*
X137320Y64810D01*
X136858Y65001D01*
Y69177D01*
X137253Y69341D01*
X138089Y69982D01*
X138730Y70817D01*
X139133Y71790D01*
X139271Y72835D01*
X139133Y73879D01*
X138730Y74852D01*
X138089Y75687D01*
X137253Y76329D01*
X136280Y76732D01*
X135236Y76869D01*
X134192Y76732D01*
X133219Y76329D01*
X132383Y75687D01*
X131742Y74852D01*
X131339Y73879D01*
X131202Y72835D01*
X131339Y71790D01*
X131742Y70817D01*
X132383Y69982D01*
X133219Y69341D01*
X133615Y69177D01*
Y66970D01*
X133153Y66779D01*
X126031Y73900D01*
Y80004D01*
X126427Y80167D01*
X127262Y80809D01*
X127903Y81644D01*
X128306Y82617D01*
X128444Y83661D01*
X128306Y84706D01*
X127903Y85679D01*
X127262Y86514D01*
X126427Y87155D01*
X125454Y87559D01*
X124889Y87633D01*
X124710Y88161D01*
X133353Y96803D01*
X175870D01*
X176034Y96408D01*
D02*
G37*
G36*
X333505Y126909D02*
X333908Y125935D01*
X334549Y125100D01*
X335384Y124459D01*
X336357Y124056D01*
X337402Y123918D01*
X338446Y124056D01*
X338641Y124136D01*
X355264Y107513D01*
Y76129D01*
X354764Y75882D01*
X354183Y76329D01*
X353988Y76409D01*
Y82874D01*
X353988Y82874D01*
X353849Y83571D01*
X353454Y84163D01*
X353454Y84163D01*
X347879Y89737D01*
X347288Y90132D01*
X346590Y90271D01*
X346590Y90271D01*
X325618D01*
X325569Y90771D01*
X325894Y90836D01*
X326485Y91231D01*
X332391Y97136D01*
X332391Y97136D01*
X332786Y97728D01*
X332925Y98425D01*
Y127481D01*
X333425Y127514D01*
X333505Y126909D01*
D02*
G37*
G36*
X341091Y75623D02*
Y71482D01*
X340591Y71312D01*
X340254Y71750D01*
X339419Y72392D01*
X339224Y72472D01*
Y72835D01*
X339224Y72835D01*
X339085Y73532D01*
X338690Y74123D01*
X338690Y74123D01*
X333178Y79635D01*
X332587Y80030D01*
X331890Y80169D01*
X331890Y80169D01*
X320473D01*
X320472Y80169D01*
X319775Y80030D01*
X319184Y79635D01*
X319184Y79635D01*
X316034Y76486D01*
X315639Y75894D01*
X315500Y75197D01*
X315500Y75197D01*
Y69685D01*
X315500Y69685D01*
X315639Y68988D01*
X316034Y68396D01*
X317075Y67355D01*
Y64087D01*
X316575Y63917D01*
X316276Y64307D01*
X315545Y64868D01*
X314693Y65221D01*
X313779Y65341D01*
X312866Y65221D01*
X312014Y64868D01*
X311283Y64307D01*
X310722Y63576D01*
X310370Y62725D01*
X310249Y61811D01*
X310344Y61094D01*
X308089Y58840D01*
X307672Y58216D01*
X307587Y57785D01*
X306892Y57320D01*
X306410Y56599D01*
X306241Y55748D01*
X306410Y54897D01*
X306892Y54176D01*
X307613Y53693D01*
X308465Y53524D01*
X313583D01*
X314434Y53693D01*
X315155Y54176D01*
X315637Y54897D01*
X315807Y55748D01*
X315637Y56599D01*
X315155Y57320D01*
X314434Y57803D01*
X314252Y57839D01*
X314269Y58345D01*
X314693Y58401D01*
X315545Y58754D01*
X316276Y59315D01*
X316575Y59705D01*
X317075Y59535D01*
Y49180D01*
X315466Y47570D01*
X314781D01*
X314434Y47803D01*
X313583Y47972D01*
X308465D01*
X307613Y47803D01*
X306892Y47321D01*
X306410Y46599D01*
X306241Y45748D01*
X306410Y44897D01*
X306892Y44175D01*
X307613Y43694D01*
X308465Y43524D01*
X313583D01*
X314434Y43694D01*
X314781Y43926D01*
X316220D01*
X316220Y43926D01*
X316918Y44064D01*
X317509Y44459D01*
X320186Y47137D01*
X320315Y47330D01*
X320815Y47178D01*
Y45834D01*
X317552Y42570D01*
X314781D01*
X314434Y42803D01*
X313583Y42972D01*
X308465D01*
X307613Y42803D01*
X306892Y42320D01*
X306293Y42323D01*
X306039Y42654D01*
X305466Y43094D01*
Y47953D01*
X306338Y48825D01*
X307416D01*
X307613Y48693D01*
X308465Y48524D01*
X313583D01*
X314434Y48693D01*
X315155Y49176D01*
X315637Y49897D01*
X315807Y50748D01*
X315637Y51599D01*
X315155Y52320D01*
X314434Y52803D01*
X313583Y52972D01*
X308465D01*
X307613Y52803D01*
X307416Y52671D01*
X305541D01*
X304806Y52524D01*
X304182Y52108D01*
X302183Y50109D01*
X301975Y49798D01*
X301475Y49950D01*
Y52128D01*
X301475Y52128D01*
X301413Y52442D01*
Y72610D01*
X301913Y72857D01*
X302337Y72531D01*
X303172Y72186D01*
X303226Y72117D01*
X303327Y71833D01*
X303347Y71623D01*
X302847Y70970D01*
X302448Y70008D01*
X302312Y68976D01*
X302448Y67945D01*
X302847Y66983D01*
X303480Y66157D01*
X304306Y65524D01*
X305267Y65125D01*
X306299Y64990D01*
X307331Y65125D01*
X308293Y65524D01*
X309118Y66157D01*
X309752Y66983D01*
X310150Y67945D01*
X310286Y68976D01*
X310150Y70008D01*
X309752Y70970D01*
X309251Y71623D01*
X310360Y72732D01*
X310360Y72732D01*
X310755Y73323D01*
X310893Y74021D01*
X310893Y74021D01*
Y77948D01*
X310893Y77948D01*
X310755Y78645D01*
X310360Y79236D01*
X310311Y79412D01*
X310728Y79781D01*
X310767Y79764D01*
X311811Y79627D01*
X312855Y79764D01*
X313828Y80167D01*
X314664Y80809D01*
X315305Y81644D01*
X315386Y81839D01*
X334875D01*
X341091Y75623D01*
D02*
G37*
G36*
X172303Y85948D02*
X172097Y85679D01*
X171694Y84706D01*
X171556Y83661D01*
X171694Y82617D01*
X172097Y81644D01*
X172738Y80809D01*
X173573Y80167D01*
X173768Y80087D01*
Y56267D01*
X165889Y48387D01*
X151378D01*
X150873Y48287D01*
X149705D01*
X149046Y48156D01*
X148578Y47844D01*
X148246Y47949D01*
X148078Y48065D01*
Y48852D01*
X148222Y48911D01*
X148953Y49472D01*
X149514Y50203D01*
X149867Y51055D01*
X149987Y51968D01*
X149867Y52882D01*
X149514Y53734D01*
X148953Y54465D01*
X148222Y55026D01*
X147370Y55378D01*
X146457Y55499D01*
X145543Y55378D01*
X144692Y55026D01*
X143960Y54465D01*
X143875Y54353D01*
X143401Y54514D01*
Y57643D01*
X145932Y60174D01*
X164157D01*
X164778Y60297D01*
X165304Y60649D01*
X170501Y65845D01*
X170853Y66372D01*
X170976Y66992D01*
Y85328D01*
X171926Y86278D01*
X172303Y85948D01*
D02*
G37*
G36*
X122392Y80167D02*
X122788Y80004D01*
Y73228D01*
X122911Y72608D01*
X123263Y72082D01*
X131055Y64289D01*
Y47435D01*
X130555Y47330D01*
X130253Y47783D01*
X129694Y48156D01*
X129035Y48287D01*
X125689D01*
X125282Y48206D01*
X122854Y50634D01*
Y57322D01*
X122731Y57943D01*
X122379Y58469D01*
X121441Y59407D01*
Y80267D01*
X121941Y80514D01*
X122392Y80167D01*
D02*
G37*
G36*
X214066Y76664D02*
X214066Y76664D01*
X214657Y76269D01*
X215354Y76130D01*
X215354Y76130D01*
X219685D01*
X219685Y76130D01*
X219795Y76152D01*
X220150Y75713D01*
Y52004D01*
X211333Y43187D01*
X202716D01*
X202525Y43649D01*
X209163Y50286D01*
X209163Y50286D01*
X209558Y50877D01*
X209697Y51575D01*
X209696Y51575D01*
Y80348D01*
X209924Y80481D01*
X210196Y80533D01*
X214066Y76664D01*
D02*
G37*
G36*
X359498Y81644D02*
X360139Y80809D01*
X360975Y80167D01*
X361948Y79764D01*
X362992Y79627D01*
X364036Y79764D01*
X364607Y80001D01*
X365107Y79667D01*
Y42881D01*
X359409Y37183D01*
X358909Y37390D01*
Y81760D01*
X359409Y81859D01*
X359498Y81644D01*
D02*
G37*
G36*
X185903Y28055D02*
X185620Y27631D01*
X185166Y27819D01*
X184252Y27940D01*
X183338Y27819D01*
X182487Y27467D01*
X181756Y26906D01*
X181195Y26175D01*
X181135Y26031D01*
X158688D01*
X158442Y26337D01*
X158651Y26763D01*
X158664Y26785D01*
X159575Y26905D01*
X160426Y27258D01*
X161157Y27819D01*
X161718Y28550D01*
X162071Y29401D01*
X162191Y30315D01*
X162071Y31229D01*
X161858Y31743D01*
X162192Y32243D01*
X181716D01*
X185903Y28055D01*
D02*
G37*
G36*
X143960Y49472D02*
X144692Y48911D01*
X144835Y48852D01*
Y27165D01*
X144958Y26545D01*
X145310Y26019D01*
X145827Y25501D01*
X145927Y25000D01*
X146279Y24474D01*
X147286Y23466D01*
X147079Y22966D01*
X146394D01*
X145773Y22843D01*
X145247Y22491D01*
X141341Y18586D01*
X140990Y18059D01*
X140866Y17439D01*
Y12386D01*
X140732Y12252D01*
X130262D01*
X130110Y12752D01*
X130253Y12847D01*
X130626Y13406D01*
X130757Y14065D01*
X130626Y14724D01*
X130501Y14912D01*
X130271Y15315D01*
X130501Y15718D01*
X130626Y15906D01*
X130757Y16565D01*
X130626Y17224D01*
X130501Y17412D01*
X130271Y17815D01*
X130501Y18218D01*
X130626Y18406D01*
X130757Y19065D01*
X130638Y19664D01*
X130691Y19844D01*
X130861Y20164D01*
X132350D01*
X132971Y20287D01*
X133497Y20639D01*
X137761Y24903D01*
X138112Y25429D01*
X138236Y26049D01*
Y33382D01*
X142926Y38072D01*
X143278Y38598D01*
X143401Y39219D01*
Y49423D01*
X143875Y49584D01*
X143960Y49472D01*
D02*
G37*
%LPC*%
G36*
X391354Y136236D02*
X384236D01*
Y130693D01*
X385772D01*
Y128205D01*
X384105D01*
X382518Y129792D01*
Y131087D01*
X383070D01*
Y136236D01*
X377920D01*
Y131087D01*
X378472D01*
Y128954D01*
X378626Y128180D01*
X379064Y127523D01*
X380008Y126580D01*
X379496Y125913D01*
X379038Y124808D01*
X378882Y123622D01*
X379038Y122436D01*
X379496Y121331D01*
X380224Y120382D01*
X381173Y119653D01*
X382278Y119196D01*
X383465Y119040D01*
X388189D01*
X389375Y119196D01*
X390480Y119653D01*
X391429Y120382D01*
X392158Y121331D01*
X392615Y122436D01*
X392772Y123622D01*
X392615Y124808D01*
X392158Y125913D01*
X391429Y126862D01*
X390480Y127591D01*
X389818Y127865D01*
Y130693D01*
X391354D01*
Y136236D01*
D02*
G37*
G36*
X322638Y128050D02*
X321594Y127913D01*
X320620Y127510D01*
X319785Y126869D01*
X319144Y126033D01*
X318741Y125060D01*
X318603Y124016D01*
X318741Y122971D01*
X319144Y121999D01*
X319785Y121163D01*
X320620Y120522D01*
X321594Y120119D01*
X322638Y119981D01*
X323682Y120119D01*
X324655Y120522D01*
X325491Y121163D01*
X326132Y121999D01*
X326535Y122971D01*
X326672Y124016D01*
X326535Y125060D01*
X326132Y126033D01*
X325491Y126869D01*
X324655Y127510D01*
X323682Y127913D01*
X322638Y128050D01*
D02*
G37*
G36*
X135236D02*
X134192Y127913D01*
X133219Y127510D01*
X132383Y126869D01*
X131742Y126033D01*
X131339Y125060D01*
X131202Y124016D01*
X131339Y122971D01*
X131742Y121999D01*
X132383Y121163D01*
X133219Y120522D01*
X134192Y120119D01*
X135236Y119981D01*
X136280Y120119D01*
X137253Y120522D01*
X138089Y121163D01*
X138730Y121999D01*
X139133Y122971D01*
X139271Y124016D01*
X139133Y125060D01*
X138730Y126033D01*
X138089Y126869D01*
X137253Y127510D01*
X136280Y127913D01*
X135236Y128050D01*
D02*
G37*
G36*
X10236Y128205D02*
X5512D01*
X4326Y128048D01*
X3221Y127591D01*
X2272Y126862D01*
X1543Y125913D01*
X1085Y124808D01*
X929Y123622D01*
X1085Y122436D01*
X1543Y121331D01*
X2272Y120382D01*
X3221Y119653D01*
X4326Y119196D01*
X5512Y119040D01*
X10236D01*
X11422Y119196D01*
X12528Y119653D01*
X13477Y120382D01*
X14205Y121331D01*
X14663Y122436D01*
X14819Y123622D01*
X14663Y124808D01*
X14205Y125913D01*
X13477Y126862D01*
X12528Y127591D01*
X11422Y128048D01*
X10236Y128205D01*
D02*
G37*
G36*
X388189Y118204D02*
X383465D01*
X382278Y118048D01*
X381173Y117591D01*
X380224Y116862D01*
X379496Y115913D01*
X379038Y114808D01*
X378882Y113622D01*
X379038Y112436D01*
X379496Y111331D01*
X380224Y110382D01*
X381173Y109653D01*
X382278Y109196D01*
X383465Y109040D01*
X388189D01*
X389375Y109196D01*
X390480Y109653D01*
X391429Y110382D01*
X392158Y111331D01*
X392615Y112436D01*
X392772Y113622D01*
X392615Y114808D01*
X392158Y115913D01*
X391429Y116862D01*
X390480Y117591D01*
X389375Y118048D01*
X388189Y118204D01*
D02*
G37*
G36*
X10236D02*
X5512D01*
X4326Y118048D01*
X3221Y117591D01*
X2272Y116862D01*
X1543Y115913D01*
X1085Y114808D01*
X929Y113622D01*
X1085Y112436D01*
X1543Y111331D01*
X2272Y110382D01*
X3221Y109653D01*
X4326Y109196D01*
X5512Y109040D01*
X10236D01*
X11422Y109196D01*
X12528Y109653D01*
X13477Y110382D01*
X14205Y111331D01*
X14663Y112436D01*
X14819Y113622D01*
X14663Y114808D01*
X14205Y115913D01*
X13477Y116862D01*
X12528Y117591D01*
X11422Y118048D01*
X10236Y118204D01*
D02*
G37*
G36*
X388189Y108204D02*
X383465D01*
X382278Y108048D01*
X381173Y107591D01*
X380224Y106862D01*
X379496Y105913D01*
X379038Y104808D01*
X378882Y103622D01*
X379038Y102436D01*
X379496Y101331D01*
X380224Y100382D01*
X381173Y99654D01*
X382278Y99196D01*
X383465Y99040D01*
X388189D01*
X389375Y99196D01*
X390480Y99654D01*
X391429Y100382D01*
X392158Y101331D01*
X392615Y102436D01*
X392772Y103622D01*
X392615Y104808D01*
X392158Y105913D01*
X391429Y106862D01*
X390480Y107591D01*
X389375Y108048D01*
X388189Y108204D01*
D02*
G37*
G36*
X10236D02*
X5512D01*
X4326Y108048D01*
X3221Y107591D01*
X2272Y106862D01*
X1543Y105913D01*
X1085Y104808D01*
X929Y103622D01*
X1085Y102436D01*
X1543Y101331D01*
X2272Y100382D01*
X3221Y99654D01*
X4326Y99196D01*
X5512Y99040D01*
X10236D01*
X11422Y99196D01*
X12528Y99654D01*
X13477Y100382D01*
X14205Y101331D01*
X14663Y102436D01*
X14819Y103622D01*
X14663Y104808D01*
X14205Y105913D01*
X13477Y106862D01*
X12528Y107591D01*
X11422Y108048D01*
X10236Y108204D01*
D02*
G37*
G36*
X388189Y98204D02*
X383465D01*
X382278Y98048D01*
X381173Y97591D01*
X380224Y96862D01*
X379496Y95913D01*
X379038Y94808D01*
X378882Y93622D01*
X379038Y92436D01*
X379496Y91331D01*
X380224Y90382D01*
X381173Y89653D01*
X382278Y89196D01*
X383465Y89039D01*
X388189D01*
X389375Y89196D01*
X390480Y89653D01*
X391429Y90382D01*
X392158Y91331D01*
X392615Y92436D01*
X392772Y93622D01*
X392615Y94808D01*
X392158Y95913D01*
X391429Y96862D01*
X390480Y97591D01*
X389375Y98048D01*
X388189Y98204D01*
D02*
G37*
G36*
X10236D02*
X5512D01*
X4326Y98048D01*
X3221Y97591D01*
X2272Y96862D01*
X1543Y95913D01*
X1085Y94808D01*
X929Y93622D01*
X1085Y92436D01*
X1543Y91331D01*
X2272Y90382D01*
X3221Y89653D01*
X4326Y89196D01*
X5512Y89039D01*
X10236D01*
X11422Y89196D01*
X12528Y89653D01*
X13477Y90382D01*
X14205Y91331D01*
X14663Y92436D01*
X14819Y93622D01*
X14663Y94808D01*
X14205Y95913D01*
X13477Y96862D01*
X12528Y97591D01*
X11422Y98048D01*
X10236Y98204D01*
D02*
G37*
G36*
Y88204D02*
X5512D01*
X4326Y88048D01*
X3221Y87591D01*
X2272Y86862D01*
X1543Y85913D01*
X1085Y84808D01*
X929Y83622D01*
X1085Y82436D01*
X1543Y81331D01*
X2272Y80382D01*
X3221Y79654D01*
X4326Y79196D01*
X5512Y79040D01*
X10236D01*
X11422Y79196D01*
X12528Y79654D01*
X13477Y80382D01*
X14205Y81331D01*
X14663Y82436D01*
X14819Y83622D01*
X14663Y84808D01*
X14205Y85913D01*
X13477Y86862D01*
X12528Y87591D01*
X11422Y88048D01*
X10236Y88204D01*
D02*
G37*
%LPD*%
D18*
X380495Y139567D02*
D03*
Y133661D02*
D03*
D19*
X387795Y133465D02*
D03*
Y140945D02*
D03*
D20*
X65354Y98425D02*
X66929Y100000D01*
X26772Y98425D02*
X65354D01*
D21*
X385827Y123622D02*
X387795Y125591D01*
Y133465D01*
X380495Y128954D02*
X385827Y123622D01*
X380495Y128954D02*
Y133661D01*
D22*
X311024Y55748D02*
Y55905D01*
X309449Y57480D02*
X311024Y55905D01*
X309449Y57480D02*
X313779Y61811D01*
X305541Y50748D02*
X311024D01*
X303543Y48749D02*
X305541Y50748D01*
X303543Y40157D02*
Y48749D01*
Y40157D02*
X304331Y40945D01*
X298819Y15748D02*
X309842D01*
D23*
X124597Y26565D02*
X127362D01*
X120866Y22835D02*
X124597Y26565D01*
X118504Y22835D02*
X120866D01*
X120537Y19083D02*
X127345D01*
X120198Y18744D02*
X120537Y19083D01*
X116810Y18744D02*
X120198D01*
X116471Y19083D02*
X116810Y18744D01*
X51617Y19083D02*
X116471D01*
X157995Y24409D02*
X184252D01*
X155331Y27073D02*
X157995Y24409D01*
X155331Y27073D02*
Y27509D01*
X153995Y28844D02*
X155331Y27509D01*
X151598Y28844D02*
X153995D01*
X151378Y29065D02*
X151598Y28844D01*
X151549Y41736D02*
X163392D01*
X151378Y41565D02*
X151549Y41736D01*
X163563Y41565D02*
X212004D01*
X163392Y41736D02*
X163563Y41565D01*
X161837Y36565D02*
X213730D01*
X161422Y36980D02*
X161837Y36565D01*
X155900Y36980D02*
X161422D01*
X155507Y36587D02*
X155900Y36980D01*
X151400Y36587D02*
X155507D01*
X156898Y30315D02*
X158661D01*
X156504Y29921D02*
X156898Y30315D01*
X319111Y10748D02*
X319800Y10059D01*
X311024Y10748D02*
X319111D01*
X311024Y2956D02*
Y10748D01*
Y2956D02*
X311221Y2759D01*
X295945Y10748D02*
X311024D01*
X58371Y16246D02*
X124205D01*
X57468Y14065D02*
X127362D01*
X57716Y16902D02*
X58371Y16246D01*
X124205D02*
X124745Y16785D01*
X56813Y14720D02*
X57468Y14065D01*
X285827Y20866D02*
X295945Y10748D01*
X151378Y31565D02*
X151598Y31345D01*
X155081D01*
X156504Y29921D01*
X151378Y36565D02*
X151400Y36587D01*
X119051Y49059D02*
X124045Y44065D01*
X114961Y54724D02*
Y108661D01*
X148760Y24285D02*
X151378D01*
X121232Y49962D02*
Y57322D01*
Y49962D02*
X124630Y46565D01*
X119819Y58736D02*
X121232Y57322D01*
X119819Y58736D02*
Y85563D01*
X119051Y49059D02*
Y56419D01*
X117323Y58147D02*
X119051Y56419D01*
X117323Y58147D02*
Y87402D01*
X146457Y27165D02*
Y51968D01*
Y27165D02*
X147425Y26197D01*
Y25621D02*
Y26197D01*
Y25621D02*
X148760Y24285D01*
X151378Y24065D02*
Y24285D01*
X99606Y124016D02*
X114961Y108661D01*
X71063Y124016D02*
X99606D01*
X124045Y44065D02*
X127362D01*
X124630Y46565D02*
X127362D01*
X141404Y10630D02*
X142488Y11715D01*
X55118Y10630D02*
X141404D01*
X140945Y7087D02*
X144669Y10811D01*
X141732Y4724D02*
X146850Y9843D01*
X57360Y7087D02*
X140945D01*
X144669Y10811D02*
Y16535D01*
X58082Y4724D02*
X141732D01*
X146850Y9843D02*
Y14434D01*
X30315Y81693D02*
X31496Y82874D01*
X58986Y2543D02*
X144669D01*
X58619Y2177D02*
X58986Y2543D01*
X51617Y2177D02*
X58619D01*
X51251Y2543D02*
X51617Y2177D01*
X57716Y4358D02*
X58082Y4724D01*
X52520Y4358D02*
X57716D01*
X52154Y4724D02*
X52520Y4358D01*
X45669Y7087D02*
X52877D01*
X56813Y6539D02*
X57360Y7087D01*
X53424Y6539D02*
X56813D01*
X52877Y7087D02*
X53424Y6539D01*
X127345Y19083D02*
X127362Y19065D01*
X51599D02*
X51617Y19083D01*
X38683Y19065D02*
X51599D01*
X52520Y16902D02*
X57716D01*
X51865Y16246D02*
X52520Y16902D01*
X38417Y16246D02*
X51865D01*
X53424Y14720D02*
X56813D01*
X52768Y14065D02*
X53424Y14720D01*
X37116Y14065D02*
X52768D01*
X144669Y2543D02*
X151378Y9252D01*
X37095Y2543D02*
X51251D01*
X30315Y9323D02*
X37095Y2543D01*
X41339Y4724D02*
X52154D01*
X37008Y9055D02*
X41339Y4724D01*
X69685Y72835D02*
X71063D01*
X52756Y55905D02*
X69685Y72835D01*
X52756Y24016D02*
Y55905D01*
X142488Y11715D02*
Y17439D01*
X146394Y21344D01*
X151157D01*
X151378Y21565D01*
X45669Y7087D02*
Y9449D01*
X147244Y19110D02*
X151333D01*
X45276Y57874D02*
X56299Y68898D01*
X45276Y24016D02*
Y57874D01*
X144669Y16535D02*
X147244Y19110D01*
X37402Y68701D02*
X41535Y72835D01*
X37402Y27953D02*
Y68701D01*
X30315Y9323D02*
Y13780D01*
X146850Y14434D02*
X148760Y16344D01*
X151157D01*
X151378Y16565D01*
Y9252D02*
Y14065D01*
X30315Y35039D02*
Y81693D01*
X30709Y83661D02*
X31496Y82874D01*
X19504Y35160D02*
Y100606D01*
X22047Y35701D02*
Y86221D01*
Y35701D02*
X38683Y19065D01*
X19504Y35160D02*
X38417Y16246D01*
X27165Y91339D02*
X74213D01*
X22047Y86221D02*
X27165Y91339D01*
X78347Y105905D02*
X85827Y98425D01*
X24803Y105905D02*
X78347D01*
X19504Y100606D02*
X24803Y105905D01*
X55646Y128606D02*
X56299Y127953D01*
X28606Y128606D02*
X55646D01*
X17323Y117323D02*
X28606Y128606D01*
X17323Y33858D02*
Y117323D01*
Y33858D02*
X37116Y14065D01*
X169354Y66992D02*
Y86283D01*
X164157Y61795D02*
X169354Y66992D01*
X145260Y61795D02*
X164157D01*
X141779Y58315D02*
X145260Y61795D01*
X141779Y39219D02*
Y58315D01*
X136614Y34054D02*
X141779Y39219D01*
X137417Y41026D02*
Y62614D01*
X132957Y36565D02*
X137417Y41026D01*
X127362Y36565D02*
X132957D01*
X135236Y41929D02*
Y72835D01*
X132372Y39065D02*
X135236Y41929D01*
X127362Y39065D02*
X132372D01*
X132677Y43397D02*
Y64961D01*
X131065Y41785D02*
X132677Y43397D01*
X127583Y41785D02*
X131065D01*
X134252Y34776D02*
X139598Y40122D01*
X136614Y26049D02*
Y34054D01*
X132350Y21785D02*
X136614Y26049D01*
X127583Y21785D02*
X132350D01*
X127362Y21565D02*
X127583Y21785D01*
X164764Y68701D02*
Y72835D01*
X160039Y63976D02*
X164764Y68701D01*
X143732Y63976D02*
X160039D01*
X139598Y59842D02*
X143732Y63976D01*
X139598Y40122D02*
Y59842D01*
X134252Y26772D02*
Y34776D01*
X131545Y24065D02*
X134252Y26772D01*
X127362Y24065D02*
X131545D01*
X143701Y68898D02*
X150000D01*
X137417Y62614D02*
X143701Y68898D01*
X151378Y44065D02*
X171260D01*
X234252Y129134D02*
X234449Y129331D01*
X212004Y41565D02*
X221772Y51332D01*
X251299Y80000D02*
X258465Y72835D01*
X225969Y80000D02*
X251299D01*
X221772Y75803D02*
X225969Y80000D01*
X221772Y51332D02*
Y75803D01*
X228937Y51772D02*
Y72835D01*
X213730Y36565D02*
X228937Y51772D01*
X151333Y19110D02*
X151378Y19065D01*
X127362Y29065D02*
X127431Y29134D01*
X74213Y91339D02*
X81890Y83661D01*
X124745Y16785D02*
X127142D01*
X127362Y16565D01*
X132681Y98425D02*
X179528D01*
X119819Y85563D02*
X132681Y98425D01*
X117323Y87402D02*
X150000Y120079D01*
Y127953D01*
X124409Y73228D02*
Y83661D01*
Y73228D02*
X132677Y64961D01*
X127362Y41565D02*
X127583Y41785D01*
D24*
X265354Y26536D02*
X265705Y26185D01*
Y24453D02*
Y26185D01*
Y24453D02*
X269409Y20748D01*
X273622D01*
X261417Y16929D02*
Y69017D01*
X263252Y70852D01*
X261417Y16929D02*
X267598Y10748D01*
X265354Y26536D02*
Y69313D01*
X162700Y39065D02*
X212867D01*
X162407Y39358D02*
X162700Y39065D01*
X154915Y39358D02*
X162407D01*
X154622Y39065D02*
X154915Y39358D01*
X151378Y39065D02*
X154622D01*
X160974Y34065D02*
X182471D01*
X160437Y34602D02*
X160974Y34065D01*
X156885Y34602D02*
X160437D01*
X156348Y34065D02*
X156885Y34602D01*
X151378Y34065D02*
X156348D01*
X318898Y48425D02*
Y68110D01*
X316220Y45748D02*
X318898Y48425D01*
X317323Y69685D02*
X318898Y68110D01*
X294106Y45670D02*
X294503Y46068D01*
X296680Y44604D02*
X297078Y45002D01*
X299255Y43537D02*
X299653Y43935D01*
X299255Y38381D02*
Y43537D01*
X296680Y37315D02*
Y44604D01*
X294106Y38121D02*
Y45670D01*
X291732Y35748D02*
X294106Y38121D01*
X296680Y37315D02*
X297016Y36980D01*
Y34909D02*
Y36980D01*
X299255Y38381D02*
X299590Y38046D01*
Y33843D02*
Y38046D01*
X299653Y43935D02*
Y52128D01*
X297078Y45002D02*
Y51061D01*
X294441Y50057D02*
Y77606D01*
Y50057D02*
X294503Y49995D01*
Y46068D02*
Y49995D01*
X297016Y51124D02*
Y88811D01*
Y51124D02*
X297078Y51061D01*
X299590Y52190D02*
Y108283D01*
Y52190D02*
X299653Y52128D01*
X169354Y86283D02*
X176709Y93638D01*
X164764Y124016D02*
X174803D01*
X184646Y114173D01*
Y96773D02*
Y114173D01*
X181511Y93638D02*
X184646Y96773D01*
X176709Y93638D02*
X181511D01*
X234449Y129331D02*
X242520Y121260D01*
X220472Y129134D02*
X234252D01*
X207874Y116535D02*
X220472Y129134D01*
X207874Y51575D02*
Y116535D01*
X200364Y44065D02*
X207874Y51575D01*
X171260Y44065D02*
X200364D01*
X243701Y68898D02*
Y74410D01*
X240488Y77622D02*
X243701Y74410D01*
X226954Y77622D02*
X240488D01*
X224150Y74818D02*
X226954Y77622D01*
X224150Y50347D02*
Y74818D01*
X212867Y39065D02*
X224150Y50347D01*
X263252Y70852D02*
Y79268D01*
X255906Y86614D02*
X263252Y79268D01*
X228346Y86614D02*
X255906D01*
X219685Y77953D02*
X228346Y86614D01*
X215354Y77953D02*
X219685D01*
X214961Y93307D02*
X222441D01*
X228937Y99803D01*
X211417Y89764D02*
X214961Y93307D01*
X211417Y81890D02*
Y89764D01*
Y81890D02*
X215354Y77953D01*
X264504Y81678D02*
X265827Y80356D01*
Y69785D02*
Y80356D01*
X265354Y69313D02*
X265827Y69785D01*
X267598Y10748D02*
X273622D01*
X224606Y90158D02*
X256299D01*
X264504Y81953D01*
Y81678D02*
Y81953D01*
X218110Y83661D02*
X224606Y90158D01*
X273228Y134646D02*
X299590Y108283D01*
X287402Y98425D02*
X297016Y88811D01*
X291496Y25748D02*
X299590Y33843D01*
X292855Y30748D02*
X297016Y34909D01*
X362142Y83661D02*
Y100408D01*
Y83661D02*
X362992D01*
X362142Y100408D02*
X364946Y103213D01*
X368912D01*
X371716Y100408D01*
Y39827D02*
Y100408D01*
X352638Y20748D02*
X371716Y39827D01*
X366929Y86495D02*
Y98425D01*
Y86495D02*
X367779Y85644D01*
Y81678D02*
Y85644D01*
X366929Y80828D02*
X367779Y81678D01*
X366929Y42126D02*
Y80828D01*
X350551Y25748D02*
X366929Y42126D01*
X311024Y20748D02*
X352638D01*
X352165Y124016D02*
Y128937D01*
X346457Y134646D02*
X352165Y128937D01*
X335433Y134646D02*
X346457D01*
X331102Y130315D02*
X335433Y134646D01*
X331102Y98425D02*
Y130315D01*
X325197Y92520D02*
X331102Y98425D01*
X309351Y92520D02*
X325197D01*
X303724Y86893D02*
X309351Y92520D01*
X303724Y76591D02*
Y86893D01*
Y76591D02*
X304331Y75984D01*
X288386Y83661D02*
X294441Y77606D01*
X306299Y80719D02*
Y85827D01*
Y80719D02*
X309071Y77948D01*
Y74021D02*
Y77948D01*
X306299Y71249D02*
X309071Y74021D01*
X306299Y68976D02*
Y71249D01*
X273819Y40945D02*
X283465D01*
X273622Y40748D02*
X273819Y40945D01*
X275811Y47780D02*
X289511D01*
X289763Y48031D01*
X273701Y45669D02*
X275811Y47780D01*
X273622Y45748D02*
X273701Y45669D01*
X352165Y72835D02*
Y82874D01*
X346590Y88449D02*
X352165Y82874D01*
X308921Y88449D02*
X346590D01*
X306299Y85827D02*
X308921Y88449D01*
X350827Y30748D02*
X357087Y37008D01*
X337402Y127953D02*
X357087Y108268D01*
Y37008D02*
Y108268D01*
X311024Y30748D02*
X350827D01*
X311024Y25748D02*
X350551D01*
X337402Y68898D02*
Y72835D01*
X331890Y78347D02*
X337402Y72835D01*
X320472Y78347D02*
X331890D01*
X273622Y35748D02*
X291732D01*
X269291Y83661D02*
X288386D01*
X273622Y30748D02*
X292855D01*
X273228Y98425D02*
X287402D01*
X246850Y134646D02*
X273228D01*
X255709Y121260D02*
X258465Y124016D01*
X242520Y121260D02*
X255709D01*
X175591Y55512D02*
Y83661D01*
X166644Y46565D02*
X175591Y55512D01*
X151378Y46565D02*
X166644D01*
X211417Y5118D02*
X283465D01*
X285433Y7087D01*
Y13780D01*
X283465Y15748D02*
X285433Y13780D01*
X273622Y15748D02*
X283465D01*
X182471Y34065D02*
X211417Y5118D01*
X228937Y99803D02*
Y124016D01*
X243701Y127953D02*
Y131496D01*
X246850Y134646D01*
X273622Y25748D02*
X291496D01*
X311811Y83661D02*
X335630D01*
X342913Y76378D01*
Y47244D02*
Y76378D01*
X331417Y35748D02*
X342913Y47244D01*
X311024Y35748D02*
X331417D01*
X317323Y75197D02*
X320472Y78347D01*
X317323Y69685D02*
Y75197D01*
X311024Y45748D02*
X316220D01*
X322638Y45079D02*
Y72835D01*
X318307Y40748D02*
X322638Y45079D01*
X311024Y40748D02*
X318307D01*
D25*
X377953Y181102D02*
D03*
Y15748D02*
D03*
X15748Y181102D02*
D03*
Y15748D02*
D03*
D26*
X366929Y98425D02*
D03*
X362992Y83661D02*
D03*
X352165Y72835D02*
D03*
X337402Y68898D02*
D03*
X322638Y72835D02*
D03*
X311811Y83661D02*
D03*
X307874Y98425D02*
D03*
X311811Y113189D02*
D03*
X322638Y124016D02*
D03*
X337402Y127953D02*
D03*
X352165Y124016D02*
D03*
X273228Y98425D02*
D03*
X269291Y83661D02*
D03*
X258465Y72835D02*
D03*
X243701Y68898D02*
D03*
X228937Y72835D02*
D03*
X218110Y83661D02*
D03*
X214173Y98425D02*
D03*
X218110Y113189D02*
D03*
X228937Y124016D02*
D03*
X243701Y127953D02*
D03*
X258465Y124016D02*
D03*
X179528Y98425D02*
D03*
X175591Y83661D02*
D03*
X164764Y72835D02*
D03*
X150000Y68898D02*
D03*
X135236Y72835D02*
D03*
X124409Y83661D02*
D03*
X120472Y98425D02*
D03*
X124409Y113189D02*
D03*
X135236Y124016D02*
D03*
X150000Y127953D02*
D03*
X164764Y124016D02*
D03*
X85827Y98425D02*
D03*
X81890Y83661D02*
D03*
X71063Y72835D02*
D03*
X56299Y68898D02*
D03*
X41535Y72835D02*
D03*
X30709Y83661D02*
D03*
X26772Y98425D02*
D03*
X30709Y113189D02*
D03*
X41535Y124016D02*
D03*
X56299Y127953D02*
D03*
X71063Y124016D02*
D03*
D27*
X385827Y103622D02*
D03*
Y113622D02*
D03*
Y123622D02*
D03*
Y93622D02*
D03*
Y73622D02*
D03*
Y83622D02*
D03*
X7874Y103622D02*
D03*
Y113622D02*
D03*
Y123622D02*
D03*
Y93622D02*
D03*
Y73622D02*
D03*
Y83622D02*
D03*
D28*
X37795Y146063D02*
D03*
X27953D02*
D03*
X23031Y136221D02*
D03*
X32874D02*
D03*
X18110Y146063D02*
D03*
X8268D02*
D03*
X72834Y96456D02*
D03*
X66929Y100000D02*
D03*
X382283Y165748D02*
D03*
X387205Y155905D02*
D03*
X382283Y146063D02*
D03*
X387205Y57480D02*
D03*
X382283Y47638D02*
D03*
X387205Y37795D02*
D03*
X382283Y27953D02*
D03*
X372441Y165748D02*
D03*
X377362Y155905D02*
D03*
X372441Y146063D02*
D03*
Y126378D02*
D03*
X377362Y77165D02*
D03*
Y57480D02*
D03*
Y37795D02*
D03*
X372441Y27953D02*
D03*
X362598Y185433D02*
D03*
Y165748D02*
D03*
X367520Y155905D02*
D03*
X362598Y146063D02*
D03*
Y126378D02*
D03*
X367520Y116535D02*
D03*
X362598Y8268D02*
D03*
X352756Y185433D02*
D03*
X357677Y175591D02*
D03*
X352756Y165748D02*
D03*
X357677Y155905D02*
D03*
X352756Y146063D02*
D03*
X357677Y116535D02*
D03*
Y18110D02*
D03*
X352756Y8268D02*
D03*
X342913Y185433D02*
D03*
X347835Y175591D02*
D03*
X342913Y165748D02*
D03*
X347835Y155905D02*
D03*
X342913Y146063D02*
D03*
X347835Y96850D02*
D03*
Y57480D02*
D03*
Y37795D02*
D03*
X342913Y8268D02*
D03*
X333071Y185433D02*
D03*
X337992Y175591D02*
D03*
X333071Y165748D02*
D03*
X337992Y155905D02*
D03*
X333071Y146063D02*
D03*
X337992Y116535D02*
D03*
Y96850D02*
D03*
Y57480D02*
D03*
X333071Y47638D02*
D03*
Y8268D02*
D03*
X323228Y185433D02*
D03*
X328150Y155905D02*
D03*
X323228Y146063D02*
D03*
X328150Y57480D02*
D03*
X313386Y185433D02*
D03*
X318307Y155905D02*
D03*
X313386Y146063D02*
D03*
Y126378D02*
D03*
X318307Y116535D02*
D03*
X303543Y185433D02*
D03*
X308465Y155905D02*
D03*
X303543Y146063D02*
D03*
Y126378D02*
D03*
X293701Y185433D02*
D03*
X298622Y155905D02*
D03*
X293701Y146063D02*
D03*
Y126378D02*
D03*
X298622Y116535D02*
D03*
X283858Y185433D02*
D03*
X288779Y155905D02*
D03*
X283858Y146063D02*
D03*
Y67323D02*
D03*
X274016Y185433D02*
D03*
X278937Y155905D02*
D03*
X274016Y146063D02*
D03*
Y126378D02*
D03*
X278937Y116535D02*
D03*
Y77165D02*
D03*
X274016Y67323D02*
D03*
X264173Y185433D02*
D03*
Y165748D02*
D03*
X269094Y155905D02*
D03*
X264173Y146063D02*
D03*
X269094Y116535D02*
D03*
X254331Y185433D02*
D03*
X259252Y175591D02*
D03*
X254331Y165748D02*
D03*
X259252Y155905D02*
D03*
X254331Y146063D02*
D03*
X259252Y116535D02*
D03*
Y96850D02*
D03*
X254331Y67323D02*
D03*
Y47638D02*
D03*
X244488Y185433D02*
D03*
X249410Y175591D02*
D03*
X244488Y165748D02*
D03*
X249410Y155905D02*
D03*
X244488Y146063D02*
D03*
X249410Y116535D02*
D03*
Y96850D02*
D03*
Y57480D02*
D03*
X244488Y47638D02*
D03*
X249410Y37795D02*
D03*
Y18110D02*
D03*
X234646Y185433D02*
D03*
X239567Y175591D02*
D03*
X234646Y165748D02*
D03*
X239567Y155905D02*
D03*
X234646Y146063D02*
D03*
X239567Y116535D02*
D03*
Y96850D02*
D03*
X234646Y67323D02*
D03*
X239567Y57480D02*
D03*
X234646Y47638D02*
D03*
X239567Y37795D02*
D03*
Y18110D02*
D03*
X224803Y185433D02*
D03*
X229724Y175591D02*
D03*
X224803Y165748D02*
D03*
X229724Y155905D02*
D03*
X224803Y146063D02*
D03*
X229724Y37795D02*
D03*
Y18110D02*
D03*
X214961Y185433D02*
D03*
X219882Y175591D02*
D03*
X214961Y165748D02*
D03*
X219882Y155905D02*
D03*
X214961Y146063D02*
D03*
Y67323D02*
D03*
X219882Y18110D02*
D03*
X205118Y185433D02*
D03*
X210039Y175591D02*
D03*
X205118Y165748D02*
D03*
X210039Y155905D02*
D03*
X205118Y146063D02*
D03*
Y126378D02*
D03*
X210039Y18110D02*
D03*
X195276Y185433D02*
D03*
X200197Y175591D02*
D03*
X195276Y165748D02*
D03*
X200197Y155905D02*
D03*
X195276Y146063D02*
D03*
Y126378D02*
D03*
X200197Y116535D02*
D03*
Y96850D02*
D03*
X195276Y87008D02*
D03*
X200197Y77165D02*
D03*
X195276Y67323D02*
D03*
X200197Y57480D02*
D03*
X185433Y185433D02*
D03*
X190354Y175591D02*
D03*
X185433Y165748D02*
D03*
X190354Y155905D02*
D03*
X185433Y146063D02*
D03*
Y126378D02*
D03*
X190354Y116535D02*
D03*
Y96850D02*
D03*
X185433Y87008D02*
D03*
X190354Y77165D02*
D03*
X185433Y67323D02*
D03*
X190354Y57480D02*
D03*
Y18110D02*
D03*
X175591Y185433D02*
D03*
X180512Y175591D02*
D03*
X175591Y165748D02*
D03*
X180512Y155905D02*
D03*
X175591Y146063D02*
D03*
X180512Y77165D02*
D03*
Y57480D02*
D03*
Y18110D02*
D03*
X165748Y185433D02*
D03*
X170669Y175591D02*
D03*
X165748Y165748D02*
D03*
X170669Y155905D02*
D03*
X165748Y146063D02*
D03*
X170669Y116535D02*
D03*
Y57480D02*
D03*
Y18110D02*
D03*
X155905Y185433D02*
D03*
X160827Y175591D02*
D03*
X155905Y165748D02*
D03*
X160827Y155905D02*
D03*
X155905Y146063D02*
D03*
X160827Y116535D02*
D03*
X155905Y87008D02*
D03*
X160827Y57480D02*
D03*
Y18110D02*
D03*
X146063Y185433D02*
D03*
X150984Y175591D02*
D03*
X146063Y165748D02*
D03*
X150984Y155905D02*
D03*
X146063Y146063D02*
D03*
Y87008D02*
D03*
X150984Y77165D02*
D03*
Y57480D02*
D03*
X136221Y185433D02*
D03*
X141142Y175591D02*
D03*
X136221Y165748D02*
D03*
X141142Y155905D02*
D03*
X136221Y146063D02*
D03*
Y87008D02*
D03*
X141142Y77165D02*
D03*
X126378Y185433D02*
D03*
X131299Y175591D02*
D03*
X126378Y165748D02*
D03*
X131299Y155905D02*
D03*
X126378Y146063D02*
D03*
Y126378D02*
D03*
X131299Y116535D02*
D03*
X116535Y185433D02*
D03*
X121457Y175591D02*
D03*
X116535Y165748D02*
D03*
X121457Y155905D02*
D03*
X116535Y146063D02*
D03*
Y126378D02*
D03*
X106693Y185433D02*
D03*
X111614Y175591D02*
D03*
X106693Y165748D02*
D03*
X111614Y155905D02*
D03*
X106693Y146063D02*
D03*
Y126378D02*
D03*
Y87008D02*
D03*
Y67323D02*
D03*
X96850Y185433D02*
D03*
X101772Y175591D02*
D03*
X96850Y165748D02*
D03*
X101772Y155905D02*
D03*
X96850Y146063D02*
D03*
X101772Y96850D02*
D03*
X96850Y87008D02*
D03*
X101772Y77165D02*
D03*
X96850Y67323D02*
D03*
X87008Y185433D02*
D03*
X91929Y175591D02*
D03*
X87008Y165748D02*
D03*
X91929Y155905D02*
D03*
X87008Y146063D02*
D03*
X91929Y116535D02*
D03*
Y77165D02*
D03*
X87008Y47638D02*
D03*
Y27953D02*
D03*
X77165Y185433D02*
D03*
X82087Y175591D02*
D03*
X77165Y165748D02*
D03*
X82087Y155905D02*
D03*
X77165Y146063D02*
D03*
X82087Y116535D02*
D03*
X77165Y27953D02*
D03*
X67323Y185433D02*
D03*
X72244Y175591D02*
D03*
X67323Y165748D02*
D03*
X72244Y155905D02*
D03*
X67323Y146063D02*
D03*
X72244Y116535D02*
D03*
X67323Y47638D02*
D03*
X72244Y37795D02*
D03*
X67323Y27953D02*
D03*
X57480Y185433D02*
D03*
X62402Y175591D02*
D03*
X57480Y165748D02*
D03*
X62402Y155905D02*
D03*
X57480Y146063D02*
D03*
X62402Y116535D02*
D03*
X57480Y87008D02*
D03*
Y47638D02*
D03*
X62402Y37795D02*
D03*
X57480Y27953D02*
D03*
X47638Y185433D02*
D03*
X52559Y175591D02*
D03*
X47638Y165748D02*
D03*
X52559Y155905D02*
D03*
X47638Y146063D02*
D03*
X52559Y116535D02*
D03*
X47638Y67323D02*
D03*
X37795Y185433D02*
D03*
X42717Y175591D02*
D03*
X37795Y165748D02*
D03*
X42717Y155905D02*
D03*
X37795Y87008D02*
D03*
X27953Y185433D02*
D03*
X32874Y175591D02*
D03*
X27953Y165748D02*
D03*
X32874Y155905D02*
D03*
X18110Y165748D02*
D03*
X23031Y155905D02*
D03*
X8268Y165748D02*
D03*
X13189Y155905D02*
D03*
Y136221D02*
D03*
X8268Y47638D02*
D03*
Y27953D02*
D03*
X118504Y22835D02*
D03*
X261417Y24409D02*
D03*
X184252D02*
D03*
X158661Y30315D02*
D03*
X106693Y31102D02*
D03*
X113779Y34911D02*
D03*
X285827Y20866D02*
D03*
X313779Y61811D02*
D03*
X303543Y40157D02*
D03*
X114961Y54724D02*
D03*
X146457Y51968D02*
D03*
X298819Y15748D02*
D03*
X55118Y10630D02*
D03*
X52756Y24016D02*
D03*
D29*
X45276D02*
D03*
X45669Y9449D02*
D03*
X37402Y27953D02*
D03*
X37008Y9055D02*
D03*
X30315Y13780D02*
D03*
Y35039D02*
D03*
X304331Y75984D02*
D03*
X283465Y40945D02*
D03*
X289763Y48031D02*
D03*
X306299Y68976D02*
D03*
D30*
X319800Y10059D02*
D03*
X327280D02*
D03*
D31*
X311024Y55748D02*
D03*
Y50748D02*
D03*
Y45748D02*
D03*
Y40748D02*
D03*
Y35748D02*
D03*
Y30748D02*
D03*
Y25748D02*
D03*
Y20748D02*
D03*
Y15748D02*
D03*
Y10748D02*
D03*
X273622Y55748D02*
D03*
Y50748D02*
D03*
Y45748D02*
D03*
Y40748D02*
D03*
Y35748D02*
D03*
Y30748D02*
D03*
Y25748D02*
D03*
Y20748D02*
D03*
Y15748D02*
D03*
Y10748D02*
D03*
D32*
X151378Y46565D02*
D03*
Y44065D02*
D03*
Y41565D02*
D03*
Y39065D02*
D03*
Y36565D02*
D03*
Y34065D02*
D03*
Y31565D02*
D03*
Y29065D02*
D03*
Y26565D02*
D03*
Y24065D02*
D03*
Y21565D02*
D03*
Y19065D02*
D03*
Y16565D02*
D03*
Y14065D02*
D03*
X127362Y46565D02*
D03*
Y44065D02*
D03*
Y41565D02*
D03*
Y39065D02*
D03*
Y36565D02*
D03*
Y34065D02*
D03*
Y31565D02*
D03*
Y29065D02*
D03*
Y26565D02*
D03*
Y24065D02*
D03*
Y21565D02*
D03*
Y19065D02*
D03*
Y16565D02*
D03*
Y14065D02*
D03*
D33*
X317126Y2759D02*
D03*
X311221D02*
D03*
D34*
X106693Y31102D02*
X107073Y30722D01*
X115515D01*
X116358Y31565D01*
X127362D01*
X113779Y34911D02*
X114626Y34065D01*
X127362D01*
M02*
