G04*
G04 #@! TF.GenerationSoftware,Altium Limited,Altium Designer,18.0.9 (584)*
G04*
G04 Layer_Color=32896*
%FSLAX25Y25*%
%MOIN*%
G70*
G01*
G75*
%ADD10C,0.01000*%
%ADD11C,0.00591*%
%ADD12C,0.00787*%
%ADD39C,0.02362*%
%ADD40C,0.00984*%
D10*
X139370Y58754D02*
Y53756D01*
X138370Y52756D01*
X136371D01*
X135371Y53756D01*
Y58754D01*
X129373Y52756D02*
X133372D01*
X129373Y56755D01*
Y57754D01*
X130373Y58754D01*
X132372D01*
X133372Y57754D01*
X288976Y67809D02*
Y62811D01*
X287977Y61811D01*
X285977D01*
X284978Y62811D01*
Y67809D01*
X282978Y61811D02*
X280979D01*
X281979D01*
Y67809D01*
X282978Y66809D01*
X325529Y20353D02*
X326529Y21352D01*
X328528D01*
X329528Y20353D01*
Y16354D01*
X328528Y15354D01*
X326529D01*
X325529Y16354D01*
X319531Y21352D02*
X321530Y20353D01*
X323530Y18353D01*
Y16354D01*
X322530Y15354D01*
X320531D01*
X319531Y16354D01*
Y17354D01*
X320531Y18353D01*
X323530D01*
X372773Y139250D02*
X373773Y140250D01*
X375772D01*
X376772Y139250D01*
Y135252D01*
X375772Y134252D01*
X373773D01*
X372773Y135252D01*
X367775Y134252D02*
Y140250D01*
X370774Y137251D01*
X366775D01*
X386946Y151455D02*
X387946Y152455D01*
X389945D01*
X390945Y151455D01*
Y147456D01*
X389945Y146457D01*
X387946D01*
X386946Y147456D01*
X384947Y151455D02*
X383947Y152455D01*
X381948D01*
X380948Y151455D01*
Y150455D01*
X381948Y149456D01*
X382947D01*
X381948D01*
X380948Y148456D01*
Y147456D01*
X381948Y146457D01*
X383947D01*
X384947Y147456D01*
X336946Y6573D02*
X337946Y7573D01*
X339945D01*
X340945Y6573D01*
Y2575D01*
X339945Y1575D01*
X337946D01*
X336946Y2575D01*
X330948Y1575D02*
X334947D01*
X330948Y5573D01*
Y6573D01*
X331948Y7573D01*
X333947D01*
X334947Y6573D01*
D11*
X322281Y12520D02*
X324800D01*
X322281Y7598D02*
X324800D01*
X385335Y135945D02*
Y138465D01*
X390256Y135945D02*
Y138465D01*
D12*
X278937Y58839D02*
X305709D01*
X278937Y7658D02*
X305709D01*
Y58839D01*
X278937Y7658D02*
Y58839D01*
X147441Y11024D02*
Y49606D01*
X131299Y11024D02*
Y49606D01*
X147441D01*
X131299Y11024D02*
X147441D01*
D39*
X284055Y11594D02*
G03*
X284055Y11594I-1181J0D01*
G01*
X144685Y45669D02*
G03*
X144685Y45669I-1181J0D01*
G01*
D40*
X274114Y7402D02*
G03*
X274114Y7402I-492J0D01*
G01*
X151870Y49419D02*
G03*
X151870Y49419I-492J0D01*
G01*
M02*
