M48
;Layer_Color=9474304
;FILE_FORMAT=2:5
INCH,LZ
;TYPE=PLATED
T1F00S00C0.02800
T2F00S00C0.03000
T3F00S00C0.13780
%
T01
X0008268Y0027953
Y0047638
X0030315Y0035039
X0037402Y0027953
X0045276Y0024016
X0052756
X0055118Y001063
X0045669Y0009449
X0037008Y0009055
X0030315Y001378
X005748Y0027953
X0067323
X0077165
X0087008
Y0047638
X0067323
X005748
X0062402Y0037795
X0072244
X0106693Y0031102
X0113779Y0034911
X0118504Y0022835
X0114961Y0054724
X0146457Y0051968
X0158661Y0030315
X0160827Y001811
X0170669
X0180512
X0190354
X0184252Y0024409
X0210039Y001811
X0219882
X0229724
X0239567
X024941
X0261417Y0024409
X024941Y0037795
X0239567
X0229724
X0234646Y0047638
X0244488
X0254331
X0289763Y0048031
X0283465Y0040945
X0303543Y0040157
X0298819Y0015748
X0285827Y0020866
X0333071Y0008268
X0342913
X0352756
X0362598
X0357677Y001811
X0347835Y0037795
X0333071Y0047638
X0382283
X0387205Y0037795
X0377362
X0382283Y0027953
X0372441
X0377362Y005748
X0387205
X0377362Y0077165
X0372441Y0126378
Y0146063
X0382283
X0387205Y0155905
X0377362
X0382283Y0165748
X0372441
X0362598
X0352756
X0342913
X0333071
X0337992Y0175591
X0347835
X0357677
X0362598Y0185433
X0352756
X0342913
X0333071
X0323228
X0313386
X0303543
X0293701
X0283858
X0274016
X0264173
X0254331
X0244488
X0234646
X0224803
X0214961
X0219882Y0175591
X0229724
X0239567
X024941
X0259252
X0264173Y0165748
X0254331
X0244488
X0234646
X0224803
X0214961
X0219882Y0155905
X0229724
X0239567
X024941
X0259252
X0269094
X0278937
X0288779
X0298622
X0308465
X0318307
X032815
X0337992
X0347835
X0357677
X036752
X0362598Y0146063
X0352756
X0342913
X0333071
X0323228
X0313386
X0303543
X0293701
X0283858
X0274016
X0264173
X0254331
X0244488
X0234646
X0224803
X0214961
X0239567Y0116535
X024941
X0259252
X0269094
X0278937
X0274016Y0126378
X0293701
X0303543
X0313386
X0318307Y0116535
X0337992
X0357677
X036752
X0362598Y0126378
X0347835Y009685
X0337992
Y005748
X0347835
X032815
X0313779Y0061811
X0306299Y0068976
X0304331Y0075984
X0278937Y0077165
X0283858Y0067323
X0274016
X0254331
X024941Y005748
X0239567
X0234646Y0067323
X0214961
X0239567Y009685
X024941
X0259252
X0298622Y0116535
X0200197
X0190354
X0195276Y0126378
X0205118
Y0146063
X0195276
X0185433
X0175591
X0165748
X0155905
X0146063
X0136221
X0126378
X0116535
X0106693
X009685
X0087008
X0077165
X0067323
X005748
X0062402Y0155905
X0072244
X0082087
X0091929
X0101772
X0111614
X0121457
X0131299
X0141142
X0150984
X0160827
X0170669
X0180512
X0190354
X0200197
X0210039
X0205118Y0165748
X0195276
X0185433
X0175591
X0165748
X0155905
X0146063
X0136221
X0126378
X0116535
X0106693
X009685
X0087008
X0077165
X0067323
X005748
X0062402Y0175591
X0072244
X0082087
X0091929
X0101772
X0111614
X0121457
X0131299
X0141142
X0150984
X0160827
X0170669
X0180512
X0190354
X0200197
X0210039
X0205118Y0185433
X0195276
X0185433
X0175591
X0165748
X0155905
X0146063
X0136221
X0126378
X0116535
X0106693
X009685
X0087008
X0077165
X0067323
X005748
X0062402Y0116535
X0072244
X0082087
X0091929
X0106693Y0126378
X0116535
X0126378
X0131299Y0116535
X0160827
X0170669
X0185433Y0126378
X0190354Y009685
X0200197
X0195276Y0087008
X0185433
X0190354Y0077165
X0200197
X0195276Y0067323
X0185433
X0190354Y005748
X0200197
X0180512
X0170669
X0160827
X0150984
Y0077165
X0141142
X0146063Y0087008
X0155905
X0136221
X0106693
X009685
X0101772Y009685
Y0077165
X0091929
X009685Y0067323
X0106693
X0072834Y0096456
X0066929Y01
X005748Y0087008
X0180512Y0077165
X0047638Y0067323
X0037795Y0087008
X0052559Y0116535
X0047638Y0146063
X0037795
X0027953
X001811
X0008268
X0013189Y0155905
X0023031
X0032874
X0042717
X0052559
X0047638Y0165748
X0037795
X0027953
X001811
X0008268
X0032874Y0175591
X0042717
X0052559
X0047638Y0185433
X0037795
X0027953
X0023031Y0136221
X0032874
X0013189
T02
X0385827Y0073622
Y0083622
Y0093622
Y0103622
Y0113622
Y0123622
X0352165Y0124016
X0337402Y0127953
X0322638Y0124016
X0311811Y0113189
X0307874Y0098425
X0311811Y0083661
X0322638Y0072835
X0337402Y0068898
X0352165Y0072835
X0362992Y0083661
X0366929Y0098425
X0273228
X0269291Y0083661
X0258465Y0072835
X0243701Y0068898
X0228937Y0072835
X021811Y0083661
X0214173Y0098425
X021811Y0113189
X0228937Y0124016
X0243701Y0127953
X0258465Y0124016
X0164764
X015Y0127953
X0135236Y0124016
X0124409Y0113189
X0120472Y0098425
X0124409Y0083661
X0135236Y0072835
X015Y0068898
X0164764Y0072835
X0175591Y0083661
X0179528Y0098425
X0085827
X008189Y0083661
X0071063Y0072835
X0056299Y0068898
Y0127953
X0071063Y0124016
X0041535
X0030709Y0113189
X0026772Y0098425
X0030709Y0083661
X0041535Y0072835
X0007874Y0073622
Y0083622
Y0093622
Y0103622
Y0113622
Y0123622
T03
X0015748Y0015748
X0377953
Y0181102
X0015748
M30
