G04*
G04 #@! TF.GenerationSoftware,Altium Limited,Altium Designer,18.0.9 (584)*
G04*
G04 Layer_Color=16711935*
%FSLAX25Y25*%
%MOIN*%
G70*
G01*
G75*
%ADD13R,0.03950X0.03950*%
%ADD14R,0.05918X0.04343*%
%ADD15C,0.18517*%
%ADD16C,0.06800*%
%ADD17O,0.12611X0.07887*%
%ADD35R,0.04343X0.05918*%
%ADD36O,0.08280X0.03162*%
%ADD37O,0.05524X0.02178*%
%ADD38R,0.03950X0.03950*%
D13*
X380495Y139567D02*
D03*
Y133661D02*
D03*
D14*
X387795Y133465D02*
D03*
Y140945D02*
D03*
D15*
X377953Y181102D02*
D03*
Y15748D02*
D03*
X15748Y181102D02*
D03*
Y15748D02*
D03*
D16*
X366929Y98425D02*
D03*
X362992Y83661D02*
D03*
X352165Y72835D02*
D03*
X337402Y68898D02*
D03*
X322638Y72835D02*
D03*
X311811Y83661D02*
D03*
X307874Y98425D02*
D03*
X311811Y113189D02*
D03*
X322638Y124016D02*
D03*
X337402Y127953D02*
D03*
X352165Y124016D02*
D03*
X273228Y98425D02*
D03*
X269291Y83661D02*
D03*
X258465Y72835D02*
D03*
X243701Y68898D02*
D03*
X228937Y72835D02*
D03*
X218110Y83661D02*
D03*
X214173Y98425D02*
D03*
X218110Y113189D02*
D03*
X228937Y124016D02*
D03*
X243701Y127953D02*
D03*
X258465Y124016D02*
D03*
X179528Y98425D02*
D03*
X175591Y83661D02*
D03*
X164764Y72835D02*
D03*
X150000Y68898D02*
D03*
X135236Y72835D02*
D03*
X124409Y83661D02*
D03*
X120472Y98425D02*
D03*
X124409Y113189D02*
D03*
X135236Y124016D02*
D03*
X150000Y127953D02*
D03*
X164764Y124016D02*
D03*
X85827Y98425D02*
D03*
X81890Y83661D02*
D03*
X71063Y72835D02*
D03*
X56299Y68898D02*
D03*
X41535Y72835D02*
D03*
X30709Y83661D02*
D03*
X26772Y98425D02*
D03*
X30709Y113189D02*
D03*
X41535Y124016D02*
D03*
X56299Y127953D02*
D03*
X71063Y124016D02*
D03*
D17*
X385827Y103622D02*
D03*
Y113622D02*
D03*
Y123622D02*
D03*
Y93622D02*
D03*
Y73622D02*
D03*
Y83622D02*
D03*
X7874Y103622D02*
D03*
Y113622D02*
D03*
Y123622D02*
D03*
Y93622D02*
D03*
Y73622D02*
D03*
Y83622D02*
D03*
D35*
X319800Y10059D02*
D03*
X327280D02*
D03*
D36*
X311024Y55748D02*
D03*
Y50748D02*
D03*
Y45748D02*
D03*
Y40748D02*
D03*
Y35748D02*
D03*
Y30748D02*
D03*
Y25748D02*
D03*
Y20748D02*
D03*
Y15748D02*
D03*
Y10748D02*
D03*
X273622Y55748D02*
D03*
Y50748D02*
D03*
Y45748D02*
D03*
Y40748D02*
D03*
Y35748D02*
D03*
Y30748D02*
D03*
Y25748D02*
D03*
Y20748D02*
D03*
Y15748D02*
D03*
Y10748D02*
D03*
D37*
X151378Y46565D02*
D03*
Y44065D02*
D03*
Y41565D02*
D03*
Y39065D02*
D03*
Y36565D02*
D03*
Y34065D02*
D03*
Y31565D02*
D03*
Y29065D02*
D03*
Y26565D02*
D03*
Y24065D02*
D03*
Y21565D02*
D03*
Y19065D02*
D03*
Y16565D02*
D03*
Y14065D02*
D03*
X127362Y46565D02*
D03*
Y44065D02*
D03*
Y41565D02*
D03*
Y39065D02*
D03*
Y36565D02*
D03*
Y34065D02*
D03*
Y31565D02*
D03*
Y29065D02*
D03*
Y26565D02*
D03*
Y24065D02*
D03*
Y21565D02*
D03*
Y19065D02*
D03*
Y16565D02*
D03*
Y14065D02*
D03*
D38*
X317126Y2759D02*
D03*
X311221D02*
D03*
M02*
