G04*
G04 #@! TF.GenerationSoftware,Altium Limited,Altium Designer,18.0.9 (584)*
G04*
G04 Layer_Color=65535*
%FSLAX25Y25*%
%MOIN*%
G70*
G01*
G75*
%ADD10C,0.01000*%
%ADD11C,0.00591*%
%ADD12C,0.00787*%
G36*
X332677Y173304D02*
Y167141D01*
Y157480D01*
X263386D01*
Y167141D01*
D01*
Y173304D01*
Y181890D01*
X332677D01*
Y173304D01*
D02*
G37*
%LPC*%
G36*
X331653Y179850D02*
X331252D01*
X331179Y179726D01*
X331099Y179610D01*
X331004Y179493D01*
X330917Y179391D01*
X330829Y179304D01*
X330764Y179231D01*
X330734Y179209D01*
X330713Y179187D01*
X330705Y179180D01*
X330698Y179172D01*
X330545Y179048D01*
X330392Y178932D01*
X330246Y178830D01*
X330100Y178749D01*
X329976Y178676D01*
X329925Y178647D01*
X329882Y178626D01*
X329845Y178604D01*
X329816Y178596D01*
X329801Y178582D01*
X329794D01*
Y179850D01*
Y177984D01*
X329903Y178028D01*
X330013Y178079D01*
X330122Y178130D01*
X330224Y178181D01*
X330312Y178225D01*
X330384Y178261D01*
X330428Y178290D01*
X330436Y178297D01*
X330443D01*
X330574Y178378D01*
X330691Y178458D01*
X330793Y178531D01*
X330873Y178596D01*
X330946Y178647D01*
X330990Y178691D01*
X331026Y178720D01*
X331033Y178728D01*
Y174784D01*
X329794D01*
X331653D01*
Y179850D01*
D02*
G37*
G36*
X310410Y178523D02*
X310330D01*
X310198Y178516D01*
X310082Y178502D01*
X309980Y178480D01*
X309892Y178451D01*
X309819Y178421D01*
X309761Y178400D01*
X309732Y178385D01*
X309717Y178378D01*
X309630Y178319D01*
X309542Y178254D01*
X309470Y178188D01*
X309404Y178115D01*
X309346Y178057D01*
X309309Y178006D01*
X309280Y177977D01*
X309273Y177962D01*
Y178443D01*
X308711D01*
Y173384D01*
X311882D01*
X309331D01*
Y175163D01*
X309389Y175090D01*
X309455Y175024D01*
X309528Y174966D01*
X309586Y174922D01*
X309645Y174878D01*
X309688Y174849D01*
X309725Y174835D01*
X309732Y174827D01*
X309827Y174784D01*
X309922Y174755D01*
X310016Y174733D01*
X310104Y174718D01*
X310177Y174711D01*
X310235Y174704D01*
X310286D01*
X310439Y174711D01*
X310592Y174740D01*
X310723Y174776D01*
X310847Y174820D01*
X310949Y174864D01*
X311022Y174900D01*
X311051Y174915D01*
X311073Y174929D01*
X311081Y174937D01*
X311088D01*
X311226Y175039D01*
X311343Y175148D01*
X311445Y175258D01*
X311525Y175367D01*
X311591Y175469D01*
X311642Y175549D01*
X311656Y175578D01*
X311671Y175600D01*
X311678Y175615D01*
Y175622D01*
X311744Y175797D01*
X311795Y175972D01*
X311831Y176140D01*
X311861Y176300D01*
X311875Y176431D01*
Y176489D01*
X311882Y176541D01*
Y176635D01*
X311875Y176825D01*
X311853Y177007D01*
X311824Y177167D01*
X311788Y177313D01*
X311751Y177430D01*
X311737Y177481D01*
X311722Y177525D01*
X311707Y177554D01*
X311700Y177576D01*
X311693Y177590D01*
Y177598D01*
X311620Y177751D01*
X311533Y177889D01*
X311445Y178006D01*
X311358Y178101D01*
X311277Y178173D01*
X311212Y178232D01*
X311168Y178261D01*
X311161Y178276D01*
X311154D01*
X311015Y178356D01*
X310876Y178421D01*
X310738Y178465D01*
X310607Y178494D01*
X310497Y178509D01*
X310446Y178516D01*
X310410Y178523D01*
D02*
G37*
G36*
X287381Y178523D02*
X287330D01*
X287250Y178516D01*
X287177Y178502D01*
X287104Y178480D01*
X287046Y178458D01*
X287002Y178436D01*
X286958Y178414D01*
X286936Y178400D01*
X286929Y178392D01*
X286863Y178334D01*
X286798Y178261D01*
X286732Y178173D01*
X286674Y178093D01*
X286615Y178013D01*
X286579Y177947D01*
X286550Y177896D01*
X286543Y177889D01*
Y178443D01*
X285981D01*
Y174784D01*
X287964D01*
D01*
X286601D01*
Y176694D01*
X286608Y176839D01*
X286615Y176971D01*
X286630Y177095D01*
X286652Y177204D01*
X286674Y177291D01*
X286688Y177357D01*
X286696Y177401D01*
X286703Y177415D01*
X286732Y177496D01*
X286768Y177561D01*
X286805Y177620D01*
X286841Y177671D01*
X286878Y177707D01*
X286900Y177736D01*
X286922Y177751D01*
X286929Y177758D01*
X286987Y177802D01*
X287053Y177831D01*
X287118Y177853D01*
X287169Y177867D01*
X287220Y177875D01*
X287257Y177882D01*
X287293D01*
X287373Y177875D01*
X287454Y177860D01*
X287534Y177838D01*
X287599Y177816D01*
X287658Y177794D01*
X287702Y177773D01*
X287731Y177758D01*
X287738Y177751D01*
X287964Y178319D01*
X287840Y178385D01*
X287723Y178436D01*
X287621Y178472D01*
X287527Y178502D01*
X287446Y178516D01*
X287381Y178523D01*
D02*
G37*
G36*
X306452Y178523D02*
X306276D01*
X306174Y178509D01*
X306087Y178502D01*
X306007Y178487D01*
X305941Y178472D01*
X305890Y178458D01*
X305861Y178451D01*
X305846Y178443D01*
X305759Y178414D01*
X305679Y178385D01*
X305613Y178356D01*
X305555Y178327D01*
X305511Y178305D01*
X305482Y178283D01*
X305460Y178276D01*
X305453Y178268D01*
X305380Y178217D01*
X305322Y178159D01*
X305271Y178093D01*
X305227Y178042D01*
X305190Y177991D01*
X305168Y177955D01*
X305154Y177926D01*
X305147Y177918D01*
X305110Y177838D01*
X305081Y177765D01*
X305066Y177685D01*
X305052Y177620D01*
X305045Y177554D01*
X305037Y177510D01*
Y177481D01*
Y177466D01*
X305045Y177364D01*
X305059Y177277D01*
X305081Y177189D01*
X305103Y177117D01*
X305125Y177058D01*
X305147Y177007D01*
X305161Y176978D01*
X305168Y176971D01*
X305227Y176891D01*
X305292Y176825D01*
X305358Y176767D01*
X305424Y176716D01*
X305482Y176679D01*
X305526Y176650D01*
X305555Y176635D01*
X305569Y176628D01*
X305620Y176606D01*
X305686Y176577D01*
X305832Y176526D01*
X305985Y176482D01*
X306145Y176431D01*
X306284Y176395D01*
X306349Y176373D01*
X306408Y176358D01*
X306452Y176344D01*
X306488Y176336D01*
X306510Y176329D01*
X306517D01*
X306612Y176307D01*
X306692Y176285D01*
X306765Y176263D01*
X306831Y176242D01*
X306889Y176227D01*
X306940Y176205D01*
X307027Y176176D01*
X307086Y176154D01*
X307122Y176132D01*
X307144Y176125D01*
X307151Y176118D01*
X307217Y176074D01*
X307261Y176016D01*
X307297Y175965D01*
X307319Y175914D01*
X307333Y175863D01*
X307341Y175826D01*
Y175797D01*
Y175790D01*
X307333Y175702D01*
X307312Y175629D01*
X307275Y175556D01*
X307239Y175498D01*
X307195Y175447D01*
X307166Y175411D01*
X307137Y175389D01*
X307129Y175381D01*
X307042Y175323D01*
X306947Y175287D01*
X306838Y175258D01*
X306736Y175236D01*
X306641Y175221D01*
X306568Y175214D01*
X306495D01*
X306342Y175221D01*
X306211Y175243D01*
X306101Y175272D01*
X306007Y175309D01*
X305934Y175345D01*
X305875Y175374D01*
X305846Y175396D01*
X305832Y175403D01*
X305752Y175484D01*
X305686Y175578D01*
X305642Y175673D01*
X305606Y175760D01*
X305577Y175841D01*
X305562Y175914D01*
X305547Y175957D01*
Y175965D01*
Y175972D01*
X304935Y175877D01*
X304986Y175673D01*
X305052Y175491D01*
X305132Y175345D01*
X305212Y175221D01*
X305285Y175119D01*
X305351Y175053D01*
X305394Y175010D01*
X305402Y175002D01*
X305409Y174995D01*
X305482Y174944D01*
X305562Y174900D01*
X305737Y174827D01*
X305919Y174776D01*
X306094Y174740D01*
X306174Y174725D01*
X306247Y174718D01*
X306320Y174711D01*
X306379D01*
X306430Y174704D01*
X304935D01*
D01*
X307975D01*
D01*
X306495D01*
X306656Y174711D01*
X306794Y174725D01*
X306925Y174747D01*
X307042Y174776D01*
X307137Y174805D01*
X307210Y174827D01*
X307253Y174842D01*
X307261Y174849D01*
X307268D01*
X307392Y174915D01*
X307494Y174980D01*
X307581Y175053D01*
X307662Y175119D01*
X307720Y175177D01*
X307756Y175228D01*
X307786Y175258D01*
X307793Y175272D01*
X307851Y175374D01*
X307895Y175484D01*
X307931Y175578D01*
X307953Y175666D01*
X307968Y175746D01*
X307975Y175804D01*
Y175855D01*
D01*
X307968Y175972D01*
X307953Y176074D01*
X307924Y176162D01*
X307902Y176242D01*
X307873Y176307D01*
X307844Y176351D01*
X307829Y176380D01*
X307822Y176388D01*
X307764Y176460D01*
X307698Y176526D01*
X307632Y176584D01*
X307567Y176628D01*
X307501Y176664D01*
X307457Y176686D01*
X307428Y176701D01*
X307414Y176708D01*
X307363Y176730D01*
X307304Y176752D01*
X307166Y176803D01*
X307013Y176854D01*
X306860Y176898D01*
X306721Y176942D01*
X306656Y176956D01*
X306605Y176971D01*
X306561Y176985D01*
X306524Y176992D01*
X306503Y177000D01*
X306495D01*
X306415Y177022D01*
X306342Y177044D01*
X306276Y177058D01*
X306218Y177080D01*
X306123Y177102D01*
X306050Y177124D01*
X305999Y177146D01*
X305970Y177153D01*
X305956Y177160D01*
X305948D01*
X305890Y177189D01*
X305839Y177211D01*
X305795Y177240D01*
X305766Y177262D01*
X305737Y177284D01*
X305722Y177306D01*
X305715Y177313D01*
X305708Y177321D01*
X305664Y177393D01*
X305642Y177466D01*
Y177496D01*
X305635Y177517D01*
Y177532D01*
Y177539D01*
X305642Y177605D01*
X305664Y177671D01*
X305693Y177729D01*
X305730Y177773D01*
X305759Y177816D01*
X305788Y177846D01*
X305810Y177860D01*
X305817Y177867D01*
X305897Y177918D01*
X305992Y177955D01*
X306094Y177977D01*
X306189Y177999D01*
X306284Y178006D01*
X306357Y178013D01*
X306430D01*
X306554Y178006D01*
X306670Y177991D01*
X306765Y177962D01*
X306838Y177933D01*
X306903Y177904D01*
X306947Y177875D01*
X306976Y177860D01*
X306984Y177853D01*
X307056Y177787D01*
X307107Y177714D01*
X307151Y177641D01*
X307188Y177576D01*
X307210Y177510D01*
X307224Y177459D01*
X307231Y177430D01*
Y177415D01*
X307837Y177496D01*
X307807Y177620D01*
X307778Y177729D01*
X307742Y177824D01*
X307705Y177911D01*
X307669Y177969D01*
X307640Y178020D01*
X307625Y178050D01*
X307618Y178057D01*
X307552Y178130D01*
X307479Y178195D01*
X307399Y178254D01*
X307319Y178305D01*
X307246Y178341D01*
X307188Y178370D01*
X307151Y178385D01*
X307144Y178392D01*
X307137D01*
X307013Y178436D01*
X306882Y178465D01*
X306758Y178494D01*
X306641Y178509D01*
X306532Y178516D01*
X306452Y178523D01*
D02*
G37*
G36*
X295888Y176920D02*
X293971D01*
Y176300D01*
X295888D01*
Y176920D01*
D02*
G37*
G36*
X289962Y178523D02*
X289881D01*
X289706Y178516D01*
X289553Y178502D01*
X289407Y178480D01*
X289291Y178458D01*
X289189Y178436D01*
X289116Y178414D01*
X289087Y178407D01*
X289065Y178400D01*
X289057Y178392D01*
X289050D01*
X288926Y178341D01*
X288817Y178276D01*
X288722Y178217D01*
X288642Y178159D01*
X288584Y178101D01*
X288540Y178057D01*
X288511Y178028D01*
X288504Y178020D01*
X288438Y177926D01*
X288380Y177824D01*
X288336Y177722D01*
X288299Y177627D01*
X288270Y177532D01*
X288248Y177466D01*
X288241Y177437D01*
Y177415D01*
X288234Y177408D01*
Y177401D01*
X288839Y177321D01*
X288882Y177452D01*
X288926Y177568D01*
X288977Y177663D01*
X289021Y177736D01*
X289065Y177794D01*
X289101Y177831D01*
X289130Y177853D01*
X289138Y177860D01*
X289225Y177911D01*
X289327Y177947D01*
X289437Y177977D01*
X289539Y177991D01*
X289641Y178006D01*
X289714Y178013D01*
X289787D01*
X289954Y178006D01*
X290100Y177984D01*
X290217Y177947D01*
X290319Y177911D01*
X290392Y177867D01*
X290450Y177838D01*
X290486Y177809D01*
X290494Y177802D01*
X290552Y177736D01*
X290596Y177656D01*
X290632Y177568D01*
X290654Y177481D01*
X290669Y177401D01*
X290676Y177328D01*
Y177284D01*
Y177277D01*
Y177270D01*
Y177255D01*
Y177226D01*
Y177175D01*
X290669Y177131D01*
Y177117D01*
Y177109D01*
X290596Y177087D01*
X290515Y177065D01*
X290348Y177022D01*
X290158Y176985D01*
X289983Y176949D01*
X289896Y176934D01*
X289816Y176927D01*
X289743Y176912D01*
X289685Y176905D01*
X289633Y176898D01*
X289597D01*
X289568Y176891D01*
X289561D01*
X289429Y176876D01*
X289320Y176854D01*
X289225Y176839D01*
X289152Y176825D01*
X289094Y176818D01*
X289050Y176803D01*
X289021Y176796D01*
X289014D01*
X288919Y176767D01*
X288839Y176737D01*
X288759Y176701D01*
X288693Y176672D01*
X288635Y176643D01*
X288598Y176613D01*
X288569Y176599D01*
X288562Y176592D01*
X288489Y176541D01*
X288431Y176482D01*
X288372Y176424D01*
X288329Y176366D01*
X288292Y176315D01*
X288263Y176271D01*
X288248Y176242D01*
X288241Y176234D01*
X288205Y176154D01*
X288175Y176067D01*
X288154Y175987D01*
X288139Y175906D01*
X288132Y175841D01*
X288124Y175790D01*
Y175790D01*
Y175790D01*
Y174704D01*
X291492D01*
D01*
X289371D01*
X289502Y174711D01*
X289633Y174725D01*
X289750Y174740D01*
X289852Y174762D01*
X289932Y174784D01*
X289998Y174805D01*
X290042Y174813D01*
X290056Y174820D01*
X290180Y174871D01*
X290297Y174937D01*
X290406Y175010D01*
X290515Y175075D01*
X290603Y175141D01*
X290669Y175192D01*
X290712Y175228D01*
X290720Y175243D01*
X290727D01*
X290741Y175148D01*
X290756Y175061D01*
X290771Y174980D01*
X290792Y174915D01*
X290814Y174857D01*
X290829Y174820D01*
X290836Y174791D01*
X290844Y174784D01*
X291492D01*
X291456Y174864D01*
X291420Y174944D01*
X291390Y175017D01*
X291376Y175083D01*
X291354Y175141D01*
X291347Y175185D01*
X291339Y175214D01*
Y175221D01*
X291332Y175272D01*
X291325Y175338D01*
Y175411D01*
X291317Y175491D01*
X291310Y175673D01*
Y175855D01*
X291303Y176030D01*
Y176110D01*
Y176176D01*
Y176234D01*
Y176278D01*
Y176307D01*
Y176315D01*
Y177146D01*
Y177284D01*
X291296Y177408D01*
X291288Y177503D01*
Y177583D01*
X291281Y177641D01*
X291274Y177685D01*
X291266Y177707D01*
Y177714D01*
X291245Y177809D01*
X291215Y177889D01*
X291186Y177955D01*
X291150Y178020D01*
X291121Y178064D01*
X291099Y178101D01*
X291084Y178122D01*
X291077Y178130D01*
X291019Y178188D01*
X290953Y178246D01*
X290880Y178290D01*
X290807Y178334D01*
X290741Y178363D01*
X290690Y178385D01*
X290654Y178400D01*
X290639Y178407D01*
X290523Y178443D01*
X290399Y178472D01*
X290275Y178494D01*
X290151Y178509D01*
X290042Y178516D01*
X289962Y178523D01*
D02*
G37*
G36*
X321119Y178443D02*
X320499D01*
X319712Y176307D01*
X319654Y176154D01*
X319610Y176008D01*
X319559Y175863D01*
X319522Y175739D01*
X319493Y175629D01*
X319479Y175586D01*
X319471Y175549D01*
X319464Y175520D01*
X319457Y175498D01*
X319449Y175484D01*
Y175476D01*
X319406Y175644D01*
X319362Y175797D01*
X319318Y175943D01*
X319275Y176067D01*
X319238Y176169D01*
X319223Y176213D01*
X319209Y176249D01*
X319202Y176285D01*
X319194Y176307D01*
X319187Y176315D01*
Y176322D01*
X318422Y178443D01*
X317765D01*
X319151Y174784D01*
X319122Y174718D01*
X319107Y174667D01*
X319092Y174638D01*
Y174631D01*
X319049Y174507D01*
X319005Y174405D01*
X318976Y174317D01*
X318947Y174259D01*
X318932Y174215D01*
X318917Y174186D01*
X318903Y174171D01*
Y174164D01*
X318845Y174084D01*
X318779Y174025D01*
X318750Y174004D01*
X318728Y173989D01*
X318713Y173975D01*
X318706D01*
X318655Y173953D01*
X318604Y173931D01*
X318495Y173909D01*
X318451D01*
X318414Y173902D01*
X318378D01*
X318261Y173909D01*
X318145Y173931D01*
X318101Y173945D01*
X318064Y173953D01*
X318035Y173960D01*
X318028D01*
X318094Y173384D01*
X318174Y173355D01*
X318247Y173340D01*
X318312Y173326D01*
X318371Y173311D01*
X318422D01*
X318458Y173304D01*
X317765D01*
X321119D01*
D01*
X318487D01*
X318597Y173311D01*
X318691Y173326D01*
X318779Y173347D01*
X318852Y173377D01*
X318917Y173406D01*
X318961Y173428D01*
X318990Y173442D01*
X318998Y173450D01*
X319078Y173508D01*
X319143Y173581D01*
X319209Y173654D01*
X319267Y173727D01*
X319311Y173792D01*
X319348Y173843D01*
X319369Y173880D01*
X319377Y173894D01*
X319398Y173945D01*
X319428Y173996D01*
X319486Y174120D01*
X319544Y174259D01*
X319595Y174397D01*
X319646Y174521D01*
X319668Y174580D01*
X319690Y174631D01*
X319705Y174667D01*
X319719Y174696D01*
X319726Y174718D01*
Y174725D01*
X321119Y178443D01*
D02*
G37*
G36*
X269017Y179828D02*
X268339D01*
X266969Y176162D01*
X266911Y176008D01*
X266860Y175863D01*
X266816Y175724D01*
X266779Y175600D01*
X266743Y175491D01*
X266721Y175411D01*
X266714Y175381D01*
X266706Y175360D01*
X266699Y175345D01*
Y175338D01*
X266612Y175629D01*
X266568Y175768D01*
X266524Y175892D01*
X266488Y176001D01*
X266473Y176045D01*
X266466Y176089D01*
X266451Y176118D01*
X266444Y176140D01*
X266437Y176154D01*
Y176162D01*
X265124Y179828D01*
X264395D01*
X266349Y174784D01*
X264395D01*
X269017D01*
D01*
X267049D01*
X269017Y179828D01*
D02*
G37*
G36*
X284953D02*
X284283D01*
Y176912D01*
Y176745D01*
X284268Y176584D01*
X284253Y176446D01*
X284231Y176315D01*
X284210Y176198D01*
X284180Y176089D01*
X284159Y175994D01*
X284130Y175914D01*
X284100Y175848D01*
X284071Y175782D01*
X284042Y175739D01*
X284020Y175695D01*
X283998Y175666D01*
X283984Y175644D01*
X283976Y175637D01*
X283969Y175629D01*
X283904Y175571D01*
X283831Y175520D01*
X283670Y175440D01*
X283503Y175381D01*
X283328Y175345D01*
X283167Y175316D01*
X283102Y175309D01*
X283036D01*
X282992Y175301D01*
X282919D01*
X282766Y175309D01*
X282628Y175330D01*
X282497Y175352D01*
X282395Y175389D01*
X282307Y175418D01*
X282241Y175440D01*
X282205Y175462D01*
X282190Y175469D01*
X282088Y175534D01*
X282001Y175615D01*
X281928Y175695D01*
X281877Y175768D01*
X281833Y175841D01*
X281797Y175892D01*
X281782Y175928D01*
X281775Y175943D01*
X281753Y176008D01*
X281738Y176074D01*
X281709Y176227D01*
X281687Y176388D01*
X281673Y176548D01*
X281665Y176686D01*
Y176752D01*
X281658Y176803D01*
Y176847D01*
Y176883D01*
Y176905D01*
Y176912D01*
Y179828D01*
X280988D01*
Y174696D01*
X284953D01*
Y179828D01*
D02*
G37*
G36*
X328416Y175491D02*
X327709D01*
Y174784D01*
X328416D01*
Y175491D01*
D02*
G37*
G36*
X317357Y178523D02*
X315746D01*
X315571Y178516D01*
X315418Y178502D01*
X315272Y178480D01*
X315156Y178458D01*
X315054Y178436D01*
X314981Y178414D01*
X314952Y178407D01*
X314930Y178400D01*
X314922Y178392D01*
X314915D01*
X314791Y178341D01*
X314682Y178276D01*
X314587Y178217D01*
X314507Y178159D01*
X314449Y178101D01*
X314405Y178057D01*
X314376Y178028D01*
X314368Y178020D01*
X314303Y177926D01*
X314245Y177824D01*
X314201Y177722D01*
X314164Y177627D01*
X314135Y177532D01*
X314113Y177466D01*
X314106Y177437D01*
Y177415D01*
X314099Y177408D01*
Y177401D01*
X314704Y177321D01*
X314748Y177452D01*
X314791Y177568D01*
X314842Y177663D01*
X314886Y177736D01*
X314930Y177794D01*
X314966Y177831D01*
X314995Y177853D01*
X315003Y177860D01*
X315090Y177911D01*
X315192Y177947D01*
X315301Y177977D01*
X315404Y177991D01*
X315506Y178006D01*
X315579Y178013D01*
X315651D01*
X315819Y178006D01*
X315965Y177984D01*
X316082Y177947D01*
X316184Y177911D01*
X316256Y177867D01*
X316315Y177838D01*
X316351Y177809D01*
X316359Y177802D01*
X316417Y177736D01*
X316461Y177656D01*
X316497Y177568D01*
X316519Y177481D01*
X316533Y177401D01*
X316541Y177328D01*
Y177284D01*
Y177277D01*
Y177270D01*
Y177255D01*
Y177226D01*
Y177175D01*
X316533Y177131D01*
Y177117D01*
Y177109D01*
X316461Y177087D01*
X316380Y177065D01*
X316213Y177022D01*
X316023Y176985D01*
X315848Y176949D01*
X315761Y176934D01*
X315681Y176927D01*
X315608Y176912D01*
X315549Y176905D01*
X315498Y176898D01*
X315462D01*
X315433Y176891D01*
X315425D01*
X315294Y176876D01*
X315185Y176854D01*
X315090Y176839D01*
X315017Y176825D01*
X314959Y176818D01*
X314915Y176803D01*
X314886Y176796D01*
X314879D01*
X314784Y176767D01*
X314704Y176737D01*
X314623Y176701D01*
X314558Y176672D01*
X314500Y176643D01*
X314463Y176613D01*
X314434Y176599D01*
X314427Y176592D01*
X314354Y176541D01*
X314296Y176482D01*
X314237Y176424D01*
X314193Y176366D01*
X314157Y176315D01*
X314128Y176271D01*
X314113Y176242D01*
X314106Y176234D01*
X314070Y176154D01*
X314040Y176067D01*
X314019Y175987D01*
X314004Y175906D01*
X313997Y175841D01*
X313989Y175790D01*
Y174704D01*
Y175746D01*
X313997Y175659D01*
X314004Y175586D01*
X314040Y175433D01*
X314091Y175309D01*
X314150Y175199D01*
X314208Y175112D01*
X314259Y175046D01*
X314296Y175010D01*
X314310Y174995D01*
X314441Y174900D01*
X314587Y174827D01*
X314748Y174776D01*
X314893Y174740D01*
X315024Y174718D01*
X315083Y174711D01*
X315134D01*
X315178Y174704D01*
X313989D01*
X317357D01*
D01*
X315236D01*
X315367Y174711D01*
X315498Y174725D01*
X315615Y174740D01*
X315717Y174762D01*
X315797Y174784D01*
X315863Y174805D01*
X315907Y174813D01*
X315921Y174820D01*
X316045Y174871D01*
X316162Y174937D01*
X316271Y175010D01*
X316380Y175075D01*
X316468Y175141D01*
X316533Y175192D01*
X316577Y175228D01*
X316584Y175243D01*
X316592D01*
X316606Y175148D01*
X316621Y175061D01*
X316636Y174980D01*
X316657Y174915D01*
X316679Y174857D01*
X316694Y174820D01*
X316701Y174791D01*
X316708Y174784D01*
X317357D01*
X317321Y174864D01*
X317284Y174944D01*
X317255Y175017D01*
X317241Y175083D01*
X317219Y175141D01*
X317212Y175185D01*
X317204Y175214D01*
Y175221D01*
X317197Y175272D01*
X317190Y175338D01*
Y175411D01*
X317182Y175491D01*
X317175Y175673D01*
Y175855D01*
X317168Y176030D01*
Y176110D01*
Y176176D01*
Y176234D01*
Y176278D01*
Y176307D01*
Y176315D01*
Y177146D01*
Y177284D01*
X317161Y177408D01*
X317153Y177503D01*
Y177583D01*
X317146Y177641D01*
X317139Y177685D01*
X317131Y177707D01*
Y177714D01*
X317109Y177809D01*
X317080Y177889D01*
X317051Y177955D01*
X317015Y178020D01*
X316986Y178064D01*
X316964Y178101D01*
X316949Y178122D01*
X316942Y178130D01*
X316883Y178188D01*
X316818Y178246D01*
X316745Y178290D01*
X316672Y178334D01*
X316606Y178363D01*
X316555Y178385D01*
X316519Y178400D01*
X316504Y178407D01*
X316388Y178443D01*
X316264Y178472D01*
X316140Y178494D01*
X316016Y178509D01*
X315907Y178516D01*
X315826Y178523D01*
X317357D01*
D02*
G37*
G36*
X313238Y179828D02*
X312619D01*
Y174784D01*
X313238D01*
Y179828D01*
D02*
G37*
G36*
X304235D02*
X303616D01*
Y174784D01*
X304235D01*
Y178443D01*
D01*
X303616D01*
Y179121D01*
X304235D01*
Y179828D01*
D02*
G37*
G36*
X300547D02*
X298607D01*
Y174784D01*
X302777D01*
D01*
X300423D01*
X300590Y174791D01*
X300743Y174798D01*
X300882Y174813D01*
X300998Y174827D01*
X301101Y174842D01*
X301173Y174849D01*
X301195Y174857D01*
X301217Y174864D01*
X301232D01*
X301363Y174900D01*
X301480Y174944D01*
X301582Y174980D01*
X301669Y175024D01*
X301742Y175061D01*
X301793Y175090D01*
X301822Y175112D01*
X301837Y175119D01*
X301932Y175185D01*
X302012Y175265D01*
X302092Y175338D01*
X302158Y175411D01*
X302216Y175476D01*
X302260Y175527D01*
X302289Y175564D01*
X302296Y175578D01*
X302369Y175695D01*
X302442Y175819D01*
X302500Y175935D01*
X302544Y176052D01*
X302588Y176154D01*
X302617Y176234D01*
X302624Y176263D01*
X302631Y176285D01*
X302639Y176300D01*
Y176307D01*
X302682Y176482D01*
X302719Y176657D01*
X302741Y176825D01*
X302763Y176985D01*
X302770Y177124D01*
Y177182D01*
X302777Y177233D01*
Y177328D01*
X302770Y177576D01*
X302748Y177802D01*
X302712Y178006D01*
X302697Y178101D01*
X302675Y178181D01*
X302653Y178261D01*
X302639Y178327D01*
X302624Y178385D01*
X302602Y178436D01*
X302595Y178480D01*
X302580Y178509D01*
X302573Y178523D01*
Y178531D01*
X302493Y178720D01*
X302398Y178888D01*
X302296Y179034D01*
X302201Y179158D01*
X302114Y179260D01*
X302041Y179333D01*
X302012Y179355D01*
X301990Y179376D01*
X301983Y179384D01*
X301975Y179391D01*
X301859Y179486D01*
X301735Y179559D01*
X301611Y179624D01*
X301494Y179675D01*
X301392Y179712D01*
X301312Y179734D01*
X301283Y179748D01*
X301261D01*
X301246Y179755D01*
X301239D01*
X301115Y179777D01*
X300969Y179799D01*
X300824Y179814D01*
X300678Y179821D01*
X300547Y179828D01*
D02*
G37*
G36*
X275870Y179828D02*
X273931D01*
Y174784D01*
X275746D01*
X275914Y174791D01*
X276067Y174798D01*
X276205Y174813D01*
X276322Y174827D01*
X276424Y174842D01*
X276497Y174849D01*
X276519Y174857D01*
X276541Y174864D01*
X276555D01*
X276686Y174900D01*
X276803Y174944D01*
X276905Y174980D01*
X276993Y175024D01*
X277065Y175061D01*
X277116Y175090D01*
X277146Y175112D01*
X277160Y175119D01*
X277255Y175185D01*
X277335Y175265D01*
X277415Y175338D01*
X277481Y175411D01*
X277539Y175476D01*
X277583Y175527D01*
X277612Y175564D01*
X277620Y175578D01*
X277692Y175695D01*
X277765Y175819D01*
X277824Y175935D01*
X277867Y176052D01*
X277911Y176154D01*
X277940Y176234D01*
X277948Y176263D01*
X277955Y176285D01*
X277962Y176300D01*
Y176307D01*
X278006Y176482D01*
X278042Y176657D01*
X278064Y176825D01*
X278086Y176985D01*
X278093Y177124D01*
Y177182D01*
X278101Y177233D01*
Y177328D01*
X278093Y177576D01*
X278071Y177802D01*
X278035Y178006D01*
X278020Y178101D01*
X277999Y178181D01*
X277977Y178261D01*
X277962Y178327D01*
X277948Y178385D01*
X277926Y178436D01*
X277918Y178480D01*
X277904Y178509D01*
X277896Y178523D01*
Y178531D01*
X277816Y178720D01*
X277722Y178888D01*
X277620Y179034D01*
X277525Y179158D01*
X277437Y179260D01*
X277364Y179333D01*
X277335Y179355D01*
X277313Y179376D01*
X277306Y179384D01*
X277299Y179391D01*
X277182Y179486D01*
X277058Y179559D01*
X276934Y179624D01*
X276818Y179675D01*
X276715Y179712D01*
X276635Y179734D01*
X276606Y179748D01*
X276584D01*
X276570Y179755D01*
X276562D01*
X276438Y179777D01*
X276293Y179799D01*
X276147Y179814D01*
X276001Y179821D01*
X275870Y179828D01*
D02*
G37*
G36*
X273063D02*
X269652D01*
Y174784D01*
X270322D01*
Y177073D01*
X272691D01*
Y177671D01*
X270322D01*
Y179231D01*
X273063D01*
Y179828D01*
D02*
G37*
G36*
X325150Y179850D02*
X325085D01*
X324888Y179836D01*
X324706Y179806D01*
X324552Y179755D01*
X324421Y179704D01*
X324312Y179646D01*
X324268Y179624D01*
X324232Y179595D01*
X324203Y179580D01*
X324181Y179566D01*
X324173Y179551D01*
X324166D01*
X324035Y179435D01*
X323926Y179296D01*
X323831Y179158D01*
X323758Y179026D01*
X323700Y178902D01*
X323670Y178851D01*
X323656Y178800D01*
X323641Y178764D01*
X323627Y178735D01*
X323619Y178720D01*
Y178713D01*
X323590Y178604D01*
X323561Y178494D01*
X323517Y178254D01*
X323481Y178013D01*
X323459Y177787D01*
X323452Y177678D01*
X323444Y177583D01*
Y177496D01*
X323437Y177415D01*
Y177270D01*
X323444Y177014D01*
X323459Y176774D01*
X323481Y176555D01*
X323517Y176351D01*
X323554Y176162D01*
X323598Y175994D01*
X323641Y175841D01*
X323685Y175709D01*
X323729Y175593D01*
X323780Y175491D01*
X323816Y175403D01*
X323853Y175338D01*
X323889Y175279D01*
X323911Y175243D01*
X323926Y175221D01*
X323933Y175214D01*
X324013Y175126D01*
X324100Y175046D01*
X324195Y174973D01*
X324290Y174915D01*
X324385Y174864D01*
X324480Y174820D01*
X324574Y174791D01*
X324662Y174762D01*
X324749Y174740D01*
X324830Y174725D01*
X324902Y174711D01*
X324961Y174704D01*
X325012Y174696D01*
X323437D01*
X325085D01*
X325282Y174711D01*
X325464Y174740D01*
X325617Y174791D01*
X325748Y174842D01*
X325857Y174893D01*
X325894Y174922D01*
X325930Y174944D01*
X325959Y174959D01*
X325981Y174973D01*
X325989Y174988D01*
X325996D01*
X326127Y175112D01*
X326237Y175243D01*
X326331Y175389D01*
X326404Y175520D01*
X326463Y175644D01*
X326492Y175695D01*
X326506Y175746D01*
X326521Y175782D01*
X326535Y175812D01*
X326543Y175826D01*
Y175833D01*
X326579Y175943D01*
X326608Y176052D01*
X326652Y176285D01*
X326689Y176526D01*
X326710Y176759D01*
X326718Y176861D01*
X326725Y176956D01*
Y177044D01*
X326732Y177124D01*
Y177415D01*
Y177408D01*
X326725Y177539D01*
Y177656D01*
X326718Y177773D01*
X326703Y177875D01*
X326696Y177977D01*
X326689Y178064D01*
X326674Y178144D01*
X326667Y178217D01*
X326652Y178283D01*
X326645Y178334D01*
X326638Y178378D01*
X326630Y178414D01*
X326623Y178436D01*
X326616Y178451D01*
Y178458D01*
X326572Y178618D01*
X326521Y178764D01*
X326463Y178888D01*
X326419Y178997D01*
X326368Y179092D01*
X326339Y179158D01*
X326309Y179194D01*
X326302Y179209D01*
X326222Y179318D01*
X326142Y179413D01*
X326054Y179493D01*
X325974Y179566D01*
X325901Y179617D01*
X325843Y179653D01*
X325806Y179675D01*
X325799Y179683D01*
X325792D01*
X325675Y179741D01*
X325551Y179777D01*
X325435Y179806D01*
X325325Y179828D01*
X325231Y179843D01*
X325150Y179850D01*
D02*
G37*
G36*
X293800Y172295D02*
Y167826D01*
X291314Y167826D01*
X291401Y167950D01*
X291445Y168001D01*
X291481Y168052D01*
X291518Y168096D01*
X291547Y168125D01*
X291569Y168147D01*
X291576Y168154D01*
X291613Y168191D01*
X291656Y168227D01*
X291758Y168322D01*
X291875Y168431D01*
X291999Y168541D01*
X292116Y168635D01*
X292167Y168679D01*
X292210Y168723D01*
X292247Y168752D01*
X292276Y168774D01*
X292291Y168788D01*
X292298Y168796D01*
X292415Y168898D01*
X292531Y168992D01*
X292633Y169087D01*
X292728Y169167D01*
X292815Y169248D01*
X292888Y169320D01*
X292961Y169386D01*
X293020Y169445D01*
X293078Y169503D01*
X293122Y169546D01*
X293158Y169583D01*
X293195Y169619D01*
X293231Y169663D01*
X293246Y169678D01*
X293348Y169802D01*
X293435Y169911D01*
X293508Y170020D01*
X293566Y170108D01*
X293610Y170188D01*
X293639Y170246D01*
X293654Y170283D01*
X293661Y170297D01*
X293705Y170407D01*
X293734Y170516D01*
X293763Y170618D01*
X293778Y170706D01*
X293785Y170786D01*
X293792Y170844D01*
Y170881D01*
Y170895D01*
X293785Y171004D01*
X293771Y171107D01*
X293756Y171209D01*
X293727Y171296D01*
X293654Y171471D01*
X293581Y171610D01*
X293537Y171675D01*
X293501Y171726D01*
X293464Y171777D01*
X293428Y171814D01*
X293399Y171843D01*
X293384Y171872D01*
X293370Y171879D01*
X293362Y171887D01*
X293282Y171959D01*
X293195Y172025D01*
X293100Y172076D01*
X293005Y172120D01*
X292815Y172193D01*
X292626Y172244D01*
X292546Y172258D01*
X292466Y172273D01*
X292393Y172280D01*
X292334Y172288D01*
X292283Y172295D01*
X292210D01*
X292079Y172288D01*
X291955Y172280D01*
X291839Y172258D01*
X291729Y172237D01*
X291627Y172207D01*
X291532Y172178D01*
X291445Y172142D01*
X291365Y172105D01*
X291292Y172069D01*
X291234Y172032D01*
X291182Y172003D01*
X291139Y171974D01*
X291102Y171952D01*
X291080Y171930D01*
X291066Y171923D01*
X291059Y171916D01*
X290986Y171843D01*
X290920Y171763D01*
X290855Y171675D01*
X290804Y171588D01*
X290716Y171413D01*
X290658Y171238D01*
X290636Y171158D01*
X290614Y171077D01*
X290599Y171012D01*
X290585Y170954D01*
X290578Y170903D01*
Y170866D01*
X290570Y170844D01*
Y170837D01*
X291204Y170771D01*
X291219Y170939D01*
X291248Y171085D01*
X291292Y171216D01*
X291343Y171318D01*
X291387Y171405D01*
X291430Y171464D01*
X291460Y171500D01*
X291474Y171515D01*
X291583Y171602D01*
X291700Y171668D01*
X291824Y171719D01*
X291933Y171748D01*
X292036Y171770D01*
X292123Y171777D01*
X292152Y171785D01*
X292196D01*
X292349Y171777D01*
X292488Y171748D01*
X292604Y171704D01*
X292706Y171661D01*
X292786Y171610D01*
X292837Y171573D01*
X292874Y171544D01*
X292888Y171529D01*
X292976Y171427D01*
X293041Y171325D01*
X293092Y171223D01*
X293122Y171121D01*
X293144Y171041D01*
X293151Y170968D01*
X293158Y170924D01*
Y170917D01*
Y170910D01*
X293144Y170779D01*
X293114Y170640D01*
X293063Y170516D01*
X293012Y170399D01*
X292954Y170305D01*
X292903Y170224D01*
X292888Y170195D01*
X292874Y170174D01*
X292859Y170166D01*
Y170159D01*
X292801Y170079D01*
X292728Y169999D01*
X292648Y169911D01*
X292560Y169824D01*
X292378Y169649D01*
X292196Y169474D01*
X292101Y169393D01*
X292021Y169320D01*
X291941Y169255D01*
X291875Y169197D01*
X291824Y169153D01*
X291780Y169116D01*
X291751Y169095D01*
X291744Y169087D01*
X291562Y168934D01*
X291394Y168788D01*
X291255Y168657D01*
X291146Y168548D01*
X291051Y168453D01*
X290986Y168387D01*
X290949Y168344D01*
X290935Y168336D01*
Y168329D01*
X290833Y168205D01*
X290752Y168088D01*
X290680Y167972D01*
X290621Y167870D01*
X290578Y167782D01*
X290548Y167717D01*
X290534Y167673D01*
X290527Y167666D01*
Y167658D01*
X290497Y167578D01*
X290483Y167505D01*
X290468Y167432D01*
X290461Y167367D01*
X290454Y167308D01*
Y167308D01*
Y167228D01*
X293800Y167228D01*
Y172295D01*
D02*
G37*
G36*
X300718D02*
X298859D01*
Y170429D01*
X298968Y170472D01*
X299078Y170523D01*
X299187Y170574D01*
X299289Y170625D01*
X299377Y170669D01*
X299449Y170706D01*
X299493Y170735D01*
X299500Y170742D01*
X299508D01*
X299639Y170822D01*
X299756Y170903D01*
X299858Y170975D01*
X299938Y171041D01*
X300011Y171092D01*
X300055Y171136D01*
X300091Y171165D01*
X300098Y171172D01*
Y167228D01*
X300718D01*
Y172295D01*
D02*
G37*
G36*
X304013D02*
X303947D01*
X303831Y172288D01*
X303714Y172280D01*
X303510Y172237D01*
X303415Y172207D01*
X303328Y172178D01*
X303247Y172142D01*
X303175Y172105D01*
X303116Y172069D01*
X303058Y172032D01*
X303007Y172003D01*
X302971Y171974D01*
X302941Y171952D01*
X302920Y171930D01*
X302905Y171923D01*
X302898Y171916D01*
X302832Y171843D01*
X302766Y171770D01*
X302715Y171690D01*
X302672Y171610D01*
X302599Y171457D01*
X302555Y171311D01*
X302526Y171187D01*
X302519Y171128D01*
X302511Y171085D01*
X302504Y171041D01*
Y171012D01*
Y170997D01*
Y170990D01*
X302511Y170859D01*
X302533Y170735D01*
X302562Y170625D01*
X302599Y170531D01*
X302628Y170458D01*
X302657Y170399D01*
X302679Y170370D01*
X302686Y170356D01*
X302766Y170268D01*
X302854Y170188D01*
X302949Y170115D01*
X303043Y170057D01*
X303131Y170013D01*
X303197Y169984D01*
X303226Y169969D01*
X303247Y169962D01*
X303255Y169955D01*
X303262D01*
X303094Y169904D01*
X302956Y169838D01*
X302832Y169758D01*
X302730Y169685D01*
X302650Y169612D01*
X302591Y169554D01*
X302562Y169517D01*
X302548Y169510D01*
Y169503D01*
X302467Y169372D01*
X302402Y169233D01*
X302358Y169102D01*
X302329Y168971D01*
X302314Y168854D01*
X302307Y168803D01*
Y168759D01*
X302300Y168730D01*
Y168679D01*
X302307Y168562D01*
X302322Y168446D01*
X302344Y168336D01*
X302373Y168227D01*
X302446Y168045D01*
X302482Y167957D01*
X302526Y167884D01*
X302570Y167812D01*
X302606Y167753D01*
X302650Y167702D01*
X302679Y167658D01*
X302708Y167622D01*
X302730Y167600D01*
X302745Y167586D01*
X302752Y167578D01*
X302839Y167498D01*
X302934Y167432D01*
X303036Y167374D01*
X303138Y167323D01*
X303233Y167287D01*
X303335Y167250D01*
X303532Y167199D01*
X303619Y167177D01*
X303699Y167163D01*
X303772Y167155D01*
X303838Y167148D01*
X303889Y167141D01*
X302300D01*
D01*
X305624D01*
D01*
X303962D01*
X304100Y167148D01*
X304224Y167163D01*
X304348Y167185D01*
X304465Y167206D01*
X304567Y167243D01*
X304669Y167279D01*
X304764Y167316D01*
X304844Y167359D01*
X304917Y167403D01*
X304982Y167440D01*
X305034Y167476D01*
X305085Y167513D01*
X305121Y167534D01*
X305143Y167556D01*
X305157Y167571D01*
X305165Y167578D01*
X305245Y167666D01*
X305318Y167753D01*
X305376Y167841D01*
X305427Y167935D01*
X305478Y168023D01*
X305515Y168118D01*
X305566Y168285D01*
X305588Y168366D01*
X305602Y168438D01*
X305609Y168504D01*
X305617Y168555D01*
X305624Y168599D01*
Y168664D01*
X305617Y168832D01*
X305588Y168985D01*
X305544Y169124D01*
X305500Y169240D01*
X305456Y169335D01*
X305413Y169408D01*
X305383Y169452D01*
X305376Y169459D01*
Y169466D01*
X305274Y169583D01*
X305165Y169685D01*
X305048Y169765D01*
X304939Y169838D01*
X304837Y169889D01*
X304749Y169926D01*
X304720Y169940D01*
X304698Y169948D01*
X304684Y169955D01*
X304676D01*
X304808Y170013D01*
X304917Y170079D01*
X305012Y170144D01*
X305092Y170210D01*
X305150Y170268D01*
X305194Y170312D01*
X305223Y170341D01*
X305230Y170356D01*
X305296Y170458D01*
X305340Y170560D01*
X305376Y170662D01*
X305398Y170764D01*
X305413Y170844D01*
X305420Y170910D01*
Y170954D01*
Y170961D01*
Y170968D01*
X305413Y171070D01*
X305405Y171165D01*
X305354Y171347D01*
X305289Y171508D01*
X305216Y171646D01*
X305143Y171755D01*
X305106Y171799D01*
X305077Y171843D01*
X305048Y171872D01*
X305026Y171894D01*
X305019Y171901D01*
X305012Y171908D01*
X304931Y171974D01*
X304851Y172040D01*
X304764Y172091D01*
X304676Y172134D01*
X304501Y172200D01*
X304326Y172244D01*
X304254Y172266D01*
X304181Y172273D01*
X304115Y172280D01*
X304057Y172288D01*
X304013Y172295D01*
D02*
G37*
G36*
X296176D02*
X296111D01*
X295914Y172280D01*
X295731Y172251D01*
X295578Y172200D01*
X295447Y172149D01*
X295338Y172091D01*
X295294Y172069D01*
X295258Y172040D01*
X295229Y172025D01*
X295207Y172011D01*
X295199Y171996D01*
X295192D01*
X295061Y171879D01*
X294952Y171741D01*
X294857Y171602D01*
X294784Y171471D01*
X294725Y171347D01*
X294696Y171296D01*
X294682Y171245D01*
X294667Y171209D01*
X294653Y171179D01*
X294645Y171165D01*
Y171158D01*
X294616Y171048D01*
X294587Y170939D01*
X294543Y170698D01*
X294507Y170458D01*
X294485Y170232D01*
X294478Y170122D01*
X294470Y170028D01*
Y169940D01*
X294463Y169860D01*
Y169714D01*
X294470Y169459D01*
X294485Y169219D01*
X294507Y169000D01*
X294543Y168796D01*
X294580Y168606D01*
X294623Y168438D01*
X294667Y168285D01*
X294711Y168154D01*
X294755Y168037D01*
X294806Y167935D01*
X294842Y167848D01*
X294879Y167782D01*
X294915Y167724D01*
X294937Y167688D01*
X294952Y167666D01*
X294959Y167658D01*
X295039Y167571D01*
X295126Y167491D01*
X295221Y167418D01*
X295316Y167359D01*
X295411Y167308D01*
X295505Y167265D01*
X295600Y167236D01*
X295688Y167206D01*
X295775Y167185D01*
X295855Y167170D01*
X295928Y167155D01*
X295987Y167148D01*
X296038Y167141D01*
X294463D01*
X296111D01*
X296307Y167155D01*
X296490Y167185D01*
X296643Y167236D01*
X296774Y167287D01*
X296883Y167338D01*
X296920Y167367D01*
X296956Y167389D01*
X296985Y167403D01*
X297007Y167418D01*
X297015Y167432D01*
X297022D01*
X297153Y167556D01*
X297262Y167688D01*
X297357Y167833D01*
X297430Y167965D01*
X297488Y168088D01*
X297518Y168140D01*
X297532Y168191D01*
X297547Y168227D01*
X297561Y168256D01*
X297569Y168271D01*
Y168278D01*
X297605Y168387D01*
X297634Y168497D01*
X297678Y168730D01*
X297714Y168971D01*
X297736Y169204D01*
X297744Y169306D01*
X297751Y169401D01*
Y169488D01*
X297758Y169568D01*
Y169853D01*
X297751Y169984D01*
Y170101D01*
X297744Y170217D01*
X297729Y170319D01*
X297722Y170421D01*
X297714Y170509D01*
X297700Y170589D01*
X297692Y170662D01*
X297678Y170728D01*
X297671Y170779D01*
X297663Y170822D01*
X297656Y170859D01*
X297649Y170881D01*
X297641Y170895D01*
Y170903D01*
X297598Y171063D01*
X297547Y171209D01*
X297488Y171333D01*
X297445Y171442D01*
X297394Y171537D01*
X297364Y171602D01*
X297335Y171639D01*
X297328Y171653D01*
X297248Y171763D01*
X297168Y171858D01*
X297080Y171938D01*
X297000Y172011D01*
X296927Y172062D01*
X296869Y172098D01*
X296832Y172120D01*
X296825Y172127D01*
X296818D01*
X296701Y172186D01*
X296577Y172222D01*
X296461Y172251D01*
X296351Y172273D01*
X296256Y172288D01*
X296176Y172295D01*
D02*
G37*
G36*
X291646Y164659D02*
X291026D01*
X290238Y162523D01*
X290180Y162370D01*
X290136Y162224D01*
X290085Y162079D01*
X290049Y161955D01*
X290020Y161845D01*
X290005Y161802D01*
X289998Y161765D01*
X289991Y161736D01*
X289983Y161714D01*
X289976Y161700D01*
Y161692D01*
X289932Y161860D01*
X289889Y162013D01*
X289845Y162159D01*
X289801Y162283D01*
X289765Y162385D01*
X289750Y162429D01*
X289736Y162465D01*
X289728Y162502D01*
X289721Y162523D01*
X289714Y162531D01*
Y162538D01*
X288948Y164659D01*
X288292D01*
X289677Y161000D01*
X289648Y160934D01*
X289633Y160883D01*
X289619Y160854D01*
Y160847D01*
X289575Y160723D01*
X289531Y160621D01*
X289502Y160533D01*
X289473Y160475D01*
X289458Y160431D01*
X289444Y160402D01*
X289429Y160387D01*
Y160380D01*
X289371Y160300D01*
X289305Y160242D01*
X289276Y160220D01*
X289254Y160205D01*
X289240Y160190D01*
X289232D01*
X289181Y160169D01*
X289130Y160147D01*
X289021Y160125D01*
X288977D01*
X288941Y160118D01*
X288904D01*
X288788Y160125D01*
X288671Y160147D01*
X288627Y160161D01*
X288591Y160169D01*
X288562Y160176D01*
X288555D01*
X288620Y159600D01*
X288700Y159571D01*
X288773Y159556D01*
X288839Y159542D01*
X288897Y159527D01*
X288948D01*
X288985Y159520D01*
X288292D01*
X291646D01*
X289014D01*
X289123Y159527D01*
X289218Y159542D01*
X289305Y159564D01*
X289378Y159593D01*
X289444Y159622D01*
X289488Y159644D01*
X289517Y159658D01*
X289524Y159666D01*
X289604Y159724D01*
X289670Y159797D01*
X289736Y159870D01*
X289794Y159943D01*
X289838Y160008D01*
X289874Y160059D01*
X289896Y160096D01*
X289903Y160110D01*
X289925Y160161D01*
X289954Y160212D01*
X290013Y160336D01*
X290071Y160475D01*
X290122Y160613D01*
X290173Y160737D01*
X290195Y160796D01*
X290217Y160847D01*
X290231Y160883D01*
X290246Y160912D01*
X290253Y160934D01*
Y160941D01*
X291646Y164659D01*
D02*
G37*
G36*
X309652Y166044D02*
X309032D01*
Y161000D01*
X312065D01*
D01*
X310519Y163296D01*
X311926Y164659D01*
X311117D01*
X309652Y163165D01*
Y166044D01*
D02*
G37*
G36*
X306736Y164740D02*
X306656D01*
X306481Y164732D01*
X306328Y164718D01*
X306182Y164696D01*
X306065Y164674D01*
X305963Y164652D01*
X305890Y164630D01*
X305861Y164623D01*
X305839Y164616D01*
X305832Y164608D01*
X305824D01*
X305701Y164557D01*
X305591Y164492D01*
X305497Y164433D01*
X305416Y164375D01*
X305358Y164317D01*
X305314Y164273D01*
X305285Y164244D01*
X305278Y164236D01*
X305212Y164142D01*
X305154Y164040D01*
X305110Y163938D01*
X305074Y163843D01*
X305045Y163748D01*
X305023Y163682D01*
X305015Y163653D01*
Y163631D01*
X305008Y163624D01*
Y163617D01*
X305613Y163537D01*
X305657Y163668D01*
X305701Y163785D01*
X305752Y163879D01*
X305795Y163952D01*
X305839Y164011D01*
X305875Y164047D01*
X305905Y164069D01*
X305912Y164076D01*
X305999Y164127D01*
X306101Y164164D01*
X306211Y164193D01*
X306313Y164207D01*
X306415Y164222D01*
X306488Y164229D01*
X306561D01*
X306729Y164222D01*
X306874Y164200D01*
X306991Y164164D01*
X307093Y164127D01*
X307166Y164083D01*
X307224Y164054D01*
X307261Y164025D01*
X307268Y164018D01*
X307326Y163952D01*
X307370Y163872D01*
X307406Y163785D01*
X307428Y163697D01*
X307443Y163617D01*
X307450Y163544D01*
Y163500D01*
Y163493D01*
Y163486D01*
Y163471D01*
Y163442D01*
Y163391D01*
X307443Y163347D01*
Y163332D01*
Y163325D01*
X307370Y163303D01*
X307290Y163282D01*
X307122Y163238D01*
X306933Y163201D01*
X306758Y163165D01*
X306670Y163150D01*
X306590Y163143D01*
X306517Y163128D01*
X306459Y163121D01*
X306408Y163114D01*
X306371D01*
X306342Y163107D01*
X306335D01*
X306204Y163092D01*
X306094Y163070D01*
X305999Y163056D01*
X305927Y163041D01*
X305868Y163034D01*
X305824Y163019D01*
X305795Y163012D01*
X305788D01*
X305693Y162983D01*
X305613Y162953D01*
X305533Y162917D01*
X305467Y162888D01*
X305409Y162859D01*
X305373Y162829D01*
X305343Y162815D01*
X305336Y162808D01*
X305263Y162757D01*
X305205Y162698D01*
X305147Y162640D01*
X305103Y162582D01*
X305066Y162531D01*
X305037Y162487D01*
X305023Y162458D01*
X305015Y162450D01*
X304979Y162370D01*
X304950Y162283D01*
X304928Y162203D01*
X304913Y162122D01*
X304906Y162057D01*
X304899Y162006D01*
Y160919D01*
X308267D01*
D01*
X306145D01*
X306276Y160927D01*
X306408Y160941D01*
X306524Y160956D01*
X306626Y160978D01*
X306707Y161000D01*
X306772Y161022D01*
X306816Y161029D01*
X306831Y161036D01*
X306955Y161087D01*
X307071Y161153D01*
X307181Y161226D01*
X307290Y161291D01*
X307377Y161357D01*
X307443Y161408D01*
X307487Y161444D01*
X307494Y161459D01*
X307501D01*
X307516Y161364D01*
X307530Y161277D01*
X307545Y161197D01*
X307567Y161131D01*
X307589Y161073D01*
X307603Y161036D01*
X307611Y161007D01*
X307618Y161000D01*
X308267D01*
D01*
X308230Y161080D01*
X308194Y161160D01*
X308165Y161233D01*
X308150Y161299D01*
X308128Y161357D01*
X308121Y161401D01*
X308114Y161430D01*
Y161437D01*
X308106Y161488D01*
X308099Y161554D01*
Y161627D01*
X308092Y161707D01*
X308084Y161889D01*
Y162071D01*
X308077Y162246D01*
Y162327D01*
Y162392D01*
Y162450D01*
Y162494D01*
Y162523D01*
Y162531D01*
Y163362D01*
Y163500D01*
X308070Y163624D01*
X308063Y163719D01*
Y163799D01*
X308055Y163857D01*
X308048Y163901D01*
X308041Y163923D01*
Y163930D01*
X308019Y164025D01*
X307990Y164105D01*
X307961Y164171D01*
X307924Y164236D01*
X307895Y164280D01*
X307873Y164317D01*
X307858Y164339D01*
X307851Y164346D01*
X307793Y164404D01*
X307727Y164462D01*
X307654Y164506D01*
X307581Y164550D01*
X307516Y164579D01*
X307465Y164601D01*
X307428Y164616D01*
X307414Y164623D01*
X307297Y164659D01*
X307173Y164689D01*
X307049Y164710D01*
X306925Y164725D01*
X306816Y164732D01*
X306736Y164740D01*
D02*
G37*
G36*
X304148Y166044D02*
X303528D01*
Y161000D01*
X304148D01*
Y166044D01*
D02*
G37*
G36*
X287811Y166044D02*
X283998D01*
Y161000D01*
X287811D01*
X285923D01*
X286098Y161007D01*
X286251Y161014D01*
X286389Y161029D01*
X286506Y161044D01*
X286601Y161058D01*
X286674Y161065D01*
X286717Y161080D01*
X286732D01*
X286856Y161116D01*
X286958Y161153D01*
X287053Y161197D01*
X287133Y161240D01*
X287199Y161269D01*
X287250Y161299D01*
X287279Y161320D01*
X287286Y161328D01*
X287366Y161393D01*
X287439Y161474D01*
X287497Y161554D01*
X287556Y161627D01*
X287599Y161700D01*
X287629Y161751D01*
X287650Y161787D01*
X287658Y161802D01*
X287709Y161918D01*
X287745Y162035D01*
X287774Y162144D01*
X287789Y162246D01*
X287804Y162334D01*
X287811Y162407D01*
Y162472D01*
Y162465D01*
X287804Y162625D01*
X287774Y162771D01*
X287731Y162895D01*
X287687Y163012D01*
X287643Y163099D01*
X287599Y163165D01*
X287570Y163209D01*
X287563Y163223D01*
X287461Y163340D01*
X287352Y163435D01*
X287228Y163515D01*
X287118Y163580D01*
X287016Y163631D01*
X286929Y163661D01*
X286900Y163675D01*
X286878Y163682D01*
X286863Y163690D01*
X286856D01*
X286980Y163763D01*
X287089Y163836D01*
X287177Y163916D01*
X287250Y163989D01*
X287308Y164047D01*
X287352Y164105D01*
X287373Y164134D01*
X287381Y164149D01*
X287439Y164258D01*
X287483Y164360D01*
X287519Y164462D01*
X287541Y164557D01*
X287556Y164637D01*
X287563Y164703D01*
Y164740D01*
Y164754D01*
X287556Y164878D01*
X287534Y165002D01*
X287497Y165111D01*
X287461Y165213D01*
X287424Y165301D01*
X287388Y165359D01*
X287366Y165403D01*
X287359Y165418D01*
X287279Y165527D01*
X287191Y165629D01*
X287097Y165709D01*
X287009Y165775D01*
X286936Y165826D01*
X286871Y165862D01*
X286827Y165884D01*
X286820Y165891D01*
X286812D01*
X286674Y165942D01*
X286521Y165979D01*
X286368Y166008D01*
X286222Y166023D01*
X286090Y166037D01*
X286032D01*
X285981Y166044D01*
X287811D01*
D02*
G37*
G36*
X300226Y166044D02*
X299606D01*
Y160919D01*
X302777D01*
D01*
X301195D01*
X301312Y160927D01*
X301429Y160941D01*
X301538Y160963D01*
X301640Y161000D01*
X301837Y161080D01*
X301917Y161131D01*
X301997Y161175D01*
X302070Y161226D01*
X302129Y161269D01*
X302180Y161313D01*
X302231Y161350D01*
X302267Y161386D01*
X302289Y161408D01*
X302303Y161423D01*
X302311Y161430D01*
X302391Y161532D01*
X302464Y161641D01*
X302529Y161751D01*
X302580Y161874D01*
X302624Y161991D01*
X302661Y162115D01*
X302719Y162348D01*
X302741Y162458D01*
X302755Y162560D01*
X302763Y162647D01*
X302770Y162727D01*
X302777Y162793D01*
Y162881D01*
X302770Y163026D01*
X302763Y163165D01*
X302741Y163289D01*
X302719Y163398D01*
X302697Y163493D01*
X302682Y163566D01*
X302675Y163588D01*
X302668Y163610D01*
X302661Y163617D01*
Y163624D01*
X302617Y163748D01*
X302566Y163865D01*
X302515Y163967D01*
X302464Y164054D01*
X302420Y164120D01*
X302384Y164171D01*
X302362Y164207D01*
X302355Y164215D01*
X302282Y164302D01*
X302194Y164382D01*
X302114Y164448D01*
X302034Y164499D01*
X301968Y164543D01*
X301910Y164579D01*
X301873Y164594D01*
X301859Y164601D01*
X301749Y164645D01*
X301633Y164681D01*
X301523Y164703D01*
X301429Y164725D01*
X301348Y164732D01*
X301283Y164740D01*
X301224D01*
X301115Y164732D01*
X301006Y164718D01*
X300904Y164696D01*
X300809Y164659D01*
X300641Y164586D01*
X300496Y164492D01*
X300437Y164448D01*
X300379Y164404D01*
X300335Y164360D01*
X300299Y164324D01*
X300262Y164287D01*
X300240Y164266D01*
X300233Y164251D01*
X300226Y164244D01*
Y166044D01*
D02*
G37*
G36*
X298841Y160912D02*
X296428D01*
X298841D01*
D01*
D02*
G37*
G36*
X296493Y166132D02*
X294015D01*
Y160912D01*
D01*
Y163449D01*
X294029Y163201D01*
X294058Y162975D01*
X294102Y162757D01*
X294131Y162662D01*
X294161Y162567D01*
X294182Y162487D01*
X294212Y162414D01*
X294233Y162348D01*
X294255Y162290D01*
X294270Y162246D01*
X294284Y162217D01*
X294299Y162195D01*
Y162188D01*
X294423Y161977D01*
X294554Y161794D01*
X294700Y161634D01*
X294839Y161503D01*
X294962Y161393D01*
X295013Y161350D01*
X295057Y161320D01*
X295101Y161291D01*
X295130Y161269D01*
X295145Y161262D01*
X295152Y161255D01*
X295261Y161197D01*
X295371Y161145D01*
X295589Y161058D01*
X295801Y161000D01*
X295998Y160956D01*
X296092Y160941D01*
X296173Y160934D01*
X296245Y160919D01*
X296311D01*
X296355Y160912D01*
X294015D01*
X296428D01*
X296668Y160927D01*
X296894Y160963D01*
X297106Y161007D01*
X297200Y161036D01*
X297288Y161065D01*
X297368Y161094D01*
X297441Y161124D01*
X297499Y161145D01*
X297550Y161167D01*
X297594Y161189D01*
X297631Y161204D01*
X297645Y161218D01*
X297652D01*
X297856Y161350D01*
X298031Y161495D01*
X298177Y161648D01*
X298301Y161794D01*
X298403Y161933D01*
X298440Y161984D01*
X298469Y162035D01*
X298498Y162079D01*
X298513Y162108D01*
X298527Y162130D01*
Y162137D01*
X298586Y162254D01*
X298629Y162370D01*
X298710Y162603D01*
X298768Y162837D01*
X298804Y163048D01*
X298812Y163143D01*
X298826Y163231D01*
X298833Y163311D01*
Y163376D01*
X298841Y163435D01*
Y163507D01*
X298826Y163785D01*
X298797Y164040D01*
X298775Y164156D01*
X298746Y164273D01*
X298717Y164375D01*
X298695Y164470D01*
X298666Y164557D01*
X298637Y164637D01*
X298615Y164703D01*
X298586Y164761D01*
X298571Y164805D01*
X298556Y164834D01*
X298542Y164856D01*
Y164863D01*
X298425Y165075D01*
X298287Y165264D01*
X298141Y165425D01*
X298010Y165556D01*
X297886Y165658D01*
X297827Y165702D01*
X297784Y165738D01*
X297740Y165760D01*
X297711Y165782D01*
X297696Y165789D01*
X297689Y165797D01*
X297580Y165855D01*
X297470Y165906D01*
X297259Y165993D01*
X297040Y166052D01*
X296850Y166088D01*
X296763Y166103D01*
X296676Y166117D01*
X296610Y166125D01*
X296544D01*
X296493Y166132D01*
D02*
G37*
%LPD*%
G36*
X310344Y178028D02*
X310417Y178020D01*
X310548Y177984D01*
X310665Y177926D01*
X310767Y177860D01*
X310847Y177794D01*
X310906Y177743D01*
X310942Y177700D01*
X310957Y177692D01*
Y177685D01*
X311008Y177620D01*
X311051Y177539D01*
X311124Y177372D01*
X311175Y177204D01*
X311212Y177036D01*
X311234Y176883D01*
X311241Y176818D01*
Y176759D01*
X311248Y176708D01*
Y176672D01*
Y176650D01*
Y176643D01*
Y176511D01*
X311234Y176388D01*
X311219Y176271D01*
X311205Y176162D01*
X311183Y176067D01*
X311154Y175979D01*
X311124Y175892D01*
X311103Y175826D01*
X311073Y175760D01*
X311044Y175709D01*
X311022Y175659D01*
X310993Y175622D01*
X310979Y175593D01*
X310964Y175571D01*
X310949Y175564D01*
Y175556D01*
X310891Y175498D01*
X310833Y175447D01*
X310716Y175360D01*
X310599Y175301D01*
X310490Y175258D01*
X310388Y175236D01*
X310315Y175221D01*
X310286Y175214D01*
X310242D01*
X310169Y175221D01*
X310097Y175228D01*
X309965Y175265D01*
X309849Y175323D01*
X309747Y175381D01*
X309666Y175440D01*
X309608Y175498D01*
X309572Y175534D01*
X309557Y175549D01*
X309506Y175615D01*
X309462Y175688D01*
X309389Y175855D01*
X309346Y176023D01*
X309309Y176198D01*
X309287Y176351D01*
X309280Y176417D01*
Y176475D01*
X309273Y176526D01*
Y176562D01*
Y176584D01*
Y176592D01*
Y176723D01*
X309287Y176839D01*
X309302Y176949D01*
X309316Y177058D01*
X309346Y177153D01*
X309367Y177240D01*
X309397Y177321D01*
X309426Y177393D01*
X309448Y177452D01*
X309477Y177510D01*
X309506Y177554D01*
X309528Y177598D01*
X309542Y177627D01*
X309557Y177649D01*
X309572Y177656D01*
Y177663D01*
X309630Y177729D01*
X309688Y177787D01*
X309747Y177838D01*
X309812Y177882D01*
X309929Y177947D01*
X310038Y177991D01*
X310133Y178013D01*
X310206Y178028D01*
X310235Y178035D01*
X310271D01*
X310344Y178028D01*
D02*
G37*
G36*
X290669Y176388D02*
X290661Y176242D01*
X290654Y176118D01*
X290639Y176016D01*
X290618Y175928D01*
X290596Y175863D01*
X290581Y175812D01*
X290574Y175782D01*
X290566Y175775D01*
X290508Y175680D01*
X290450Y175593D01*
X290377Y175520D01*
X290311Y175462D01*
X290253Y175411D01*
X290202Y175374D01*
X290173Y175352D01*
X290158Y175345D01*
X290049Y175294D01*
X289940Y175258D01*
X289838Y175228D01*
X289736Y175214D01*
X289655Y175199D01*
X289582Y175192D01*
X289524D01*
X289393Y175199D01*
X289283Y175214D01*
X289189Y175243D01*
X289108Y175272D01*
X289050Y175301D01*
X289006Y175330D01*
X288977Y175345D01*
X288970Y175352D01*
X288912Y175418D01*
X288868Y175491D01*
X288831Y175556D01*
X288810Y175622D01*
X288795Y175680D01*
X288788Y175724D01*
Y175760D01*
Y175768D01*
X288795Y175826D01*
X288802Y175884D01*
X288817Y175928D01*
X288831Y175972D01*
X288846Y176008D01*
X288853Y176038D01*
X288868Y176052D01*
Y176059D01*
X288941Y176147D01*
X289028Y176205D01*
X289057Y176227D01*
X289087Y176242D01*
X289108Y176256D01*
X289116D01*
X289189Y176285D01*
X289269Y176307D01*
X289356Y176329D01*
X289444Y176344D01*
X289524Y176358D01*
X289597Y176373D01*
X289641Y176380D01*
X289655D01*
X289779Y176402D01*
X289896Y176417D01*
X289998Y176438D01*
X290100Y176460D01*
X290195Y176482D01*
X290275Y176504D01*
X290355Y176519D01*
X290421Y176541D01*
X290479Y176555D01*
X290530Y176570D01*
X290574Y176584D01*
X290610Y176599D01*
X290639Y176606D01*
X290661Y176613D01*
X290669Y176621D01*
X290676D01*
X290669Y176388D01*
D02*
G37*
G36*
X288132Y175659D02*
X288139Y175586D01*
X288175Y175433D01*
X288227Y175309D01*
X288285Y175199D01*
X288343Y175112D01*
X288394Y175046D01*
X288431Y175010D01*
X288445Y174995D01*
X288576Y174900D01*
X288722Y174827D01*
X288882Y174776D01*
X289028Y174740D01*
X289160Y174718D01*
X289218Y174711D01*
X289269D01*
X289313Y174704D01*
X288124D01*
Y175746D01*
X288132Y175659D01*
D02*
G37*
G36*
X284953Y174696D02*
X282978D01*
X283240Y174711D01*
X283357Y174725D01*
X283466Y174740D01*
X283575Y174762D01*
X283670Y174784D01*
X283758Y174805D01*
X283838Y174835D01*
X283911Y174864D01*
X283969Y174886D01*
X284027Y174908D01*
X284071Y174929D01*
X284108Y174951D01*
X284130Y174959D01*
X284144Y174973D01*
X284151D01*
X284312Y175083D01*
X284443Y175206D01*
X284545Y175323D01*
X284632Y175440D01*
X284698Y175542D01*
X284742Y175622D01*
X284756Y175651D01*
X284771Y175673D01*
X284778Y175688D01*
Y175695D01*
X284807Y175782D01*
X284837Y175877D01*
X284880Y176074D01*
X284910Y176278D01*
X284931Y176475D01*
X284939Y176562D01*
X284946Y176650D01*
Y176723D01*
X284953Y176788D01*
Y174696D01*
D02*
G37*
G36*
X280995Y176628D02*
X281002Y176497D01*
X281017Y176373D01*
X281031Y176263D01*
X281046Y176162D01*
X281068Y176067D01*
X281082Y175979D01*
X281097Y175899D01*
X281119Y175833D01*
X281133Y175775D01*
X281148Y175731D01*
X281162Y175695D01*
X281170Y175666D01*
X281177Y175651D01*
Y175644D01*
X281257Y175484D01*
X281359Y175338D01*
X281461Y175221D01*
X281571Y175119D01*
X281665Y175039D01*
X281746Y174980D01*
X281775Y174966D01*
X281797Y174951D01*
X281811Y174937D01*
X281819D01*
X282001Y174857D01*
X282190Y174798D01*
X282387Y174755D01*
X282569Y174725D01*
X282650Y174718D01*
X282730Y174711D01*
X282803Y174704D01*
X282861D01*
X282912Y174696D01*
X280988D01*
Y176767D01*
X280995Y176628D01*
D02*
G37*
G36*
X316533Y176388D02*
X316526Y176242D01*
X316519Y176118D01*
X316504Y176016D01*
X316482Y175928D01*
X316461Y175863D01*
X316446Y175812D01*
X316439Y175782D01*
X316431Y175775D01*
X316373Y175680D01*
X316315Y175593D01*
X316242Y175520D01*
X316176Y175462D01*
X316118Y175411D01*
X316067Y175374D01*
X316038Y175352D01*
X316023Y175345D01*
X315914Y175294D01*
X315805Y175258D01*
X315703Y175228D01*
X315600Y175214D01*
X315520Y175199D01*
X315447Y175192D01*
X315389D01*
X315258Y175199D01*
X315148Y175214D01*
X315054Y175243D01*
X314973Y175272D01*
X314915Y175301D01*
X314871Y175330D01*
X314842Y175345D01*
X314835Y175352D01*
X314777Y175418D01*
X314733Y175491D01*
X314696Y175556D01*
X314675Y175622D01*
X314660Y175680D01*
X314653Y175724D01*
Y175760D01*
Y175768D01*
X314660Y175826D01*
X314667Y175884D01*
X314682Y175928D01*
X314696Y175972D01*
X314711Y176008D01*
X314718Y176038D01*
X314733Y176052D01*
Y176059D01*
X314806Y176147D01*
X314893Y176205D01*
X314922Y176227D01*
X314952Y176242D01*
X314973Y176256D01*
X314981D01*
X315054Y176285D01*
X315134Y176307D01*
X315221Y176329D01*
X315309Y176344D01*
X315389Y176358D01*
X315462Y176373D01*
X315506Y176380D01*
X315520D01*
X315644Y176402D01*
X315761Y176417D01*
X315863Y176438D01*
X315965Y176460D01*
X316060Y176482D01*
X316140Y176504D01*
X316220Y176519D01*
X316286Y176541D01*
X316344Y176555D01*
X316395Y176570D01*
X316439Y176584D01*
X316475Y176599D01*
X316504Y176606D01*
X316526Y176613D01*
X316533Y176621D01*
X316541D01*
X316533Y176388D01*
D02*
G37*
G36*
X300539Y179223D02*
X300634D01*
X300722Y179216D01*
X300867Y179194D01*
X300984Y179180D01*
X301079Y179158D01*
X301144Y179136D01*
X301181Y179129D01*
X301195Y179121D01*
X301327Y179056D01*
X301450Y178975D01*
X301560Y178881D01*
X301655Y178786D01*
X301728Y178698D01*
X301786Y178626D01*
X301800Y178596D01*
X301815Y178575D01*
X301830Y178560D01*
Y178553D01*
X301873Y178472D01*
X301917Y178378D01*
X301983Y178188D01*
X302026Y177984D01*
X302063Y177787D01*
X302070Y177700D01*
X302077Y177612D01*
X302085Y177539D01*
Y177474D01*
X302092Y177415D01*
Y177379D01*
Y177350D01*
Y177342D01*
X302085Y177138D01*
X302070Y176949D01*
X302048Y176781D01*
X302026Y176635D01*
X302012Y176577D01*
X301997Y176526D01*
X301983Y176475D01*
X301975Y176438D01*
X301968Y176409D01*
X301961Y176388D01*
X301954Y176373D01*
Y176366D01*
X301903Y176227D01*
X301844Y176103D01*
X301779Y175994D01*
X301720Y175899D01*
X301669Y175826D01*
X301625Y175775D01*
X301596Y175746D01*
X301589Y175731D01*
X301516Y175673D01*
X301443Y175622D01*
X301370Y175578D01*
X301297Y175534D01*
X301232Y175505D01*
X301181Y175484D01*
X301144Y175476D01*
X301130Y175469D01*
X301020Y175440D01*
X300889Y175418D01*
X300758Y175403D01*
X300634Y175396D01*
X300525Y175389D01*
X300474Y175381D01*
X299278D01*
Y179231D01*
X300445D01*
X300539Y179223D01*
D02*
G37*
G36*
X275863Y179223D02*
X275957D01*
X276045Y179216D01*
X276191Y179194D01*
X276307Y179180D01*
X276402Y179158D01*
X276468Y179136D01*
X276504Y179129D01*
X276519Y179121D01*
X276650Y179056D01*
X276774Y178975D01*
X276883Y178881D01*
X276978Y178786D01*
X277051Y178698D01*
X277109Y178626D01*
X277124Y178596D01*
X277138Y178575D01*
X277153Y178560D01*
Y178553D01*
X277197Y178472D01*
X277240Y178378D01*
X277306Y178188D01*
X277350Y177984D01*
X277386Y177787D01*
X277394Y177700D01*
X277401Y177612D01*
X277408Y177539D01*
Y177474D01*
X277415Y177415D01*
Y177379D01*
Y177350D01*
Y177342D01*
X277408Y177138D01*
X277394Y176949D01*
X277372Y176781D01*
X277350Y176635D01*
X277335Y176577D01*
X277321Y176526D01*
X277306Y176475D01*
X277299Y176438D01*
X277291Y176409D01*
X277284Y176388D01*
X277277Y176373D01*
Y176366D01*
X277226Y176227D01*
X277168Y176103D01*
X277102Y175994D01*
X277044Y175899D01*
X276993Y175826D01*
X276949Y175775D01*
X276920Y175746D01*
X276912Y175731D01*
X276839Y175673D01*
X276767Y175622D01*
X276694Y175578D01*
X276621Y175534D01*
X276555Y175505D01*
X276504Y175484D01*
X276468Y175476D01*
X276453Y175469D01*
X276344Y175440D01*
X276213Y175418D01*
X276081Y175403D01*
X275957Y175396D01*
X275848Y175389D01*
X275797Y175381D01*
X274601D01*
Y179231D01*
X275768D01*
X275863Y179223D01*
D02*
G37*
G36*
X325158Y179333D02*
X325238Y179325D01*
X325311Y179304D01*
X325376Y179274D01*
X325500Y179209D01*
X325610Y179136D01*
X325690Y179056D01*
X325755Y178990D01*
X325777Y178961D01*
X325792Y178939D01*
X325806Y178932D01*
Y178924D01*
X325857Y178837D01*
X325901Y178735D01*
X325945Y178618D01*
X325974Y178494D01*
X326003Y178363D01*
X326025Y178225D01*
X326062Y177947D01*
X326076Y177809D01*
X326083Y177685D01*
X326091Y177568D01*
Y177474D01*
X326098Y177386D01*
Y177321D01*
Y177284D01*
Y177277D01*
Y177270D01*
Y177044D01*
X326083Y176839D01*
X326069Y176657D01*
X326054Y176482D01*
X326032Y176336D01*
X326003Y176198D01*
X325974Y176081D01*
X325952Y175972D01*
X325923Y175884D01*
X325894Y175812D01*
X325872Y175746D01*
X325843Y175695D01*
X325828Y175659D01*
X325814Y175637D01*
X325799Y175622D01*
Y175615D01*
X325741Y175542D01*
X325682Y175484D01*
X325624Y175425D01*
X325566Y175381D01*
X325442Y175309D01*
X325332Y175258D01*
X325231Y175228D01*
X325158Y175214D01*
X325128Y175206D01*
X325085D01*
X325005Y175214D01*
X324932Y175221D01*
X324793Y175272D01*
X324669Y175338D01*
X324560Y175411D01*
X324480Y175484D01*
X324414Y175549D01*
X324378Y175600D01*
X324363Y175607D01*
Y175615D01*
X324312Y175702D01*
X324268Y175804D01*
X324224Y175921D01*
X324195Y176045D01*
X324166Y176176D01*
X324144Y176315D01*
X324108Y176599D01*
X324093Y176730D01*
X324086Y176854D01*
X324079Y176971D01*
Y177065D01*
X324071Y177153D01*
Y177218D01*
Y177255D01*
Y177270D01*
X324079Y177496D01*
X324086Y177700D01*
X324100Y177889D01*
X324122Y178064D01*
X324144Y178217D01*
X324173Y178356D01*
X324203Y178480D01*
X324232Y178589D01*
X324261Y178684D01*
X324283Y178764D01*
X324312Y178830D01*
X324334Y178888D01*
X324356Y178924D01*
X324370Y178954D01*
X324385Y178968D01*
Y178975D01*
X324436Y179041D01*
X324487Y179099D01*
X324545Y179143D01*
X324604Y179187D01*
X324720Y179252D01*
X324830Y179296D01*
X324924Y179318D01*
X325005Y179333D01*
X325034Y179340D01*
X325077D01*
X325158Y179333D01*
D02*
G37*
G36*
X300244Y172171D02*
X300164Y172054D01*
X300069Y171938D01*
X299982Y171836D01*
X299894Y171748D01*
X299829Y171675D01*
X299799Y171653D01*
X299778Y171632D01*
X299770Y171624D01*
X299763Y171617D01*
X299610Y171493D01*
X299457Y171376D01*
X299311Y171274D01*
X299165Y171194D01*
X299041Y171121D01*
X298990Y171092D01*
X298946Y171070D01*
X298910Y171048D01*
X298881Y171041D01*
X298866Y171026D01*
X298859D01*
Y172295D01*
X300317D01*
X300244Y172171D01*
D02*
G37*
G36*
X304086Y171777D02*
X304203Y171748D01*
X304297Y171712D01*
X304385Y171668D01*
X304450Y171624D01*
X304501Y171588D01*
X304538Y171559D01*
X304545Y171551D01*
X304625Y171457D01*
X304684Y171362D01*
X304727Y171267D01*
X304756Y171179D01*
X304771Y171099D01*
X304786Y171034D01*
Y170990D01*
Y170983D01*
Y170975D01*
X304778Y170859D01*
X304749Y170749D01*
X304713Y170655D01*
X304669Y170574D01*
X304625Y170509D01*
X304589Y170465D01*
X304560Y170429D01*
X304552Y170421D01*
X304465Y170348D01*
X304363Y170290D01*
X304268Y170254D01*
X304173Y170224D01*
X304086Y170210D01*
X304020Y170203D01*
X303976Y170195D01*
X303962D01*
X303831Y170203D01*
X303714Y170232D01*
X303612Y170268D01*
X303524Y170312D01*
X303459Y170348D01*
X303408Y170385D01*
X303371Y170414D01*
X303364Y170421D01*
X303291Y170509D01*
X303233Y170611D01*
X303197Y170706D01*
X303167Y170800D01*
X303153Y170881D01*
X303145Y170946D01*
X303138Y170990D01*
Y170997D01*
Y171004D01*
X303145Y171121D01*
X303175Y171223D01*
X303211Y171318D01*
X303255Y171398D01*
X303291Y171464D01*
X303328Y171515D01*
X303357Y171544D01*
X303364Y171551D01*
X303459Y171632D01*
X303554Y171690D01*
X303656Y171726D01*
X303750Y171755D01*
X303838Y171770D01*
X303904Y171785D01*
X303962D01*
X304086Y171777D01*
D02*
G37*
G36*
X304100Y169678D02*
X304246Y169649D01*
X304377Y169598D01*
X304487Y169546D01*
X304574Y169488D01*
X304640Y169437D01*
X304676Y169408D01*
X304691Y169393D01*
X304793Y169277D01*
X304866Y169153D01*
X304917Y169029D01*
X304953Y168920D01*
X304975Y168810D01*
X304982Y168730D01*
X304990Y168701D01*
Y168679D01*
Y168664D01*
Y168657D01*
X304975Y168504D01*
X304946Y168358D01*
X304895Y168234D01*
X304844Y168132D01*
X304793Y168052D01*
X304742Y167987D01*
X304713Y167950D01*
X304698Y167935D01*
X304582Y167841D01*
X304465Y167768D01*
X304341Y167724D01*
X304224Y167688D01*
X304122Y167666D01*
X304035Y167658D01*
X304006Y167651D01*
X303962D01*
X303860Y167658D01*
X303758Y167673D01*
X303663Y167695D01*
X303583Y167717D01*
X303517Y167739D01*
X303466Y167761D01*
X303437Y167775D01*
X303422Y167782D01*
X303335Y167841D01*
X303262Y167899D01*
X303197Y167965D01*
X303145Y168030D01*
X303102Y168081D01*
X303073Y168125D01*
X303058Y168161D01*
X303051Y168169D01*
X303014Y168263D01*
X302985Y168351D01*
X302963Y168438D01*
X302949Y168519D01*
X302941Y168584D01*
X302934Y168635D01*
Y168664D01*
Y168679D01*
X302949Y168832D01*
X302978Y168971D01*
X303022Y169095D01*
X303080Y169204D01*
X303131Y169284D01*
X303175Y169350D01*
X303204Y169386D01*
X303218Y169401D01*
X303328Y169495D01*
X303452Y169568D01*
X303568Y169619D01*
X303685Y169656D01*
X303787Y169678D01*
X303867Y169685D01*
X303896Y169692D01*
X303940D01*
X304100Y169678D01*
D02*
G37*
G36*
X296183Y171777D02*
X296264Y171770D01*
X296337Y171748D01*
X296402Y171719D01*
X296526Y171653D01*
X296636Y171580D01*
X296716Y171500D01*
X296781Y171435D01*
X296803Y171405D01*
X296818Y171384D01*
X296832Y171376D01*
Y171369D01*
X296883Y171282D01*
X296927Y171179D01*
X296971Y171063D01*
X297000Y170939D01*
X297029Y170808D01*
X297051Y170669D01*
X297087Y170392D01*
X297102Y170254D01*
X297109Y170130D01*
X297117Y170013D01*
Y169918D01*
X297124Y169831D01*
Y169765D01*
Y169729D01*
Y169721D01*
Y169714D01*
Y169488D01*
X297109Y169284D01*
X297095Y169102D01*
X297080Y168927D01*
X297058Y168781D01*
X297029Y168643D01*
X297000Y168526D01*
X296978Y168417D01*
X296949Y168329D01*
X296920Y168256D01*
X296898Y168191D01*
X296869Y168140D01*
X296854Y168103D01*
X296840Y168081D01*
X296825Y168067D01*
Y168059D01*
X296767Y167987D01*
X296708Y167928D01*
X296650Y167870D01*
X296592Y167826D01*
X296468Y167753D01*
X296358Y167702D01*
X296256Y167673D01*
X296183Y167658D01*
X296154Y167651D01*
X296111D01*
X296030Y167658D01*
X295957Y167666D01*
X295819Y167717D01*
X295695Y167782D01*
X295586Y167855D01*
X295505Y167928D01*
X295440Y167994D01*
X295404Y168045D01*
X295389Y168052D01*
Y168059D01*
X295338Y168147D01*
X295294Y168249D01*
X295250Y168366D01*
X295221Y168490D01*
X295192Y168621D01*
X295170Y168759D01*
X295134Y169044D01*
X295119Y169175D01*
X295112Y169299D01*
X295105Y169415D01*
Y169510D01*
X295097Y169598D01*
Y169663D01*
Y169700D01*
Y169714D01*
X295105Y169940D01*
X295112Y170144D01*
X295126Y170334D01*
X295148Y170509D01*
X295170Y170662D01*
X295199Y170800D01*
X295229Y170924D01*
X295258Y171034D01*
X295287Y171128D01*
X295309Y171209D01*
X295338Y171274D01*
X295360Y171333D01*
X295382Y171369D01*
X295396Y171398D01*
X295411Y171413D01*
Y171420D01*
X295462Y171486D01*
X295513Y171544D01*
X295571Y171588D01*
X295629Y171632D01*
X295746Y171697D01*
X295855Y171741D01*
X295950Y171763D01*
X296030Y171777D01*
X296060Y171785D01*
X296103D01*
X296183Y171777D01*
D02*
G37*
G36*
X311299Y161000D02*
X309652D01*
Y162450D01*
X310082Y162866D01*
X311299Y161000D01*
D02*
G37*
G36*
X307443Y162603D02*
X307436Y162458D01*
X307428Y162334D01*
X307414Y162232D01*
X307392Y162144D01*
X307370Y162079D01*
X307355Y162028D01*
X307348Y161998D01*
X307341Y161991D01*
X307282Y161896D01*
X307224Y161809D01*
X307151Y161736D01*
X307086Y161678D01*
X307027Y161627D01*
X306976Y161590D01*
X306947Y161568D01*
X306933Y161561D01*
X306823Y161510D01*
X306714Y161474D01*
X306612Y161444D01*
X306510Y161430D01*
X306430Y161415D01*
X306357Y161408D01*
X306298D01*
X306167Y161415D01*
X306058Y161430D01*
X305963Y161459D01*
X305883Y161488D01*
X305824Y161517D01*
X305781Y161547D01*
X305752Y161561D01*
X305744Y161568D01*
X305686Y161634D01*
X305642Y161707D01*
X305606Y161773D01*
X305584Y161838D01*
X305569Y161896D01*
X305562Y161940D01*
Y161977D01*
Y161984D01*
X305569Y162042D01*
X305577Y162101D01*
X305591Y162144D01*
X305606Y162188D01*
X305620Y162224D01*
X305628Y162254D01*
X305642Y162268D01*
Y162276D01*
X305715Y162363D01*
X305803Y162421D01*
X305832Y162443D01*
X305861Y162458D01*
X305883Y162472D01*
X305890D01*
X305963Y162502D01*
X306043Y162523D01*
X306131Y162545D01*
X306218Y162560D01*
X306298Y162574D01*
X306371Y162589D01*
X306415Y162596D01*
X306430D01*
X306554Y162618D01*
X306670Y162633D01*
X306772Y162655D01*
X306874Y162676D01*
X306969Y162698D01*
X307049Y162720D01*
X307129Y162735D01*
X307195Y162757D01*
X307253Y162771D01*
X307304Y162786D01*
X307348Y162800D01*
X307385Y162815D01*
X307414Y162822D01*
X307436Y162829D01*
X307443Y162837D01*
X307450D01*
X307443Y162603D01*
D02*
G37*
G36*
X304906Y161874D02*
X304913Y161802D01*
X304950Y161648D01*
X305001Y161525D01*
X305059Y161415D01*
X305117Y161328D01*
X305168Y161262D01*
X305205Y161226D01*
X305219Y161211D01*
X305351Y161116D01*
X305497Y161044D01*
X305657Y160992D01*
X305803Y160956D01*
X305934Y160934D01*
X305992Y160927D01*
X306043D01*
X306087Y160919D01*
X304899D01*
Y161962D01*
X304906Y161874D01*
D02*
G37*
G36*
X286025Y165432D02*
X286149Y165425D01*
X286258Y165410D01*
X286338Y165396D01*
X286389Y165388D01*
X286426Y165374D01*
X286433D01*
X286513Y165345D01*
X286586Y165301D01*
X286645Y165257D01*
X286696Y165213D01*
X286732Y165177D01*
X286761Y165140D01*
X286776Y165119D01*
X286783Y165111D01*
X286827Y165038D01*
X286856Y164965D01*
X286878Y164893D01*
X286892Y164820D01*
X286900Y164761D01*
X286907Y164718D01*
Y164689D01*
Y164674D01*
X286900Y164579D01*
X286885Y164492D01*
X286863Y164419D01*
X286841Y164360D01*
X286820Y164309D01*
X286798Y164266D01*
X286783Y164244D01*
X286776Y164236D01*
X286725Y164178D01*
X286659Y164120D01*
X286594Y164076D01*
X286535Y164047D01*
X286477Y164018D01*
X286433Y163996D01*
X286404Y163989D01*
X286389Y163981D01*
X286309Y163967D01*
X286207Y163952D01*
X286105Y163945D01*
X286003Y163938D01*
X285908Y163930D01*
X284669D01*
Y165447D01*
X285864D01*
X286025Y165432D01*
D02*
G37*
G36*
X286149Y163318D02*
X286273Y163303D01*
X286375Y163289D01*
X286455Y163274D01*
X286521Y163260D01*
X286550Y163252D01*
X286564Y163245D01*
X286659Y163209D01*
X286739Y163165D01*
X286812Y163114D01*
X286871Y163063D01*
X286914Y163019D01*
X286943Y162983D01*
X286965Y162953D01*
X286973Y162946D01*
X287024Y162866D01*
X287060Y162786D01*
X287089Y162706D01*
X287104Y162633D01*
X287118Y162567D01*
X287126Y162509D01*
Y162480D01*
Y162465D01*
X287118Y162378D01*
X287111Y162290D01*
X287097Y162217D01*
X287075Y162159D01*
X287053Y162108D01*
X287038Y162064D01*
X287031Y162042D01*
X287024Y162035D01*
X286980Y161969D01*
X286943Y161911D01*
X286892Y161867D01*
X286856Y161823D01*
X286820Y161794D01*
X286790Y161773D01*
X286768Y161758D01*
X286761Y161751D01*
X286637Y161692D01*
X286513Y161648D01*
X286462Y161634D01*
X286419Y161627D01*
X286389Y161619D01*
X286382D01*
X286324Y161612D01*
X286258Y161605D01*
X286105Y161598D01*
X284669D01*
Y163332D01*
X285996D01*
X286149Y163318D01*
D02*
G37*
G36*
X301312Y164215D02*
X301450Y164178D01*
X301567Y164120D01*
X301669Y164061D01*
X301749Y163996D01*
X301808Y163938D01*
X301844Y163901D01*
X301859Y163894D01*
Y163887D01*
X301910Y163821D01*
X301954Y163741D01*
X302026Y163580D01*
X302077Y163398D01*
X302107Y163231D01*
X302129Y163077D01*
X302136Y163005D01*
Y162946D01*
X302143Y162895D01*
Y162859D01*
Y162837D01*
Y162829D01*
Y162706D01*
X302129Y162582D01*
X302114Y162472D01*
X302099Y162370D01*
X302077Y162276D01*
X302048Y162188D01*
X302019Y162115D01*
X301997Y162042D01*
X301968Y161984D01*
X301939Y161926D01*
X301917Y161882D01*
X301888Y161845D01*
X301873Y161816D01*
X301859Y161794D01*
X301844Y161787D01*
Y161780D01*
X301786Y161721D01*
X301728Y161663D01*
X301611Y161576D01*
X301494Y161517D01*
X301385Y161474D01*
X301290Y161452D01*
X301210Y161437D01*
X301181Y161430D01*
X301144D01*
X301050Y161437D01*
X300969Y161452D01*
X300882Y161474D01*
X300809Y161503D01*
X300671Y161583D01*
X300561Y161670D01*
X300466Y161751D01*
X300401Y161831D01*
X300379Y161860D01*
X300364Y161882D01*
X300350Y161896D01*
Y161904D01*
X300321Y161962D01*
X300291Y162028D01*
X300248Y162173D01*
X300219Y162334D01*
X300197Y162487D01*
X300182Y162625D01*
Y162691D01*
X300175Y162742D01*
Y162786D01*
Y162822D01*
Y162844D01*
Y162851D01*
Y162975D01*
X300189Y163085D01*
X300204Y163194D01*
X300219Y163296D01*
X300240Y163384D01*
X300270Y163471D01*
X300291Y163544D01*
X300321Y163617D01*
X300350Y163675D01*
X300372Y163726D01*
X300401Y163770D01*
X300423Y163806D01*
X300437Y163836D01*
X300452Y163857D01*
X300466Y163865D01*
Y163872D01*
X300525Y163938D01*
X300583Y163989D01*
X300641Y164040D01*
X300700Y164076D01*
X300816Y164142D01*
X300926Y164186D01*
X301020Y164207D01*
X301101Y164222D01*
X301130Y164229D01*
X301239D01*
X301312Y164215D01*
D02*
G37*
G36*
X300255Y161364D02*
X300328Y161284D01*
X300408Y161211D01*
X300496Y161145D01*
X300576Y161094D01*
X300663Y161051D01*
X300743Y161014D01*
X300824Y160985D01*
X300969Y160949D01*
X301035Y160934D01*
X301086Y160927D01*
X301130D01*
X301166Y160919D01*
X299606D01*
Y161000D01*
X300182D01*
Y161459D01*
X300255Y161364D01*
D02*
G37*
G36*
X296231Y166125D02*
X296049Y166103D01*
X295874Y166066D01*
X295706Y166023D01*
X295553Y165964D01*
X295407Y165906D01*
X295276Y165840D01*
X295159Y165775D01*
X295050Y165709D01*
X294955Y165644D01*
X294875Y165585D01*
X294809Y165527D01*
X294758Y165483D01*
X294715Y165447D01*
X294693Y165425D01*
X294685Y165418D01*
X294569Y165279D01*
X294467Y165133D01*
X294372Y164973D01*
X294299Y164812D01*
X294233Y164645D01*
X294175Y164484D01*
X294131Y164324D01*
X294102Y164171D01*
X294073Y164025D01*
X294051Y163887D01*
X294037Y163763D01*
X294022Y163661D01*
Y163573D01*
X294015Y163507D01*
Y166132D01*
X296428D01*
X296231Y166125D01*
D02*
G37*
G36*
X296610Y165549D02*
X296785Y165519D01*
X296938Y165476D01*
X297069Y165432D01*
X297179Y165381D01*
X297222Y165359D01*
X297259Y165345D01*
X297295Y165323D01*
X297317Y165315D01*
X297324Y165301D01*
X297332D01*
X297470Y165199D01*
X297594Y165082D01*
X297704Y164965D01*
X297791Y164849D01*
X297856Y164747D01*
X297908Y164659D01*
X297922Y164630D01*
X297937Y164608D01*
X297944Y164594D01*
Y164586D01*
X298017Y164411D01*
X298068Y164222D01*
X298104Y164047D01*
X298126Y163879D01*
X298141Y163799D01*
X298148Y163733D01*
Y163668D01*
X298155Y163617D01*
Y163573D01*
Y163544D01*
Y163522D01*
Y163515D01*
X298148Y163340D01*
X298134Y163172D01*
X298112Y163012D01*
X298082Y162866D01*
X298039Y162735D01*
X298002Y162611D01*
X297959Y162494D01*
X297915Y162392D01*
X297864Y162305D01*
X297820Y162224D01*
X297784Y162159D01*
X297747Y162108D01*
X297711Y162064D01*
X297689Y162028D01*
X297674Y162013D01*
X297667Y162006D01*
X297572Y161911D01*
X297470Y161831D01*
X297368Y161765D01*
X297266Y161700D01*
X297164Y161648D01*
X297055Y161612D01*
X296960Y161576D01*
X296858Y161547D01*
X296770Y161525D01*
X296683Y161510D01*
X296610Y161495D01*
X296544Y161488D01*
X296493D01*
X296457Y161481D01*
X296420D01*
X296282Y161488D01*
X296151Y161503D01*
X296034Y161532D01*
X295917Y161561D01*
X295808Y161605D01*
X295706Y161648D01*
X295611Y161692D01*
X295524Y161743D01*
X295451Y161794D01*
X295385Y161838D01*
X295327Y161882D01*
X295276Y161926D01*
X295239Y161955D01*
X295210Y161984D01*
X295196Y161998D01*
X295188Y162006D01*
X295101Y162108D01*
X295028Y162217D01*
X294962Y162334D01*
X294904Y162450D01*
X294860Y162574D01*
X294817Y162691D01*
X294758Y162924D01*
X294744Y163026D01*
X294729Y163128D01*
X294715Y163216D01*
X294707Y163289D01*
X294700Y163354D01*
Y163405D01*
Y163435D01*
Y163442D01*
X294707Y163646D01*
X294722Y163836D01*
X294744Y164018D01*
X294780Y164178D01*
X294817Y164324D01*
X294860Y164455D01*
X294911Y164579D01*
X294955Y164681D01*
X295006Y164776D01*
X295050Y164856D01*
X295094Y164922D01*
X295130Y164973D01*
X295166Y165016D01*
X295188Y165046D01*
X295203Y165060D01*
X295210Y165068D01*
X295305Y165155D01*
X295407Y165228D01*
X295509Y165294D01*
X295619Y165352D01*
X295721Y165396D01*
X295823Y165439D01*
X296012Y165498D01*
X296100Y165512D01*
X296180Y165527D01*
X296245Y165541D01*
X296311Y165549D01*
X296362Y165556D01*
X296428D01*
X296610Y165549D01*
D02*
G37*
D10*
X374402Y98425D02*
G03*
X374402Y98425I-37000J0D01*
G01*
X280701D02*
G03*
X280701Y98425I-37000J0D01*
G01*
X187000D02*
G03*
X187000Y98425I-37000J0D01*
G01*
X93299D02*
G03*
X93299Y98425I-37000J0D01*
G01*
X366402Y104425D02*
X367713D01*
X367057D01*
Y108361D01*
X366402Y107705D01*
X272701Y104425D02*
X274013D01*
X273357D01*
Y108361D01*
X272701Y107705D01*
X179000Y104425D02*
X180312D01*
X179656D01*
Y108361D01*
X179000Y107705D01*
X85299Y104425D02*
X86611D01*
X85955D01*
Y108361D01*
X85299Y107705D01*
X370472Y27165D02*
Y33163D01*
X372472Y31164D01*
X374471Y33163D01*
Y27165D01*
X376470Y33163D02*
Y27165D01*
Y30164D01*
X380469D01*
Y33163D01*
Y27165D01*
X385468D02*
Y33163D01*
X382469Y30164D01*
X386467D01*
X7498Y27998D02*
Y33996D01*
X9497Y31997D01*
X11497Y33996D01*
Y27998D01*
X13496Y33996D02*
Y27998D01*
Y30997D01*
X17495D01*
Y33996D01*
Y27998D01*
X19494Y32996D02*
X20494Y33996D01*
X22493D01*
X23493Y32996D01*
Y31997D01*
X22493Y30997D01*
X21494D01*
X22493D01*
X23493Y29997D01*
Y28998D01*
X22493Y27998D01*
X20494D01*
X19494Y28998D01*
X370079Y163386D02*
Y169384D01*
X372078Y167385D01*
X374077Y169384D01*
Y163386D01*
X376077Y169384D02*
Y163386D01*
Y166385D01*
X380076D01*
Y169384D01*
Y163386D01*
X386074D02*
X382075D01*
X386074Y167385D01*
Y168384D01*
X385074Y169384D01*
X383074D01*
X382075Y168384D01*
X9449Y162992D02*
Y168990D01*
X11448Y166991D01*
X13447Y168990D01*
Y162992D01*
X15447Y168990D02*
Y162992D01*
Y165991D01*
X19446D01*
Y168990D01*
Y162992D01*
X21445D02*
X23444D01*
X22445D01*
Y168990D01*
X21445Y167991D01*
X379400Y137998D02*
Y132000D01*
Y134999D01*
X383399D01*
Y137998D01*
Y132000D01*
X389397D02*
X385398D01*
X389397Y135999D01*
Y136998D01*
X388397Y137998D01*
X386398D01*
X385398Y136998D01*
X1500Y137998D02*
Y132000D01*
Y134999D01*
X5499D01*
Y137998D01*
Y132000D01*
X7498D02*
X9497D01*
X8498D01*
Y137998D01*
X7498Y136998D01*
X19800Y144898D02*
Y138900D01*
X22799D01*
X23799Y139900D01*
Y143898D01*
X22799Y144898D01*
X19800D01*
X28797Y138900D02*
Y144898D01*
X25798Y141899D01*
X29797D01*
X113500Y144898D02*
Y138900D01*
X116499D01*
X117499Y139900D01*
Y143898D01*
X116499Y144898D01*
X113500D01*
X119498Y143898D02*
X120498Y144898D01*
X122497D01*
X123497Y143898D01*
Y142899D01*
X122497Y141899D01*
X121497D01*
X122497D01*
X123497Y140899D01*
Y139900D01*
X122497Y138900D01*
X120498D01*
X119498Y139900D01*
X207200Y144898D02*
Y138900D01*
X210199D01*
X211199Y139900D01*
Y143898D01*
X210199Y144898D01*
X207200D01*
X217197Y138900D02*
X213198D01*
X217197Y142899D01*
Y143898D01*
X216197Y144898D01*
X214198D01*
X213198Y143898D01*
X300900Y144898D02*
Y138900D01*
X303899D01*
X304899Y139900D01*
Y143898D01*
X303899Y144898D01*
X300900D01*
X306898Y138900D02*
X308897D01*
X307898D01*
Y144898D01*
X306898Y143898D01*
X174471Y47124D02*
X173471Y48124D01*
X171472D01*
X170472Y47124D01*
Y43126D01*
X171472Y42126D01*
X173471D01*
X174471Y43126D01*
X180469Y48124D02*
X176470D01*
Y45125D01*
X178470Y46125D01*
X179470D01*
X180469Y45125D01*
Y43126D01*
X179470Y42126D01*
X177470D01*
X176470Y43126D01*
X162266Y45943D02*
X161267Y46943D01*
X159267D01*
X158268Y45943D01*
Y41945D01*
X159267Y40945D01*
X161267D01*
X162266Y41945D01*
X164266Y40945D02*
X166265D01*
X165266D01*
Y46943D01*
X164266Y45943D01*
D11*
X174902Y32205D02*
Y34724D01*
X169980Y32205D02*
Y34724D01*
D12*
X392827Y68622D02*
Y128622D01*
X378827Y68622D02*
X392827D01*
X378827D02*
Y128622D01*
X392827D01*
X14874Y68622D02*
Y128622D01*
X874Y68622D02*
X14874D01*
X874D02*
Y128622D01*
X14874D01*
M02*
