M48
;Layer_Color=9474304
;FILE_FORMAT=2:5
INCH,LZ
;TYPE=PLATED
T1F00S00C0.00787
T2F00S00C0.02800
T3F00S00C0.03000
T5F00S00C0.13780
%
T01
X0291535Y0128937
Y0132087
X034252Y0082677
Y0079528
T02
X0027953Y0008268
Y0027953
X001811
X0008268
X0013189Y0037795
X0008268Y0047638
X0061024Y0042126
X0068504Y0035827
X0091929Y0037795
X0101772
X0111614
X0121457
X0131299
X0141142
X0150984
X0160827
X0170669
X0180512
X0190354
X0200197
X0210039
X0205118Y0047638
X0195276
X0185433
X0175591
X0165748
X0155905
X0146063
X0136221
Y0027953
X0146063
X0155905
X0165748
X0175591
X0185433
X0195276
X0205118
X0210039Y001811
X0200197
X0190354
X0180512
X0170669
X0160827
X0150984
X0141142
X0131299
X0121457
X0111614
X0101772
X0106693Y0027953
X0116535
X0126378
Y0008268
X0136221
X0146063
X0155905
X0165748
X0175591
X0185433
X0195276
X0205118
X0116535
X0106693
X009685
Y0027953
X0214961
X0224803
X0234646
X0244488
X0254331
X0264173
X0274016
X0283858
X0293701
X0298622Y0037795
X0308465
X0318307
X032815
X0337992
X0347835
X0357677
X036752
X0362598Y0047638
X0352756
X0342913
X0333071
X0323228
X0313386
X0303543
X0293701
X0283858
X0274016
X0264173
X0254331
X0244488
X024941Y0037795
X0259252
X0269094
X0278937
X0288779
Y001811
X0278937
X0269094
X0259252
X024941
X0239567
X0229724
X0219882
X0224803Y0008268
X0234646
X0244488
X0254331
X0264173
X0274016
X0283858
X0293701
X0303543
X0313386
X0323228
X0333071
X0342913
X0352756
X0362598
X0214961
X0219882Y0037795
X0229724
X0239567
X0224803Y0047638
X0214961
X0372441
X0382283
X0387205Y0037795
X0377362
X0382283Y0027953
X0372441
X0377362Y005748
X0387205
X0372441Y0067323
Y0106693
Y0126378
X0377362Y0155905
X0387205
X0382283Y0165748
X0372441
X0362598
X0352756
X0342913
X0333071
X0337992Y0175591
X0347835
X0357677
X0362598Y0185433
X0352756
X0342913
X0333071
X0323228
X0313386
X0318307Y0175591
X032815
X0318307Y0155905
X0318385Y0146384
X0308661Y0141732
Y0136614
X0307873Y0129134
X0308465Y0116535
X0318307
X032815
X0323228Y0106693
X0323228Y008937
X0328346
X0334252Y0078347
X0323228Y0067323
X0313386
X0303543
X0293701
X0283858
X0274016
X0264173
X0254331
X0244488
X024941Y005748
X0259252
X0269094
X0278937
X0288779
X0298622
X0308465
X0318307
X032815
X0337992
X0347835
X0357677
X036752
Y009685
X0362598Y0106693
X0352756
X0342913
Y0126378
X0362598
X036752Y0136221
Y0155905
Y0116535
X0288779
X0278937
X0269094
X0258783Y0113114
X0254331Y0126378
X0264173
X0244488
X0234646
X0224803
X0214961
X0219882Y0116535
X0222047Y0094095
X0224803Y0067323
X0214961
X0219882Y005748
X0249606Y0085039
Y0090551
X0269094Y0077165
X0278937
Y009685
X0288779
X0298622
X0293701Y0106693
X0283858
X0274016
X0278937Y0155905
X0269094
X0259252
X024941
X0239567
X0229724
X0254331Y0165748
X0302559Y0146653
X0195276Y0146063
X0185433
X0190354Y0155905
X0200197
X0195276Y0165748
X0185433
X0175591
X0165748
X0155905
X0146063
X0136221
X0126378
X0116535
X0106693
X009685
X0087008
X0091929Y0155905
X0082087
X0072244
X005748Y0165748
X0062402Y0175591
X0067323Y0185433
X0077165
X005748
Y0126378
X0067323Y0106693
X0077165
X0083858Y0108661
X0091929Y009685
Y0077165
X0077165Y0067323
X0067323
X005748
X0136221
X0146063
X0155905
X0165748
X0175591
X0185433
X0190354Y005748
X0180512
X0170669
X0160827
X0150984
X0141142
X0131299
Y0077165
X0141142
X0150984
X0160827
X0170669
X0180512
X0185433Y0087008
X0175591
X0165748
X0155905
X0146063
X0136221
X0141142Y009685
X0150984
X0160827
X0170669
X0180512
X0185433Y0106693
X0175591
X0165748
X0155905
X0146063
X0136221
X0141142Y0116535
X0150984
X0160827
X0170669
X0180512
X0175591Y0126378
X0165748
X0155905
X0146063
X0136221
X0126378
X0116535
X0106693
X009685
X0101772Y0136221
X0111614
X0121457
X0131299
X0141142
X0150984
X0160827
X0190354
X0200197
X0205118Y0126378
X0210039Y0116535
X0205118Y0067323
X0210039Y005748
X0131299Y009685
Y0116535
X0170669Y0155905
X0180512
X0042717
X0032874
X0023031
X0013189
X001811Y0165748
X0027953
X0037795
X0047638
X0052559Y0175591
X0042717
X0032874
X0037795Y0185433
X0047638
X0027953
X0008268Y0165748
Y0146063
X001811
X0033465Y0133858
X0040551Y0130709
X0047638Y0126378
X0043465Y011063
X0053543Y0108268
X004685Y0100787
X0047638Y0087008
Y0067323
X0034252Y0066535
X0032874Y0077165
X0013189Y005748
T03
X0037716Y0008661
X0047717
X0057717
X0067716
X0077716
X0087717
X0385827Y0073622
Y0083622
Y0093622
Y0103622
Y0113622
Y0123622
X0007874
Y0113622
Y0103622
Y0093622
Y0083622
Y0073622
T05
X0015748Y0015748
X0377953
Y0181102
X0015748
M30
