G04*
G04 #@! TF.GenerationSoftware,Altium Limited,Altium Designer,18.0.9 (584)*
G04*
G04 Layer_Physical_Order=1*
G04 Layer_Color=255*
%FSLAX25Y25*%
%MOIN*%
G70*
G01*
G75*
%ADD11C,0.00984*%
%ADD12C,0.00787*%
%ADD16C,0.01000*%
%ADD43R,0.05906X0.04134*%
%ADD44R,0.05906X0.09449*%
%ADD45R,0.05709X0.03543*%
%ADD46R,0.03150X0.03150*%
%ADD47R,0.03937X0.02362*%
%ADD48R,0.12598X0.03937*%
%ADD49R,0.07480X0.16535*%
%ADD50R,0.03150X0.03150*%
%ADD51R,0.05118X0.03543*%
%ADD52R,0.09055X0.09055*%
%ADD53R,0.03543X0.05709*%
%ADD54R,0.02559X0.03740*%
%ADD55R,0.16535X0.07480*%
%ADD56R,0.20866X0.03543*%
%ADD57R,0.03937X0.06299*%
%ADD58R,0.02756X0.01181*%
%ADD59R,0.03937X0.12598*%
%ADD60R,0.03543X0.06299*%
%ADD61R,0.01968X0.01102*%
%ADD62R,0.19685X0.19685*%
%ADD63R,0.07874X0.03543*%
%ADD64R,0.03543X0.07874*%
%ADD65C,0.01378*%
%ADD66C,0.01968*%
%ADD67C,0.07874*%
%ADD68C,0.03937*%
%ADD69C,0.01575*%
%ADD70C,0.02362*%
%ADD71C,0.17717*%
%ADD72R,0.15748X0.07087*%
%ADD73R,0.07087X0.15748*%
%ADD74O,0.07087X0.11811*%
%ADD75O,0.11811X0.07087*%
%ADD76C,0.05000*%
%ADD77C,0.01968*%
G36*
X393701Y394D02*
X393307Y0D01*
X0D01*
Y196850D01*
X393701D01*
Y394D01*
D02*
G37*
%LPC*%
G36*
X241732Y147875D02*
X240499Y147713D01*
X240355Y147653D01*
X232858D01*
Y146875D01*
X214189D01*
Y147850D01*
X203134D01*
Y136795D01*
X214189D01*
Y137345D01*
X240945D01*
X242178Y137507D01*
X243327Y137984D01*
X244088Y138567D01*
X250606D01*
Y147653D01*
X243109D01*
X242966Y147713D01*
X241732Y147875D01*
D02*
G37*
G36*
X276197Y135153D02*
X270654D01*
Y127445D01*
X272221D01*
Y126437D01*
X272221Y126437D01*
X272313Y125976D01*
X272574Y125585D01*
X272901Y125258D01*
Y121812D01*
X278050D01*
Y126961D01*
X276236D01*
X276197Y127445D01*
X276197D01*
Y135153D01*
D02*
G37*
G36*
X10236Y108204D02*
X5512D01*
X4326Y108048D01*
X3221Y107591D01*
X2272Y106862D01*
X1543Y105913D01*
X1085Y104808D01*
X929Y103622D01*
X1085Y102436D01*
X1543Y101331D01*
X2272Y100382D01*
X3221Y99654D01*
X4326Y99196D01*
X5512Y99040D01*
X10236D01*
X11422Y99196D01*
X12528Y99654D01*
X13477Y100382D01*
X14205Y101331D01*
X14663Y102436D01*
X14819Y103622D01*
X14663Y104808D01*
X14205Y105913D01*
X13477Y106862D01*
X12528Y107591D01*
X11422Y108048D01*
X10236Y108204D01*
D02*
G37*
G36*
Y98204D02*
X5512D01*
X4326Y98048D01*
X3221Y97591D01*
X2272Y96862D01*
X1543Y95913D01*
X1085Y94808D01*
X929Y93622D01*
X1085Y92436D01*
X1543Y91331D01*
X2272Y90382D01*
X3221Y89653D01*
X4326Y89196D01*
X5512Y89039D01*
X10236D01*
X11422Y89196D01*
X12528Y89653D01*
X13477Y90382D01*
X14205Y91331D01*
X14663Y92436D01*
X14819Y93622D01*
X14663Y94808D01*
X14205Y95913D01*
X13477Y96862D01*
X12528Y97591D01*
X11422Y98048D01*
X10236Y98204D01*
D02*
G37*
G36*
X307087Y174642D02*
X293701D01*
X293311Y174564D01*
X292980Y174343D01*
X291011Y172374D01*
X290790Y172044D01*
X290713Y171653D01*
Y155905D01*
X290790Y155515D01*
X291011Y155185D01*
X295498Y150698D01*
X295307Y150236D01*
X290431D01*
Y144692D01*
X297012D01*
Y141574D01*
X282921D01*
Y136031D01*
X286197D01*
Y134661D01*
X285024D01*
X284858Y135093D01*
Y135153D01*
X279315D01*
Y127445D01*
X284858D01*
Y128490D01*
X285024Y128921D01*
X289779D01*
Y131480D01*
Y134661D01*
X288606D01*
Y136031D01*
X297012D01*
Y134661D01*
X293291D01*
Y131480D01*
Y128921D01*
Y126362D01*
X297521D01*
Y120194D01*
X297540Y120095D01*
Y119194D01*
X298442D01*
X298540Y119174D01*
X319407D01*
X319505Y119194D01*
X320407D01*
Y120095D01*
X320426Y120194D01*
Y122613D01*
X321474D01*
Y121051D01*
X329380D01*
Y127130D01*
X330512D01*
X330902Y127208D01*
X331233Y127429D01*
X338405Y134600D01*
X354898Y134217D01*
X354909Y134219D01*
X354921Y134217D01*
X355105Y134253D01*
X355289Y134285D01*
X355300Y134292D01*
X355311Y134294D01*
X355467Y134398D01*
X355625Y134499D01*
X355632Y134509D01*
X355642Y134515D01*
X358398Y137271D01*
X358619Y137602D01*
X358697Y137992D01*
Y141888D01*
X371845D01*
X381062Y132672D01*
Y127505D01*
X380224Y126862D01*
X379496Y125913D01*
X379038Y124808D01*
X378882Y123622D01*
X379038Y122436D01*
X379496Y121331D01*
X380224Y120382D01*
X381062Y119739D01*
Y117505D01*
X380224Y116862D01*
X379496Y115913D01*
X379038Y114808D01*
X378882Y113622D01*
X379038Y112436D01*
X379496Y111331D01*
X380224Y110382D01*
X381173Y109653D01*
X382278Y109196D01*
X383465Y109040D01*
X384544D01*
X384593Y109019D01*
X385471Y108904D01*
X385695Y108874D01*
Y108370D01*
X385471Y108340D01*
X384593Y108225D01*
X384544Y108204D01*
X383465D01*
X382278Y108048D01*
X381173Y107591D01*
X380224Y106862D01*
X379496Y105913D01*
X379038Y104808D01*
X378882Y103622D01*
X379038Y102436D01*
X379496Y101331D01*
X380224Y100382D01*
X381062Y99739D01*
Y97505D01*
X380231Y96868D01*
X379952D01*
X378719Y96705D01*
X377569Y96229D01*
X376582Y95472D01*
X371615Y90504D01*
X370858Y89517D01*
X370381Y88368D01*
X370311Y87836D01*
X364265D01*
X364109Y87957D01*
X363878Y88323D01*
X363871Y88356D01*
X363876Y88389D01*
X363833Y88550D01*
X363800Y88713D01*
X363782Y88741D01*
X363773Y88774D01*
X363672Y88906D01*
X363579Y89044D01*
X363421Y89202D01*
Y102165D01*
X363344Y102556D01*
X363123Y102886D01*
X362335Y103674D01*
X362004Y103895D01*
X361614Y103972D01*
X356496D01*
X356106Y103895D01*
X355775Y103674D01*
X354256Y102155D01*
X354027Y102190D01*
X353756Y102334D01*
Y102870D01*
X348213D01*
Y99128D01*
X345408Y96324D01*
X345147Y95933D01*
X345056Y95473D01*
X345056Y95472D01*
Y85606D01*
X344276D01*
Y80555D01*
X344272Y80536D01*
Y79701D01*
X344276Y79681D01*
Y76599D01*
X344947D01*
Y75583D01*
X342793D01*
Y67875D01*
X348137D01*
Y66687D01*
X355846D01*
Y72230D01*
X348336D01*
Y73696D01*
X348836Y74016D01*
X349016Y73980D01*
X369094D01*
X369485Y74058D01*
X369815Y74279D01*
X370997Y75460D01*
X371218Y75791D01*
X371295Y76181D01*
Y78306D01*
X374591D01*
X375824Y78468D01*
X376973Y78944D01*
X377960Y79701D01*
X378354Y80095D01*
X379111Y81082D01*
X379587Y82231D01*
X379749Y83465D01*
Y85161D01*
X381926Y87337D01*
X384307D01*
X385540Y87499D01*
X386690Y87976D01*
X387677Y88733D01*
X387983Y89039D01*
X388189D01*
X389375Y89196D01*
X390480Y89653D01*
X391429Y90382D01*
X392158Y91331D01*
X392615Y92436D01*
X392772Y93622D01*
X392615Y94808D01*
X392158Y95913D01*
X391429Y96862D01*
X390592Y97505D01*
Y99739D01*
X391429Y100382D01*
X392158Y101331D01*
X392615Y102436D01*
X392772Y103622D01*
X392615Y104808D01*
X392158Y105913D01*
X391429Y106862D01*
X390480Y107591D01*
X389375Y108048D01*
X388189Y108204D01*
X387109D01*
X387060Y108225D01*
X386183Y108340D01*
X385959Y108370D01*
Y108874D01*
X386183Y108904D01*
X387060Y109019D01*
X387109Y109040D01*
X388189D01*
X389375Y109196D01*
X390480Y109653D01*
X391429Y110382D01*
X392158Y111331D01*
X392615Y112436D01*
X392772Y113622D01*
X392615Y114808D01*
X392158Y115913D01*
X391429Y116862D01*
X390592Y117505D01*
Y119739D01*
X391429Y120382D01*
X392158Y121331D01*
X392615Y122436D01*
X392772Y123622D01*
X392615Y124808D01*
X392158Y125913D01*
X391429Y126862D01*
X390592Y127505D01*
Y134646D01*
X390430Y135879D01*
X389953Y137028D01*
X389196Y138015D01*
X377188Y150023D01*
X376202Y150780D01*
X375052Y151256D01*
X373819Y151419D01*
X358697D01*
Y156102D01*
X358619Y156492D01*
X358398Y156823D01*
X357611Y157611D01*
X357280Y157832D01*
X356890Y157909D01*
X342717D01*
X342326Y157832D01*
X341996Y157611D01*
X334122Y149737D01*
X333901Y149406D01*
X333823Y149016D01*
Y147279D01*
X331299D01*
X330909Y147202D01*
X330578Y146981D01*
X330089Y146492D01*
X322206D01*
X321855Y146843D01*
X321795Y147297D01*
X321443Y148149D01*
X320882Y148880D01*
X320150Y149441D01*
X319299Y149794D01*
X318385Y149914D01*
X317472Y149794D01*
X316620Y149441D01*
X316325Y149840D01*
X316263Y149934D01*
X316254Y149939D01*
X316248Y149948D01*
X316089Y150050D01*
X315932Y150155D01*
X315921Y150157D01*
X315913Y150162D01*
X315727Y150195D01*
X315542Y150232D01*
X311882D01*
X311793Y150250D01*
X311755D01*
Y150288D01*
X311678Y150678D01*
X311457Y151009D01*
X310862Y151603D01*
Y170866D01*
X310785Y171256D01*
X310563Y171587D01*
X310252Y171899D01*
Y172109D01*
X310041D01*
X307808Y174343D01*
X307477Y174564D01*
X307087Y174642D01*
D02*
G37*
G36*
X10236Y88204D02*
X5512D01*
X4326Y88048D01*
X3221Y87591D01*
X2272Y86862D01*
X1543Y85913D01*
X1085Y84808D01*
X929Y83622D01*
X1085Y82436D01*
X1543Y81331D01*
X2272Y80382D01*
X3221Y79654D01*
X4326Y79196D01*
X5512Y79040D01*
X10236D01*
X11422Y79196D01*
X12528Y79654D01*
X13477Y80382D01*
X14205Y81331D01*
X14663Y82436D01*
X14819Y83622D01*
X14663Y84808D01*
X14205Y85913D01*
X13477Y86862D01*
X12528Y87591D01*
X11422Y88048D01*
X10236Y88204D01*
D02*
G37*
G36*
X336614Y95902D02*
X315354D01*
X314964Y95824D01*
X314633Y95603D01*
X310696Y91666D01*
X310475Y91335D01*
X310398Y90945D01*
Y76772D01*
X310475Y76381D01*
X310696Y76051D01*
X311877Y74870D01*
X312208Y74649D01*
X312598Y74571D01*
X331102D01*
X331492Y74649D01*
X331823Y74870D01*
X332306Y75352D01*
X332387Y75366D01*
X332487Y75289D01*
X333338Y74936D01*
X334252Y74816D01*
X335166Y74936D01*
X336017Y75289D01*
X336748Y75850D01*
X337309Y76581D01*
X337662Y77433D01*
X337782Y78346D01*
X337976Y78567D01*
X340764D01*
Y81650D01*
X340768Y81669D01*
Y82504D01*
X340764Y82523D01*
Y83638D01*
X337815D01*
Y84591D01*
X338186Y84664D01*
X338516Y84885D01*
X338737Y85216D01*
X338815Y85606D01*
Y93701D01*
X338737Y94091D01*
X338516Y94422D01*
X337335Y95603D01*
X337004Y95824D01*
X336614Y95902D01*
D02*
G37*
G36*
X163779Y155946D02*
X100394D01*
X99160Y155784D01*
X98011Y155308D01*
X97024Y154551D01*
X86051Y143578D01*
X85509Y143649D01*
X25122D01*
X24402Y143554D01*
X23732Y143277D01*
X23156Y142835D01*
X8525Y128205D01*
X5512D01*
X4326Y128048D01*
X3221Y127591D01*
X2272Y126862D01*
X1543Y125913D01*
X1085Y124808D01*
X929Y123622D01*
X1085Y122436D01*
X1543Y121331D01*
X2272Y120382D01*
X3221Y119653D01*
X4326Y119196D01*
X5512Y119040D01*
X10236D01*
X11422Y119196D01*
X12528Y119653D01*
X13477Y120382D01*
X14205Y121331D01*
X14663Y122436D01*
X14819Y123622D01*
X14663Y124808D01*
X14205Y125913D01*
X14158Y125975D01*
X26273Y138090D01*
X83095D01*
X83192Y137349D01*
X83669Y136200D01*
X83842Y135973D01*
Y135516D01*
X83928D01*
X84085Y135307D01*
X83842Y134807D01*
X83842D01*
Y125239D01*
X83381Y125047D01*
X80986Y127442D01*
X80497Y127769D01*
X80331Y127802D01*
Y128953D01*
X80331D01*
X80370Y129436D01*
X82375D01*
Y134980D01*
X74666D01*
Y129436D01*
X75142D01*
X75181Y128953D01*
X75181D01*
Y123803D01*
X80160D01*
X80310Y123618D01*
X80071Y123118D01*
X36169D01*
X35977Y123580D01*
X39689Y127292D01*
X40551Y127179D01*
X41465Y127299D01*
X42316Y127651D01*
X43047Y128212D01*
X43608Y128944D01*
X43961Y129795D01*
X44081Y130709D01*
X43961Y131622D01*
X43608Y132474D01*
X43047Y133205D01*
X42316Y133766D01*
X41465Y134119D01*
X40551Y134239D01*
X39638Y134119D01*
X38786Y133766D01*
X38055Y133205D01*
X37494Y132474D01*
X37141Y131622D01*
X37021Y130709D01*
X37135Y129847D01*
X32187Y124899D01*
X31796Y124313D01*
X31658Y123622D01*
Y123118D01*
X30271D01*
Y128110D01*
X32602Y130442D01*
X33465Y130328D01*
X34378Y130448D01*
X35230Y130801D01*
X35961Y131362D01*
X36522Y132093D01*
X36874Y132945D01*
X36995Y133858D01*
X36874Y134772D01*
X36522Y135623D01*
X35961Y136354D01*
X35230Y136916D01*
X34378Y137268D01*
X33465Y137389D01*
X32551Y137268D01*
X31699Y136916D01*
X30968Y136354D01*
X30407Y135623D01*
X30055Y134772D01*
X29934Y133858D01*
X30048Y132996D01*
X27187Y130136D01*
X26796Y129550D01*
X26658Y128858D01*
Y123118D01*
X25693D01*
Y113417D01*
X23106D01*
X21765Y114757D01*
X21244Y115105D01*
X20630Y115228D01*
X20630Y115228D01*
X14489D01*
X14205Y115913D01*
X13477Y116862D01*
X12528Y117591D01*
X11422Y118048D01*
X10236Y118204D01*
X5512D01*
X4326Y118048D01*
X3221Y117591D01*
X2272Y116862D01*
X1543Y115913D01*
X1085Y114808D01*
X929Y113622D01*
X1085Y112436D01*
X1543Y111331D01*
X2272Y110382D01*
X3221Y109653D01*
X4326Y109196D01*
X5512Y109040D01*
X10236D01*
X11422Y109196D01*
X12528Y109653D01*
X13477Y110382D01*
X14205Y111331D01*
X14489Y112016D01*
X19965D01*
X21305Y110676D01*
X21306Y110676D01*
X21826Y110328D01*
X22441Y110205D01*
X32012D01*
X37054Y105164D01*
X37054Y105164D01*
X37574Y104816D01*
X38189Y104694D01*
X38189Y104694D01*
X45197D01*
X45197Y104694D01*
X45812Y104816D01*
X46332Y105164D01*
X49520Y108351D01*
X49810Y108302D01*
X50026Y108169D01*
X50133Y107354D01*
X50486Y106503D01*
X51047Y105772D01*
X51778Y105210D01*
X52630Y104858D01*
X53543Y104737D01*
X54457Y104858D01*
X55308Y105210D01*
X56040Y105772D01*
X56359Y106188D01*
X56859Y106018D01*
Y105193D01*
X54453Y102787D01*
X49728D01*
X49347Y103284D01*
X48616Y103845D01*
X47764Y104197D01*
X46850Y104318D01*
X45937Y104197D01*
X45085Y103845D01*
X44354Y103284D01*
X43793Y102552D01*
X43440Y101701D01*
X43320Y100787D01*
X43440Y99874D01*
X43793Y99022D01*
X44354Y98291D01*
X45085Y97730D01*
X45937Y97378D01*
X46850Y97257D01*
X47764Y97378D01*
X48616Y97730D01*
X49347Y98291D01*
X49908Y99022D01*
X50137Y99576D01*
X53218D01*
X53685Y99496D01*
X53685Y99075D01*
Y77811D01*
X75370D01*
Y99496D01*
X56331D01*
X56179Y99996D01*
X56253Y100046D01*
X59600Y103392D01*
X59948Y103913D01*
X60070Y104528D01*
X60070Y104528D01*
Y113244D01*
X81959D01*
Y111616D01*
X81362Y111158D01*
X80801Y110426D01*
X80448Y109575D01*
X80328Y108661D01*
X80448Y107748D01*
X80801Y106896D01*
X81362Y106165D01*
X82093Y105604D01*
X82945Y105252D01*
X83858Y105131D01*
X84772Y105252D01*
X85623Y105604D01*
X86355Y106165D01*
X86915Y106896D01*
X87268Y107748D01*
X87388Y108661D01*
X87268Y109575D01*
X86915Y110426D01*
X86355Y111158D01*
X85623Y111719D01*
X84970Y111989D01*
Y113244D01*
X91236D01*
Y123118D01*
X91637Y123358D01*
X91748D01*
Y134807D01*
X91745D01*
X91509Y135307D01*
X91681Y135516D01*
X91748D01*
Y135796D01*
X102367Y146416D01*
X161806D01*
X196416Y111806D01*
Y103374D01*
X196066Y103304D01*
X195736Y103083D01*
X190618Y97965D01*
X190397Y97634D01*
X190319Y97244D01*
Y79528D01*
X190397Y79137D01*
X190618Y78807D01*
X193374Y76051D01*
X193704Y75830D01*
X194095Y75752D01*
X227165D01*
X227555Y75830D01*
X227886Y76051D01*
X228686Y76850D01*
X228807Y76838D01*
X230775Y74870D01*
X231106Y74649D01*
X231496Y74571D01*
X256693D01*
X257083Y74649D01*
X257414Y74870D01*
X260957Y78413D01*
X261178Y78744D01*
X261256Y79134D01*
Y88944D01*
X261178Y89334D01*
X261043Y89536D01*
Y93126D01*
X260966Y93516D01*
X260745Y93847D01*
X259382Y95209D01*
X259083Y95409D01*
X259078Y95446D01*
X259353Y95909D01*
X270147D01*
Y101452D01*
X255744D01*
X255347Y101952D01*
X255350Y101969D01*
Y103921D01*
X255321Y104070D01*
X255655Y104570D01*
X262637D01*
Y110114D01*
X261401D01*
X261240Y110587D01*
X261279Y110617D01*
X261840Y111348D01*
X262193Y112200D01*
X262313Y113114D01*
X262193Y114027D01*
X261840Y114879D01*
X261279Y115610D01*
X260548Y116171D01*
X259697Y116524D01*
X258783Y116644D01*
X257869Y116524D01*
X257018Y116171D01*
X256287Y115610D01*
X255726Y114879D01*
X255373Y114027D01*
X255253Y113114D01*
X255373Y112200D01*
X255726Y111348D01*
X256287Y110617D01*
X256326Y110587D01*
X256165Y110114D01*
X254929D01*
Y108323D01*
X254445Y108283D01*
Y108283D01*
X252883D01*
Y111517D01*
X253953D01*
Y116666D01*
X248803D01*
Y111517D01*
X249873D01*
Y108283D01*
X248508D01*
Y105350D01*
X247244D01*
X246978Y105569D01*
Y111517D01*
X248047D01*
Y116666D01*
X242898D01*
Y111517D01*
X243967D01*
Y104899D01*
X243618Y104543D01*
X238114D01*
X237681Y104543D01*
X237197Y104583D01*
X237197Y104920D01*
Y110357D01*
X222599D01*
Y104420D01*
X230738D01*
X231314Y103844D01*
X231122Y103382D01*
X205946D01*
Y113779D01*
X205784Y115013D01*
X205308Y116162D01*
X204551Y117149D01*
X167149Y154551D01*
X166162Y155308D01*
X165013Y155784D01*
X163779Y155946D01*
D02*
G37*
G36*
X99213Y121886D02*
X98822Y121808D01*
X98492Y121587D01*
X98324Y121337D01*
X98216Y121264D01*
X97995Y120933D01*
X97917Y120543D01*
Y48496D01*
X97995Y48106D01*
X98216Y47775D01*
X98547Y47554D01*
X98788Y47506D01*
X98822Y47483D01*
X99213Y47406D01*
X122019D01*
X122114Y47311D01*
X122444Y47089D01*
X122835Y47012D01*
X123225Y47089D01*
X123556Y47311D01*
X123777Y47641D01*
X123854Y48031D01*
Y48045D01*
X123895Y48106D01*
X123972Y48496D01*
Y120543D01*
X123895Y120933D01*
X123674Y121264D01*
X123343Y121485D01*
X122953Y121563D01*
X99958D01*
X99934Y121587D01*
X99603Y121808D01*
X99213Y121886D01*
D02*
G37*
G36*
X68504Y39357D02*
X67590Y39237D01*
X66739Y38884D01*
X66008Y38323D01*
X65447Y37592D01*
X65094Y36740D01*
X64974Y35827D01*
X65094Y34913D01*
X65447Y34062D01*
X66008Y33331D01*
X66739Y32770D01*
X66999Y32662D01*
Y31118D01*
X64650D01*
Y25575D01*
X72358D01*
Y31118D01*
X70009D01*
Y32662D01*
X70269Y32770D01*
X71000Y33331D01*
X71561Y34062D01*
X71914Y34913D01*
X72034Y35827D01*
X71914Y36740D01*
X71561Y37592D01*
X71000Y38323D01*
X70269Y38884D01*
X69418Y39237D01*
X68504Y39357D01*
D02*
G37*
G36*
X29402Y104953D02*
X19528D01*
Y99410D01*
Y94410D01*
Y89410D01*
Y84409D01*
Y79409D01*
Y74410D01*
Y69410D01*
Y64410D01*
Y59409D01*
X23150D01*
X23306Y59033D01*
X23316Y58909D01*
X19408Y55001D01*
X19082Y54513D01*
X18967Y53937D01*
Y42831D01*
X17701D01*
Y35122D01*
X23244D01*
Y42831D01*
X21978D01*
Y53313D01*
X25033Y56369D01*
X25297D01*
X25693Y56118D01*
X25693Y55869D01*
Y46244D01*
X26978D01*
X27074Y45763D01*
X27400Y45274D01*
X29344Y43331D01*
X29136Y42831D01*
X26362D01*
Y35122D01*
X28104D01*
X30432Y32794D01*
X30920Y32468D01*
X31496Y32353D01*
X38258D01*
Y30617D01*
X33744D01*
Y24877D01*
X34518D01*
Y24219D01*
X33055D01*
Y16510D01*
X38598D01*
Y23133D01*
X39098Y23340D01*
X41717Y20722D01*
Y20425D01*
X41708Y20364D01*
Y11890D01*
X41803Y11170D01*
X42081Y10500D01*
X42523Y9924D01*
X43134Y9313D01*
Y6299D01*
X43290Y5113D01*
X43748Y4008D01*
X44476Y3059D01*
X45425Y2331D01*
X46531Y1873D01*
X47717Y1717D01*
X48903Y1873D01*
X50008Y2331D01*
X50957Y3059D01*
X51685Y4008D01*
X52143Y5113D01*
X52299Y6299D01*
Y11024D01*
X52143Y12210D01*
X51685Y13315D01*
X50957Y14264D01*
X50008Y14992D01*
X48903Y15450D01*
X47717Y15606D01*
X47644Y15597D01*
X47268Y15926D01*
Y20364D01*
X47260Y20425D01*
Y22859D01*
X47722Y23050D01*
X49197Y21575D01*
Y20993D01*
X49189Y20932D01*
X49197Y20871D01*
Y17078D01*
X51892D01*
X54490Y14479D01*
X54476Y14264D01*
X53748Y13315D01*
X53290Y12210D01*
X53134Y11024D01*
Y6299D01*
X53290Y5113D01*
X53748Y4008D01*
X54476Y3059D01*
X55425Y2331D01*
X56530Y1873D01*
X57717Y1717D01*
X58903Y1873D01*
X60008Y2331D01*
X60957Y3059D01*
X61685Y4008D01*
X62143Y5113D01*
X62299Y6299D01*
Y11024D01*
X62143Y12210D01*
X61685Y13315D01*
X60957Y14264D01*
X60496Y14617D01*
Y15184D01*
X60401Y15903D01*
X60124Y16574D01*
X60081Y16629D01*
X60302Y17078D01*
X63402D01*
Y24786D01*
X62752D01*
X62713Y25270D01*
X62713D01*
Y31010D01*
X59692D01*
X56248Y34454D01*
X56440Y34916D01*
X58973D01*
Y37936D01*
X59857Y38821D01*
X60110Y38716D01*
X61024Y38596D01*
X61937Y38716D01*
X62789Y39069D01*
X63520Y39630D01*
X64081Y40361D01*
X64433Y41212D01*
X64554Y42126D01*
X64433Y43040D01*
X64081Y43891D01*
X63520Y44622D01*
X62789Y45183D01*
X61937Y45536D01*
X61024Y45656D01*
X60110Y45536D01*
X59259Y45183D01*
X58527Y44622D01*
X57966Y43891D01*
X57614Y43040D01*
X57493Y42126D01*
X57614Y41212D01*
X57679Y41054D01*
X57361Y40656D01*
X54413D01*
Y35364D01*
X42043D01*
Y40262D01*
X41248D01*
X41154Y40734D01*
X40828Y41222D01*
X36891Y45159D01*
X36403Y45485D01*
X35827Y45600D01*
X31615D01*
X31511Y45744D01*
X31765Y46244D01*
X71959D01*
Y39134D01*
X72074Y38558D01*
X72400Y38069D01*
X76054Y34416D01*
Y30724D01*
X73705D01*
Y25181D01*
X81413D01*
Y30724D01*
X79064D01*
Y35039D01*
X78969Y35518D01*
X79263Y35758D01*
X79382Y35813D01*
X80038Y35156D01*
X80526Y34830D01*
X81102Y34715D01*
X83235D01*
X85896Y32054D01*
Y30724D01*
X83547D01*
Y25181D01*
X91256D01*
Y30724D01*
X88907D01*
Y32677D01*
X88792Y33253D01*
X88466Y33742D01*
X84923Y37285D01*
X84434Y37611D01*
X83858Y37726D01*
X81726D01*
X79970Y39482D01*
Y46244D01*
X91236D01*
Y56118D01*
X35181D01*
X35030Y56618D01*
X35316Y56810D01*
X39647Y61140D01*
X39973Y61629D01*
X40088Y62205D01*
Y95669D01*
X39973Y96245D01*
X39647Y96734D01*
X33135Y103245D01*
X32647Y103572D01*
X32071Y103686D01*
X29402D01*
Y104953D01*
D02*
G37*
G36*
X87402Y22071D02*
X87341Y22063D01*
X83547D01*
Y16520D01*
X84622D01*
Y14376D01*
X84476Y14264D01*
X83748Y13315D01*
X83290Y12210D01*
X83134Y11024D01*
Y6299D01*
X83290Y5113D01*
X83748Y4008D01*
X84476Y3059D01*
X85425Y2331D01*
X86531Y1873D01*
X87717Y1717D01*
X88903Y1873D01*
X90008Y2331D01*
X90957Y3059D01*
X91685Y4008D01*
X92143Y5113D01*
X92299Y6299D01*
Y11024D01*
X92143Y12210D01*
X91685Y13315D01*
X90957Y14264D01*
X90181Y14859D01*
Y16520D01*
X91256D01*
Y22063D01*
X87463D01*
X87402Y22071D01*
D02*
G37*
G36*
X77559D02*
X77498Y22063D01*
X73705D01*
Y16520D01*
X74779D01*
Y14497D01*
X74476Y14264D01*
X73748Y13315D01*
X73290Y12210D01*
X73134Y11024D01*
Y6299D01*
X73290Y5113D01*
X73748Y4008D01*
X74476Y3059D01*
X75425Y2331D01*
X76530Y1873D01*
X77716Y1717D01*
X78903Y1873D01*
X80008Y2331D01*
X80957Y3059D01*
X81685Y4008D01*
X82143Y5113D01*
X82299Y6299D01*
Y11024D01*
X82143Y12210D01*
X81685Y13315D01*
X80957Y14264D01*
X80339Y14738D01*
Y16520D01*
X81413D01*
Y22063D01*
X77620D01*
X77559Y22071D01*
D02*
G37*
G36*
X68504Y22465D02*
X68443Y22457D01*
X64650D01*
Y16913D01*
X65724D01*
Y15116D01*
X65425Y14992D01*
X64476Y14264D01*
X63748Y13315D01*
X63290Y12210D01*
X63134Y11024D01*
Y6299D01*
X63290Y5113D01*
X63748Y4008D01*
X64476Y3059D01*
X65425Y2331D01*
X66531Y1873D01*
X67716Y1717D01*
X68903Y1873D01*
X70008Y2331D01*
X70957Y3059D01*
X71685Y4008D01*
X72143Y5113D01*
X72299Y6299D01*
Y11024D01*
X72143Y12210D01*
X71685Y13315D01*
X71284Y13838D01*
Y16913D01*
X72358D01*
Y22457D01*
X68565D01*
X68504Y22465D01*
D02*
G37*
%LPD*%
G36*
X309842Y170866D02*
Y151181D01*
X310736Y150288D01*
Y149230D01*
X311793D01*
X311811Y149213D01*
X315542D01*
X315761Y148713D01*
X315328Y148149D01*
X314975Y147297D01*
X314855Y146384D01*
X314975Y145470D01*
X315328Y144618D01*
X315889Y143887D01*
X316620Y143326D01*
X317472Y142974D01*
X318385Y142853D01*
X319299Y142974D01*
X319628Y143110D01*
X320043Y142832D01*
Y131461D01*
X317717Y129134D01*
X311404D01*
X311283Y130047D01*
X310931Y130899D01*
X310370Y131630D01*
X309639Y132191D01*
X308787Y132544D01*
X307873Y132664D01*
X306960Y132544D01*
X306416Y132318D01*
X298180D01*
X298031Y132677D01*
Y136031D01*
X298139D01*
Y141574D01*
X298031D01*
Y144692D01*
X298139D01*
Y145959D01*
X299120D01*
X299149Y145740D01*
X299502Y144888D01*
X300063Y144157D01*
X300794Y143596D01*
X301645Y143244D01*
X302559Y143123D01*
X303473Y143244D01*
X304324Y143596D01*
X305055Y144157D01*
X305616Y144888D01*
X305969Y145740D01*
X306089Y146653D01*
X305969Y147567D01*
X305616Y148419D01*
X305055Y149150D01*
X304324Y149711D01*
X303473Y150063D01*
X302559Y150184D01*
X301645Y150063D01*
X300794Y149711D01*
X300063Y149150D01*
X299924Y148969D01*
X298669D01*
X298139Y149498D01*
Y150236D01*
X297402D01*
X291732Y155905D01*
Y171653D01*
X293701Y173622D01*
X307087D01*
X309842Y170866D01*
D02*
G37*
G36*
X357677Y156102D02*
Y137992D01*
X354921Y135236D01*
X337992Y135630D01*
X330512Y128150D01*
X321063D01*
Y143504D01*
Y144685D01*
X321850Y145472D01*
X330512D01*
X331299Y146260D01*
X334842D01*
Y149016D01*
X342717Y156890D01*
X356890D01*
X357677Y156102D01*
D02*
G37*
G36*
X302531Y128069D02*
X302840Y127471D01*
X303622Y126375D01*
X304597Y125447D01*
X305729Y124720D01*
X306979Y124221D01*
X308300Y123966D01*
X309646Y123966D01*
X310967Y124220D01*
X312217Y124720D01*
X313350Y125447D01*
X314324Y126374D01*
X315106Y127470D01*
X315416Y128068D01*
X315416Y128068D01*
X319407D01*
Y120194D01*
X298540D01*
Y128068D01*
X298541Y128069D01*
X302531D01*
X302531Y128069D01*
D02*
G37*
G36*
X362402Y102165D02*
Y88779D01*
X362858Y88323D01*
X362679Y87795D01*
X361759Y87674D01*
X360610Y87198D01*
X359623Y86440D01*
X358865Y85453D01*
X358389Y84304D01*
X358227Y83071D01*
X358389Y81837D01*
X358865Y80688D01*
X359623Y79701D01*
X360610Y78944D01*
X361759Y78468D01*
X362992Y78306D01*
X370276D01*
Y76181D01*
X369094Y75000D01*
X349016D01*
X348622Y75394D01*
Y78150D01*
X348244Y78528D01*
Y79701D01*
X345291D01*
Y80536D01*
X348244D01*
Y80693D01*
X354074D01*
Y81240D01*
X354921Y82087D01*
Y101378D01*
X356496Y102953D01*
X361614D01*
X362402Y102165D01*
D02*
G37*
G36*
X337795Y93701D02*
Y85606D01*
X336795D01*
Y82504D01*
X339748D01*
Y81669D01*
X336795D01*
Y81285D01*
X336516D01*
X336243Y81231D01*
X336017Y81404D01*
X335166Y81756D01*
X334252Y81877D01*
X333338Y81756D01*
X332487Y81404D01*
X331756Y80843D01*
X331195Y80111D01*
X330842Y79260D01*
X330722Y78347D01*
X330842Y77433D01*
X331195Y76581D01*
X331585Y76073D01*
X331102Y75590D01*
X312598D01*
X311417Y76772D01*
Y90945D01*
X315354Y94882D01*
X336614D01*
X337795Y93701D01*
D02*
G37*
G36*
X233860Y101298D02*
X234348Y100971D01*
X234924Y100857D01*
X236568D01*
X236710Y100357D01*
X236681Y100327D01*
X236460Y99997D01*
X236382Y99606D01*
Y96483D01*
X236376Y96479D01*
X235798Y95902D01*
X231496D01*
X231106Y95824D01*
X230775Y95603D01*
X228807Y93634D01*
X228586Y93304D01*
X228508Y92913D01*
Y78114D01*
X227165Y76772D01*
X194095D01*
X191339Y79528D01*
Y97244D01*
X196457Y102362D01*
X232795D01*
X233860Y101298D01*
D02*
G37*
G36*
X248508Y103921D02*
X254331D01*
Y101969D01*
X253165Y100803D01*
X248508D01*
Y96441D01*
X248835D01*
X250787Y94488D01*
X258661D01*
X260024Y93126D01*
Y88944D01*
X260236D01*
Y79134D01*
X256693Y75591D01*
X231496D01*
X229528Y77559D01*
Y92913D01*
X231496Y94882D01*
X236221D01*
X237097Y95758D01*
X237197D01*
Y95859D01*
X237402Y96063D01*
Y99606D01*
X237976Y100181D01*
X243618D01*
Y100705D01*
X243770Y100857D01*
X244094D01*
X244671Y100971D01*
X245159Y101298D01*
X246537Y102676D01*
X246863Y103164D01*
X246978Y103740D01*
Y104064D01*
X247244Y104331D01*
X248508D01*
Y103921D01*
D02*
G37*
G36*
X37077Y95046D02*
Y69385D01*
X36577Y69163D01*
X36017Y69593D01*
X35166Y69945D01*
X34252Y70066D01*
X33338Y69945D01*
X32487Y69593D01*
X31756Y69032D01*
X31491Y68686D01*
X29402D01*
Y74410D01*
Y79409D01*
Y84409D01*
Y89410D01*
Y94410D01*
Y99410D01*
Y100676D01*
X31447D01*
X37077Y95046D01*
D02*
G37*
G36*
X30842Y65622D02*
X31195Y64770D01*
X31756Y64039D01*
X32487Y63478D01*
X33338Y63125D01*
X34252Y63005D01*
X35166Y63125D01*
X36017Y63478D01*
X36577Y63908D01*
X37077Y63686D01*
Y62828D01*
X33628Y59379D01*
X29889D01*
X29402Y59409D01*
Y64410D01*
Y65676D01*
X30835D01*
X30842Y65622D01*
D02*
G37*
G36*
X37179Y40613D02*
X37484Y40262D01*
X37484D01*
X37484Y40262D01*
Y35364D01*
X32120D01*
X31905Y35578D01*
Y42589D01*
X35203D01*
X37179Y40613D01*
D02*
G37*
G36*
X54934Y31510D02*
X54727Y31010D01*
X50673D01*
Y25270D01*
X50673D01*
X50652Y25006D01*
X50141Y24889D01*
X46218Y28811D01*
X45783Y29102D01*
Y30617D01*
X41269D01*
Y32353D01*
X54091D01*
X54934Y31510D01*
D02*
G37*
D11*
X334252Y78347D02*
X334882D01*
X333858D02*
X334252D01*
X338642Y79980D02*
X338779Y80118D01*
X336516Y79980D02*
X338642D01*
X334882Y78347D02*
X336516Y79980D01*
D12*
X273425Y126437D02*
X275475Y124386D01*
X301657Y121966D02*
X308973D01*
X286775Y138803D02*
X287402Y138176D01*
Y133071D02*
Y138176D01*
X273425Y126437D02*
Y131299D01*
X282087D02*
X282874Y130512D01*
X287402D01*
X345565Y71729D02*
X347835Y69459D01*
X351992D01*
X346260Y95473D02*
X349803Y99016D01*
X346260Y84055D02*
Y95473D01*
X349803Y99016D02*
X350984D01*
D16*
X348532Y82971D02*
Y85418D01*
X347777Y82217D02*
X348532Y82971D01*
X346260Y82217D02*
X347777D01*
X348532Y85418D02*
X351106Y87992D01*
X346260Y82087D02*
Y82217D01*
X345565Y71729D02*
X346260Y72424D01*
Y78150D01*
D43*
X87795Y138583D02*
D03*
X325427Y124118D02*
D03*
D44*
X87795Y129083D02*
D03*
X325427Y133618D02*
D03*
D45*
X78520Y132208D02*
D03*
Y140869D02*
D03*
X258783Y98681D02*
D03*
Y107342D02*
D03*
X266293D02*
D03*
Y98681D02*
D03*
X68504Y19685D02*
D03*
Y28346D02*
D03*
X77559Y19291D02*
D03*
Y27953D02*
D03*
X87402Y19291D02*
D03*
Y27953D02*
D03*
X294285Y138803D02*
D03*
Y147464D02*
D03*
X286775D02*
D03*
Y138803D02*
D03*
X351992Y69459D02*
D03*
Y78120D02*
D03*
D46*
X71850Y126378D02*
D03*
X77756D02*
D03*
X262598Y91519D02*
D03*
X256693D02*
D03*
X245472Y114092D02*
D03*
X251378D02*
D03*
X281381Y124386D02*
D03*
X275475D02*
D03*
D47*
X240650Y106102D02*
D03*
Y102362D02*
D03*
Y98622D02*
D03*
X251476D02*
D03*
Y102362D02*
D03*
Y106102D02*
D03*
D48*
X229898Y107388D02*
D03*
Y98727D02*
D03*
D49*
X197720Y59524D02*
D03*
Y87083D02*
D03*
X351510Y119095D02*
D03*
Y146653D02*
D03*
X235909Y57949D02*
D03*
Y85509D02*
D03*
D50*
X219291Y105709D02*
D03*
Y99803D02*
D03*
X331119Y149032D02*
D03*
Y143127D02*
D03*
X334055Y97638D02*
D03*
Y91732D02*
D03*
X358904Y71335D02*
D03*
Y77241D02*
D03*
X313310Y151805D02*
D03*
Y145900D02*
D03*
D51*
X211991Y99803D02*
D03*
Y107283D02*
D03*
X323819Y142750D02*
D03*
Y150230D02*
D03*
X366778Y84344D02*
D03*
Y91824D02*
D03*
X366205Y77241D02*
D03*
Y69761D02*
D03*
D52*
X208661Y160039D02*
D03*
Y142323D02*
D03*
D53*
X60630Y20932D02*
D03*
X51968D02*
D03*
X35827Y20364D02*
D03*
X44488D02*
D03*
X273425Y131299D02*
D03*
X282087D02*
D03*
X350984Y99016D02*
D03*
X359646D02*
D03*
X29134Y38976D02*
D03*
X20472D02*
D03*
X336903Y71729D02*
D03*
X345565D02*
D03*
D54*
X52953Y28140D02*
D03*
X60433D02*
D03*
X56693Y37786D02*
D03*
X36024Y27747D02*
D03*
X43504D02*
D03*
X39764Y37392D02*
D03*
D55*
X294170Y81102D02*
D03*
X321729D02*
D03*
X273425Y167369D02*
D03*
X300984D02*
D03*
D56*
X308973Y121966D02*
D03*
Y140076D02*
D03*
D57*
X291535Y130512D02*
D03*
D58*
X295669Y133071D02*
D03*
Y130512D02*
D03*
Y127953D02*
D03*
X287402D02*
D03*
Y130512D02*
D03*
Y133071D02*
D03*
D59*
X359767Y87992D02*
D03*
X351106D02*
D03*
D60*
X342520Y81102D02*
D03*
D61*
X346260Y84055D02*
D03*
Y82087D02*
D03*
Y80118D02*
D03*
Y78150D02*
D03*
X338779D02*
D03*
Y80118D02*
D03*
Y82087D02*
D03*
Y84055D02*
D03*
D62*
X64528Y88653D02*
D03*
D63*
X24465Y107181D02*
D03*
Y87181D02*
D03*
Y92181D02*
D03*
Y102181D02*
D03*
Y97181D02*
D03*
Y67181D02*
D03*
Y72181D02*
D03*
Y82181D02*
D03*
Y77181D02*
D03*
Y62181D02*
D03*
D64*
X93465Y51181D02*
D03*
X93583Y118181D02*
D03*
X88465Y51181D02*
D03*
X83465D02*
D03*
X73465D02*
D03*
X78465D02*
D03*
X58465D02*
D03*
X53465D02*
D03*
X63465D02*
D03*
X68465D02*
D03*
X38465D02*
D03*
X33465D02*
D03*
X43465D02*
D03*
X48465D02*
D03*
X28465D02*
D03*
Y118181D02*
D03*
X48465D02*
D03*
X43465D02*
D03*
X33465D02*
D03*
X38465D02*
D03*
X68465D02*
D03*
X63465D02*
D03*
X53465D02*
D03*
X58465D02*
D03*
X78465D02*
D03*
X73465D02*
D03*
X83465D02*
D03*
X88465D02*
D03*
D65*
X318385Y146384D02*
X320185D01*
X295669Y133071D02*
X299633D01*
X302986Y127953D02*
X308973Y121966D01*
X295669Y127953D02*
X302986D01*
X77756Y126378D02*
X78520Y127142D01*
Y132208D01*
X83465Y118181D02*
Y122835D01*
X79921Y126378D02*
X83465Y122835D01*
X77756Y126378D02*
X79921D01*
X83465Y109055D02*
Y118181D01*
Y109055D02*
X83858Y108661D01*
X61024Y42116D02*
Y42126D01*
X56693Y37786D02*
X61024Y42116D01*
X24465Y102181D02*
X32071D01*
X38583Y95669D01*
Y62205D02*
Y95669D01*
X34252Y57874D02*
X38583Y62205D01*
X24409Y57874D02*
X34252D01*
X24465Y67181D02*
X33606D01*
X34252Y66535D01*
X68504Y28346D02*
Y35827D01*
X87402Y27953D02*
Y32677D01*
X78465Y38858D02*
X81102Y36220D01*
X83858D01*
X87402Y32677D01*
X78465Y38858D02*
Y51181D01*
X77559Y27953D02*
Y35039D01*
X73465Y39134D02*
X77559Y35039D01*
X73465Y39134D02*
Y51181D01*
X20472Y53937D02*
X24409Y57874D01*
X20472Y38976D02*
Y53937D01*
X28465Y46339D02*
Y51181D01*
Y46339D02*
X30709Y44094D01*
X35827D01*
X39764Y40158D01*
Y37392D02*
Y40158D01*
X29134Y36220D02*
Y38976D01*
Y36220D02*
X31496Y33858D01*
X39764D01*
X54715D01*
X39764Y24803D02*
Y33858D01*
Y24803D02*
X44203Y20364D01*
X44488D01*
X54715Y33858D02*
X60433Y28140D01*
X35827Y20364D02*
X36024Y20561D01*
Y27747D01*
X45154D02*
X51968Y20932D01*
X43504Y27747D02*
X45154D01*
X60161Y20932D02*
X60630D01*
X52953Y28140D02*
X60161Y20932D01*
X301749Y147464D02*
X302559Y146653D01*
X258783Y107342D02*
Y113114D01*
X251378Y106201D02*
X251476Y106102D01*
X251378Y106201D02*
Y114092D01*
X251476Y98622D02*
X266217D01*
X266293Y98547D01*
X229898Y107388D02*
X234924Y102362D01*
X240650D01*
X245472Y103740D02*
Y114092D01*
X244094Y102362D02*
X245472Y103740D01*
X240650Y102362D02*
X244094D01*
X286775Y138803D02*
X294285D01*
Y147464D02*
X301749D01*
X320185Y146384D02*
X323819Y142750D01*
X308973Y121966D02*
X311126Y124118D01*
X325427D01*
D66*
X28465Y128858D02*
X33465Y133858D01*
X28465Y118181D02*
Y128858D01*
X295669Y130512D02*
X306890D01*
X307873Y129528D01*
Y129134D02*
Y129528D01*
X33465Y123622D02*
X40551Y130709D01*
X33465Y118181D02*
Y123622D01*
D67*
X100394Y151181D02*
X163779D01*
X201181Y113779D01*
Y98425D02*
Y113779D01*
X87795Y138583D02*
X100394Y151181D01*
X362992Y83071D02*
X374591D01*
X374984Y83465D01*
Y87135D01*
X379952Y92102D01*
X384307D01*
X385827Y93622D01*
Y103622D01*
Y123622D02*
Y134646D01*
Y113622D02*
Y123622D01*
X351510Y146653D02*
X373819D01*
X385827Y134646D01*
X208661Y142323D02*
X208874Y142110D01*
X240945D01*
Y142323D01*
X241732Y143110D01*
X249606Y85039D02*
Y90551D01*
D68*
X25122Y140869D02*
X78520D01*
X7874Y123622D02*
X25122Y140869D01*
X78520D02*
X85509D01*
X87795Y138583D01*
X87402Y8976D02*
X87717Y8661D01*
X87402Y8976D02*
Y19291D01*
X77559Y8819D02*
X77716Y8661D01*
X77559Y8819D02*
Y19291D01*
X67716Y8661D02*
X68504Y9449D01*
Y19685D01*
X57717Y8661D02*
Y15184D01*
X51968Y20932D02*
X57717Y15184D01*
X44488Y11890D02*
X47717Y8661D01*
X44488Y11890D02*
Y20364D01*
D69*
X45197Y106299D02*
X48465Y109567D01*
X38189Y106299D02*
X45197D01*
X48465Y109567D02*
Y118181D01*
X32677Y111811D02*
X38189Y106299D01*
X22441Y111811D02*
X32677D01*
X20630Y113622D02*
X22441Y111811D01*
X7874Y113622D02*
X20630D01*
X43465Y110630D02*
Y118181D01*
X58465Y104528D02*
Y118181D01*
X55118Y101181D02*
X58465Y104528D01*
X47244Y101181D02*
X55118D01*
X46850Y100787D02*
X47244Y101181D01*
X53465Y108346D02*
Y118181D01*
Y108346D02*
X53543Y108268D01*
X87795Y129083D02*
X88465Y128413D01*
D70*
Y118181D02*
Y128413D01*
D71*
X377953Y15748D02*
D03*
Y181102D02*
D03*
X15748D02*
D03*
Y15748D02*
D03*
D72*
X241732Y143110D02*
D03*
Y165945D02*
D03*
D73*
X222835Y154921D02*
D03*
D74*
X67716Y8661D02*
D03*
X77716D02*
D03*
X87717D02*
D03*
X57717D02*
D03*
X37716D02*
D03*
X47717D02*
D03*
D75*
X385827Y103622D02*
D03*
Y113622D02*
D03*
Y123622D02*
D03*
Y93622D02*
D03*
Y73622D02*
D03*
Y83622D02*
D03*
X7874Y103622D02*
D03*
Y113622D02*
D03*
Y123622D02*
D03*
Y93622D02*
D03*
Y73622D02*
D03*
Y83622D02*
D03*
D76*
X382283Y165748D02*
D03*
X387205Y155905D02*
D03*
Y57480D02*
D03*
X382283Y47638D02*
D03*
X387205Y37795D02*
D03*
X382283Y27953D02*
D03*
X372441Y165748D02*
D03*
X377362Y155905D02*
D03*
X372441Y126378D02*
D03*
Y106693D02*
D03*
Y67323D02*
D03*
X377362Y57480D02*
D03*
X372441Y47638D02*
D03*
X377362Y37795D02*
D03*
X372441Y27953D02*
D03*
X362598Y185433D02*
D03*
Y165748D02*
D03*
X367520Y155905D02*
D03*
Y136221D02*
D03*
X362598Y126378D02*
D03*
X367520Y116535D02*
D03*
X362598Y106693D02*
D03*
X367520Y96850D02*
D03*
Y57480D02*
D03*
X362598Y47638D02*
D03*
X367520Y37795D02*
D03*
X362598Y8268D02*
D03*
X352756Y185433D02*
D03*
X357677Y175591D02*
D03*
X352756Y165748D02*
D03*
Y106693D02*
D03*
X357677Y57480D02*
D03*
X352756Y47638D02*
D03*
X357677Y37795D02*
D03*
X352756Y8268D02*
D03*
X342913Y185433D02*
D03*
X347835Y175591D02*
D03*
X342913Y165748D02*
D03*
Y126378D02*
D03*
Y106693D02*
D03*
X347835Y57480D02*
D03*
X342913Y47638D02*
D03*
X347835Y37795D02*
D03*
X342913Y8268D02*
D03*
X333071Y185433D02*
D03*
X337992Y175591D02*
D03*
X333071Y165748D02*
D03*
X337992Y57480D02*
D03*
X333071Y47638D02*
D03*
X337992Y37795D02*
D03*
X333071Y8268D02*
D03*
X323228Y185433D02*
D03*
X328150Y175591D02*
D03*
Y116535D02*
D03*
X323228Y106693D02*
D03*
Y67323D02*
D03*
X328150Y57480D02*
D03*
X323228Y47638D02*
D03*
X328150Y37795D02*
D03*
X323228Y8268D02*
D03*
X313386Y185433D02*
D03*
X318307Y175591D02*
D03*
Y155905D02*
D03*
Y116535D02*
D03*
X313386Y67323D02*
D03*
X318307Y57480D02*
D03*
X313386Y47638D02*
D03*
X318307Y37795D02*
D03*
X313386Y8268D02*
D03*
X308465Y116535D02*
D03*
X303543Y67323D02*
D03*
X308465Y57480D02*
D03*
X303543Y47638D02*
D03*
X308465Y37795D02*
D03*
X303543Y8268D02*
D03*
X293701Y106693D02*
D03*
X298622Y96850D02*
D03*
X293701Y67323D02*
D03*
X298622Y57480D02*
D03*
X293701Y47638D02*
D03*
X298622Y37795D02*
D03*
X293701Y27953D02*
D03*
Y8268D02*
D03*
X288779Y116535D02*
D03*
X283858Y106693D02*
D03*
X288779Y96850D02*
D03*
X283858Y67323D02*
D03*
X288779Y57480D02*
D03*
X283858Y47638D02*
D03*
X288779Y37795D02*
D03*
X283858Y27953D02*
D03*
X288779Y18110D02*
D03*
X283858Y8268D02*
D03*
X278937Y155905D02*
D03*
Y116535D02*
D03*
X274016Y106693D02*
D03*
X278937Y96850D02*
D03*
Y77165D02*
D03*
X274016Y67323D02*
D03*
X278937Y57480D02*
D03*
X274016Y47638D02*
D03*
X278937Y37795D02*
D03*
X274016Y27953D02*
D03*
X278937Y18110D02*
D03*
X274016Y8268D02*
D03*
X269094Y155905D02*
D03*
X264173Y126378D02*
D03*
X269094Y116535D02*
D03*
Y77165D02*
D03*
X264173Y67323D02*
D03*
X269094Y57480D02*
D03*
X264173Y47638D02*
D03*
X269094Y37795D02*
D03*
X264173Y27953D02*
D03*
X269094Y18110D02*
D03*
X264173Y8268D02*
D03*
X254331Y165748D02*
D03*
X259252Y155905D02*
D03*
X254331Y126378D02*
D03*
Y67323D02*
D03*
X259252Y57480D02*
D03*
X254331Y47638D02*
D03*
X259252Y37795D02*
D03*
X254331Y27953D02*
D03*
X259252Y18110D02*
D03*
X254331Y8268D02*
D03*
X249410Y155905D02*
D03*
X244488Y126378D02*
D03*
Y67323D02*
D03*
X249410Y57480D02*
D03*
X244488Y47638D02*
D03*
X249410Y37795D02*
D03*
X244488Y27953D02*
D03*
X249410Y18110D02*
D03*
X244488Y8268D02*
D03*
X239567Y155905D02*
D03*
X234646Y126378D02*
D03*
X239567Y37795D02*
D03*
X234646Y27953D02*
D03*
X239567Y18110D02*
D03*
X234646Y8268D02*
D03*
X229724Y155905D02*
D03*
X224803Y126378D02*
D03*
Y67323D02*
D03*
Y47638D02*
D03*
X229724Y37795D02*
D03*
X224803Y27953D02*
D03*
X229724Y18110D02*
D03*
X224803Y8268D02*
D03*
X214961Y126378D02*
D03*
X219882Y116535D02*
D03*
X214961Y67323D02*
D03*
X219882Y57480D02*
D03*
X214961Y47638D02*
D03*
X219882Y37795D02*
D03*
X214961Y27953D02*
D03*
X219882Y18110D02*
D03*
X214961Y8268D02*
D03*
X205118Y126378D02*
D03*
X210039Y116535D02*
D03*
X205118Y67323D02*
D03*
X210039Y57480D02*
D03*
X205118Y47638D02*
D03*
X210039Y37795D02*
D03*
X205118Y27953D02*
D03*
X210039Y18110D02*
D03*
X205118Y8268D02*
D03*
X195276Y165748D02*
D03*
X200197Y155905D02*
D03*
X195276Y146063D02*
D03*
X200197Y136221D02*
D03*
X195276Y47638D02*
D03*
X200197Y37795D02*
D03*
X195276Y27953D02*
D03*
X200197Y18110D02*
D03*
X195276Y8268D02*
D03*
X185433Y165748D02*
D03*
X190354Y155905D02*
D03*
X185433Y146063D02*
D03*
X190354Y136221D02*
D03*
X185433Y106693D02*
D03*
Y87008D02*
D03*
Y67323D02*
D03*
X190354Y57480D02*
D03*
X185433Y47638D02*
D03*
X190354Y37795D02*
D03*
X185433Y27953D02*
D03*
X190354Y18110D02*
D03*
X185433Y8268D02*
D03*
X175591Y165748D02*
D03*
X180512Y155905D02*
D03*
X175591Y126378D02*
D03*
X180512Y116535D02*
D03*
X175591Y106693D02*
D03*
X180512Y96850D02*
D03*
X175591Y87008D02*
D03*
X180512Y77165D02*
D03*
X175591Y67323D02*
D03*
X180512Y57480D02*
D03*
X175591Y47638D02*
D03*
X180512Y37795D02*
D03*
X175591Y27953D02*
D03*
X180512Y18110D02*
D03*
X175591Y8268D02*
D03*
X165748Y165748D02*
D03*
X170669Y155905D02*
D03*
X165748Y126378D02*
D03*
X170669Y116535D02*
D03*
X165748Y106693D02*
D03*
X170669Y96850D02*
D03*
X165748Y87008D02*
D03*
X170669Y77165D02*
D03*
X165748Y67323D02*
D03*
X170669Y57480D02*
D03*
X165748Y47638D02*
D03*
X170669Y37795D02*
D03*
X165748Y27953D02*
D03*
X170669Y18110D02*
D03*
X165748Y8268D02*
D03*
X155905Y165748D02*
D03*
X160827Y136221D02*
D03*
X155905Y126378D02*
D03*
X160827Y116535D02*
D03*
X155905Y106693D02*
D03*
X160827Y96850D02*
D03*
X155905Y87008D02*
D03*
X160827Y77165D02*
D03*
X155905Y67323D02*
D03*
X160827Y57480D02*
D03*
X155905Y47638D02*
D03*
X160827Y37795D02*
D03*
X155905Y27953D02*
D03*
X160827Y18110D02*
D03*
X155905Y8268D02*
D03*
X146063Y165748D02*
D03*
X150984Y136221D02*
D03*
X146063Y126378D02*
D03*
X150984Y116535D02*
D03*
X146063Y106693D02*
D03*
X150984Y96850D02*
D03*
X146063Y87008D02*
D03*
X150984Y77165D02*
D03*
X146063Y67323D02*
D03*
X150984Y57480D02*
D03*
X146063Y47638D02*
D03*
X150984Y37795D02*
D03*
X146063Y27953D02*
D03*
X150984Y18110D02*
D03*
X146063Y8268D02*
D03*
X136221Y165748D02*
D03*
X141142Y136221D02*
D03*
X136221Y126378D02*
D03*
X141142Y116535D02*
D03*
X136221Y106693D02*
D03*
X141142Y96850D02*
D03*
X136221Y87008D02*
D03*
X141142Y77165D02*
D03*
X136221Y67323D02*
D03*
X141142Y57480D02*
D03*
X136221Y47638D02*
D03*
X141142Y37795D02*
D03*
X136221Y27953D02*
D03*
X141142Y18110D02*
D03*
X136221Y8268D02*
D03*
X126378Y165748D02*
D03*
X131299Y136221D02*
D03*
X126378Y126378D02*
D03*
X131299Y116535D02*
D03*
Y96850D02*
D03*
Y77165D02*
D03*
Y57480D02*
D03*
Y37795D02*
D03*
X126378Y27953D02*
D03*
X131299Y18110D02*
D03*
X126378Y8268D02*
D03*
X116535Y165748D02*
D03*
X121457Y136221D02*
D03*
X116535Y126378D02*
D03*
X121457Y37795D02*
D03*
X116535Y27953D02*
D03*
X121457Y18110D02*
D03*
X116535Y8268D02*
D03*
X106693Y165748D02*
D03*
X111614Y136221D02*
D03*
X106693Y126378D02*
D03*
X111614Y37795D02*
D03*
X106693Y27953D02*
D03*
X111614Y18110D02*
D03*
X106693Y8268D02*
D03*
X96850Y165748D02*
D03*
X101772Y136221D02*
D03*
X96850Y126378D02*
D03*
X101772Y37795D02*
D03*
X96850Y27953D02*
D03*
X101772Y18110D02*
D03*
X96850Y8268D02*
D03*
X87008Y165748D02*
D03*
X91929Y155905D02*
D03*
Y96850D02*
D03*
Y77165D02*
D03*
Y37795D02*
D03*
X77165Y185433D02*
D03*
X82087Y155905D02*
D03*
X77165Y106693D02*
D03*
Y67323D02*
D03*
X67323Y185433D02*
D03*
X72244Y155905D02*
D03*
X67323Y106693D02*
D03*
Y67323D02*
D03*
X57480Y185433D02*
D03*
X62402Y175591D02*
D03*
X57480Y165748D02*
D03*
Y126378D02*
D03*
Y67323D02*
D03*
X47638Y185433D02*
D03*
X52559Y175591D02*
D03*
X47638Y165748D02*
D03*
Y126378D02*
D03*
Y87008D02*
D03*
Y67323D02*
D03*
X37795Y185433D02*
D03*
X42717Y175591D02*
D03*
X37795Y165748D02*
D03*
X42717Y155905D02*
D03*
X27953Y185433D02*
D03*
X32874Y175591D02*
D03*
X27953Y165748D02*
D03*
X32874Y155905D02*
D03*
Y77165D02*
D03*
X27953Y27953D02*
D03*
Y8268D02*
D03*
X18110Y165748D02*
D03*
X23031Y155905D02*
D03*
X18110Y146063D02*
D03*
Y27953D02*
D03*
X8268Y165748D02*
D03*
X13189Y155905D02*
D03*
X8268Y146063D02*
D03*
X13189Y57480D02*
D03*
X8268Y47638D02*
D03*
X13189Y37795D02*
D03*
X8268Y27953D02*
D03*
X334252Y78347D02*
D03*
X318385Y146384D02*
D03*
X33465Y133858D02*
D03*
X307873Y129134D02*
D03*
X40551Y130709D02*
D03*
X43465Y110630D02*
D03*
X46850Y100787D02*
D03*
X53543Y108268D02*
D03*
X83858Y108661D02*
D03*
X61024Y42126D02*
D03*
X34252Y66535D02*
D03*
X68504Y35827D02*
D03*
X323228Y89370D02*
D03*
X328346D02*
D03*
X249606Y85039D02*
D03*
Y90551D02*
D03*
X308661Y141732D02*
D03*
X302559Y146653D02*
D03*
X308661Y136614D02*
D03*
X222047Y94095D02*
D03*
X258783Y113114D02*
D03*
D77*
X291535Y128937D02*
D03*
Y132087D02*
D03*
X342520Y82677D02*
D03*
Y79528D02*
D03*
M02*
