G04*
G04 #@! TF.GenerationSoftware,Altium Limited,Altium Designer,18.0.9 (584)*
G04*
G04 Layer_Physical_Order=2*
G04 Layer_Color=16711680*
%FSLAX25Y25*%
%MOIN*%
G70*
G01*
G75*
%ADD65C,0.01378*%
%ADD66C,0.01968*%
%ADD67C,0.07874*%
%ADD69C,0.01575*%
%ADD71C,0.17717*%
%ADD72R,0.15748X0.07087*%
%ADD73R,0.07087X0.15748*%
%ADD74O,0.07087X0.11811*%
%ADD75O,0.11811X0.07087*%
%ADD76C,0.05000*%
%ADD77C,0.01968*%
G36*
X393701Y0D02*
X0D01*
Y196850D01*
X393701D01*
Y0D01*
D02*
G37*
%LPC*%
G36*
X303897Y183302D02*
X81102D01*
X80411Y183165D01*
X79825Y182773D01*
X34327Y137275D01*
X33465Y137389D01*
X32551Y137268D01*
X31699Y136916D01*
X30968Y136354D01*
X30407Y135623D01*
X30055Y134772D01*
X29934Y133858D01*
X30055Y132945D01*
X30407Y132093D01*
X30968Y131362D01*
X31699Y130801D01*
X32551Y130448D01*
X33465Y130328D01*
X34378Y130448D01*
X35230Y130801D01*
X35961Y131362D01*
X36522Y132093D01*
X36874Y132945D01*
X36995Y133858D01*
X36881Y134720D01*
X38283Y136122D01*
X38745Y135931D01*
Y133734D01*
X38055Y133205D01*
X37494Y132474D01*
X37141Y131622D01*
X37021Y130709D01*
X37141Y129795D01*
X37494Y128944D01*
X38055Y128212D01*
X38786Y127651D01*
X39638Y127299D01*
X40551Y127179D01*
X41465Y127299D01*
X42316Y127651D01*
X43047Y128212D01*
X43608Y128944D01*
X43961Y129795D01*
X44081Y130709D01*
X43961Y131622D01*
X43608Y132474D01*
X43047Y133205D01*
X42358Y133734D01*
Y136299D01*
X82992Y176934D01*
X302008D01*
X323784Y155157D01*
Y140512D01*
X314212Y130940D01*
X310899D01*
X310370Y131630D01*
X310298Y131684D01*
X310364Y132180D01*
X311000Y132444D01*
X311987Y133201D01*
X312031Y133245D01*
X312788Y134232D01*
X313264Y135381D01*
X313427Y136614D01*
Y141732D01*
X313264Y142966D01*
X312788Y144115D01*
X312031Y145102D01*
X311044Y145859D01*
X310878Y145928D01*
X310978Y146428D01*
X314816D01*
X314855Y146384D01*
X314975Y145470D01*
X315328Y144618D01*
X315889Y143887D01*
X316620Y143326D01*
X317472Y142974D01*
X318385Y142853D01*
X319299Y142974D01*
X320150Y143326D01*
X320882Y143887D01*
X321443Y144618D01*
X321795Y145470D01*
X321916Y146384D01*
X321795Y147297D01*
X321443Y148149D01*
X320882Y148880D01*
X320150Y149441D01*
X319299Y149794D01*
X318385Y149914D01*
X317472Y149794D01*
X316620Y149441D01*
X316617Y149438D01*
X307207D01*
X306630Y149324D01*
X306142Y148997D01*
X305861Y148717D01*
X305363Y148749D01*
X305055Y149150D01*
X304324Y149711D01*
X303473Y150063D01*
X302559Y150184D01*
X301645Y150063D01*
X300794Y149711D01*
X300063Y149150D01*
X299502Y148419D01*
X299149Y147567D01*
X299029Y146653D01*
X299149Y145740D01*
X299502Y144888D01*
X299814Y144482D01*
X299567Y143982D01*
X250606D01*
Y147653D01*
X243109D01*
X242966Y147713D01*
X241732Y147875D01*
X240499Y147713D01*
X240355Y147653D01*
X232858D01*
Y138567D01*
X239537D01*
X242256Y135847D01*
X243243Y135090D01*
X244393Y134614D01*
X245626Y134451D01*
X295281D01*
X295473Y133989D01*
X294268Y132785D01*
X293511Y131798D01*
X293035Y130649D01*
X292873Y129416D01*
Y114961D01*
X293035Y113727D01*
X293511Y112578D01*
X294268Y111591D01*
X311262Y94597D01*
X311071Y94135D01*
X250394D01*
X249795Y94056D01*
X249606Y94081D01*
X248693Y93961D01*
X247841Y93608D01*
X247110Y93047D01*
X246549Y92316D01*
X246512Y92228D01*
X246237Y91952D01*
X245479Y90965D01*
X245004Y89816D01*
X244841Y88583D01*
Y85039D01*
X245004Y83806D01*
X245479Y82657D01*
X246237Y81670D01*
X247224Y80913D01*
X248373Y80437D01*
X249606Y80274D01*
X250840Y80437D01*
X251989Y80913D01*
X252976Y81670D01*
X253733Y82657D01*
X254209Y83806D01*
X254314Y84605D01*
X328346D01*
X329580Y84767D01*
X330729Y85243D01*
X331716Y86001D01*
X331972Y86335D01*
X332446Y86174D01*
Y81372D01*
X331756Y80843D01*
X331195Y80111D01*
X330842Y79260D01*
X330722Y78347D01*
X330842Y77433D01*
X331195Y76581D01*
X331756Y75850D01*
X332487Y75289D01*
X333338Y74936D01*
X334252Y74816D01*
X335166Y74936D01*
X336017Y75289D01*
X336748Y75850D01*
X337309Y76581D01*
X337662Y77433D01*
X337782Y78347D01*
X337662Y79260D01*
X337309Y80111D01*
X336748Y80843D01*
X336058Y81372D01*
Y151142D01*
X335921Y151833D01*
X335529Y152419D01*
X305175Y182773D01*
X304589Y183165D01*
X303897Y183302D01*
D02*
G37*
G36*
X388189Y128205D02*
X383465D01*
X382278Y128048D01*
X381173Y127591D01*
X380224Y126862D01*
X379496Y125913D01*
X379038Y124808D01*
X378882Y123622D01*
X379038Y122436D01*
X379496Y121331D01*
X380224Y120382D01*
X381173Y119653D01*
X382278Y119196D01*
X383465Y119040D01*
X388189D01*
X389375Y119196D01*
X390480Y119653D01*
X391429Y120382D01*
X392158Y121331D01*
X392615Y122436D01*
X392772Y123622D01*
X392615Y124808D01*
X392158Y125913D01*
X391429Y126862D01*
X390480Y127591D01*
X389375Y128048D01*
X388189Y128205D01*
D02*
G37*
G36*
X10236D02*
X5512D01*
X4326Y128048D01*
X3221Y127591D01*
X2272Y126862D01*
X1543Y125913D01*
X1085Y124808D01*
X929Y123622D01*
X1085Y122436D01*
X1543Y121331D01*
X2272Y120382D01*
X3221Y119653D01*
X4326Y119196D01*
X5512Y119040D01*
X10236D01*
X11422Y119196D01*
X12528Y119653D01*
X13477Y120382D01*
X14205Y121331D01*
X14663Y122436D01*
X14819Y123622D01*
X14663Y124808D01*
X14205Y125913D01*
X13477Y126862D01*
X12528Y127591D01*
X11422Y128048D01*
X10236Y128205D01*
D02*
G37*
G36*
X258783Y116644D02*
X257869Y116524D01*
X257018Y116171D01*
X256287Y115610D01*
X255726Y114879D01*
X255618Y114619D01*
X232011D01*
X231435Y114504D01*
X230947Y114178D01*
X220983Y104214D01*
X220656Y103726D01*
X220542Y103150D01*
Y97259D01*
X220282Y97152D01*
X219551Y96591D01*
X218990Y95860D01*
X218637Y95008D01*
X218517Y94095D01*
X218637Y93181D01*
X218990Y92329D01*
X219551Y91598D01*
X220282Y91037D01*
X221134Y90685D01*
X222047Y90564D01*
X222961Y90685D01*
X223812Y91037D01*
X224543Y91598D01*
X225104Y92329D01*
X225457Y93181D01*
X225577Y94095D01*
X225457Y95008D01*
X225104Y95860D01*
X224543Y96591D01*
X223812Y97152D01*
X223552Y97259D01*
Y102526D01*
X232635Y111608D01*
X255618D01*
X255726Y111348D01*
X256287Y110617D01*
X257018Y110056D01*
X257869Y109704D01*
X258783Y109583D01*
X259697Y109704D01*
X260548Y110056D01*
X261279Y110617D01*
X261840Y111348D01*
X262193Y112200D01*
X262313Y113114D01*
X262193Y114027D01*
X261840Y114879D01*
X261279Y115610D01*
X260548Y116171D01*
X259697Y116524D01*
X258783Y116644D01*
D02*
G37*
G36*
X388189Y118204D02*
X383465D01*
X382278Y118048D01*
X381173Y117591D01*
X380224Y116862D01*
X379496Y115913D01*
X379038Y114808D01*
X378882Y113622D01*
X379038Y112436D01*
X379496Y111331D01*
X380224Y110382D01*
X381173Y109653D01*
X382278Y109196D01*
X383465Y109040D01*
X388189D01*
X389375Y109196D01*
X390480Y109653D01*
X391429Y110382D01*
X392158Y111331D01*
X392615Y112436D01*
X392772Y113622D01*
X392615Y114808D01*
X392158Y115913D01*
X391429Y116862D01*
X390480Y117591D01*
X389375Y118048D01*
X388189Y118204D01*
D02*
G37*
G36*
X10236D02*
X5512D01*
X4326Y118048D01*
X3221Y117591D01*
X2272Y116862D01*
X1543Y115913D01*
X1085Y114808D01*
X929Y113622D01*
X1085Y112436D01*
X1543Y111331D01*
X2272Y110382D01*
X3221Y109653D01*
X4326Y109196D01*
X5512Y109040D01*
X10236D01*
X11422Y109196D01*
X12528Y109653D01*
X13477Y110382D01*
X14205Y111331D01*
X14663Y112436D01*
X14819Y113622D01*
X14663Y114808D01*
X14205Y115913D01*
X13477Y116862D01*
X12528Y117591D01*
X11422Y118048D01*
X10236Y118204D01*
D02*
G37*
G36*
X43465Y114160D02*
X42551Y114040D01*
X41699Y113687D01*
X40968Y113126D01*
X40407Y112395D01*
X40055Y111544D01*
X39934Y110630D01*
X40055Y109716D01*
X40407Y108865D01*
X40968Y108134D01*
X41076Y108051D01*
X41108Y107552D01*
X38784Y105228D01*
X14489D01*
X14205Y105913D01*
X13477Y106862D01*
X12528Y107591D01*
X11422Y108048D01*
X10236Y108204D01*
X5512D01*
X4326Y108048D01*
X3221Y107591D01*
X2272Y106862D01*
X1543Y105913D01*
X1085Y104808D01*
X929Y103622D01*
X1085Y102436D01*
X1543Y101331D01*
X2272Y100382D01*
X3221Y99654D01*
X4326Y99196D01*
X5512Y99040D01*
X10236D01*
X11422Y99196D01*
X12528Y99654D01*
X13477Y100382D01*
X14205Y101331D01*
X14489Y102016D01*
X39449D01*
X39449Y102016D01*
X40063Y102139D01*
X40584Y102487D01*
X44600Y106502D01*
X44600Y106502D01*
X44948Y107023D01*
X45042Y107495D01*
X45230Y107573D01*
X45961Y108134D01*
X46522Y108865D01*
X46874Y109716D01*
X46995Y110630D01*
X46874Y111544D01*
X46522Y112395D01*
X45961Y113126D01*
X45230Y113687D01*
X44378Y114040D01*
X43465Y114160D01*
D02*
G37*
G36*
X53543Y111798D02*
X52630Y111678D01*
X51778Y111325D01*
X51047Y110764D01*
X50486Y110033D01*
X50133Y109181D01*
X50013Y108268D01*
X50133Y107354D01*
X50486Y106503D01*
X51047Y105772D01*
X51778Y105210D01*
X51938Y105144D01*
Y102082D01*
X50857Y101001D01*
X50329Y101180D01*
X50260Y101701D01*
X49908Y102552D01*
X49347Y103284D01*
X48616Y103845D01*
X47764Y104197D01*
X46850Y104318D01*
X45937Y104197D01*
X45085Y103845D01*
X44354Y103284D01*
X43793Y102552D01*
X43440Y101701D01*
X43320Y100787D01*
X43440Y99874D01*
X43507Y99714D01*
X39020Y95228D01*
X14489D01*
X14205Y95913D01*
X13477Y96862D01*
X12528Y97591D01*
X11422Y98048D01*
X10236Y98204D01*
X5512D01*
X4326Y98048D01*
X3221Y97591D01*
X2272Y96862D01*
X1543Y95913D01*
X1085Y94808D01*
X929Y93622D01*
X1085Y92436D01*
X1543Y91331D01*
X2272Y90382D01*
X3221Y89653D01*
X4326Y89196D01*
X5512Y89039D01*
X10236D01*
X11422Y89196D01*
X12528Y89653D01*
X13477Y90382D01*
X14205Y91331D01*
X14489Y92016D01*
X39685D01*
X39685Y92016D01*
X40299Y92139D01*
X40820Y92487D01*
X45777Y97443D01*
X45937Y97378D01*
X46457Y97309D01*
X46637Y96781D01*
X35083Y85228D01*
X14489D01*
X14205Y85913D01*
X13477Y86862D01*
X12528Y87591D01*
X11422Y88048D01*
X10236Y88204D01*
X5512D01*
X4326Y88048D01*
X3221Y87591D01*
X2272Y86862D01*
X1543Y85913D01*
X1085Y84808D01*
X929Y83622D01*
X1085Y82436D01*
X1543Y81331D01*
X2272Y80382D01*
X3221Y79654D01*
X4326Y79196D01*
X5512Y79040D01*
X10236D01*
X11422Y79196D01*
X12528Y79654D01*
X13477Y80382D01*
X14205Y81331D01*
X14489Y82016D01*
X35748D01*
X35748Y82016D01*
X36363Y82139D01*
X36884Y82487D01*
X54679Y100282D01*
X54679Y100282D01*
X55027Y100803D01*
X55149Y101417D01*
Y105144D01*
X55308Y105210D01*
X56040Y105772D01*
X56600Y106503D01*
X56953Y107354D01*
X57073Y108268D01*
X56953Y109181D01*
X56600Y110033D01*
X56040Y110764D01*
X55308Y111325D01*
X54457Y111678D01*
X53543Y111798D01*
D02*
G37*
G36*
X388189Y108204D02*
X383465D01*
X382278Y108048D01*
X381173Y107591D01*
X380224Y106862D01*
X379496Y105913D01*
X379038Y104808D01*
X378882Y103622D01*
X379038Y102436D01*
X379496Y101331D01*
X380224Y100382D01*
X381173Y99654D01*
X382278Y99196D01*
X383465Y99040D01*
X388189D01*
X389375Y99196D01*
X390480Y99654D01*
X391429Y100382D01*
X392158Y101331D01*
X392615Y102436D01*
X392772Y103622D01*
X392615Y104808D01*
X392158Y105913D01*
X391429Y106862D01*
X390480Y107591D01*
X389375Y108048D01*
X388189Y108204D01*
D02*
G37*
G36*
Y98204D02*
X383465D01*
X382278Y98048D01*
X381173Y97591D01*
X380224Y96862D01*
X379496Y95913D01*
X379038Y94808D01*
X378882Y93622D01*
X379038Y92436D01*
X379496Y91331D01*
X380224Y90382D01*
X381173Y89653D01*
X382278Y89196D01*
X383465Y89039D01*
X388189D01*
X389375Y89196D01*
X390480Y89653D01*
X391429Y90382D01*
X392158Y91331D01*
X392615Y92436D01*
X392772Y93622D01*
X392615Y94808D01*
X392158Y95913D01*
X391429Y96862D01*
X390480Y97591D01*
X389375Y98048D01*
X388189Y98204D01*
D02*
G37*
G36*
X99213Y121886D02*
X98822Y121808D01*
X98492Y121587D01*
X98271Y121256D01*
X98193Y120866D01*
Y48425D01*
X98271Y48035D01*
X98492Y47704D01*
X98822Y47483D01*
X99213Y47406D01*
X122019D01*
X122114Y47311D01*
X122444Y47089D01*
X122835Y47012D01*
X123225Y47089D01*
X123556Y47311D01*
X123777Y47641D01*
X123854Y48031D01*
Y120472D01*
X123777Y120863D01*
X123556Y121193D01*
X123225Y121414D01*
X122835Y121492D01*
X100029D01*
X99934Y121587D01*
X99603Y121808D01*
X99213Y121886D01*
D02*
G37*
G36*
X83858Y112192D02*
X82945Y112071D01*
X82093Y111719D01*
X81362Y111158D01*
X80801Y110426D01*
X80448Y109575D01*
X80328Y108661D01*
X80448Y107748D01*
X80801Y106896D01*
X81362Y106165D01*
X82093Y105604D01*
X82353Y105497D01*
Y65584D01*
X62197Y45428D01*
X61937Y45536D01*
X61024Y45656D01*
X60110Y45536D01*
X59259Y45183D01*
X58527Y44622D01*
X57966Y43891D01*
X57614Y43040D01*
X57493Y42126D01*
X57614Y41212D01*
X57966Y40361D01*
X58527Y39630D01*
X59259Y39069D01*
X60110Y38716D01*
X61024Y38596D01*
X61937Y38716D01*
X62789Y39069D01*
X63520Y39630D01*
X64081Y40361D01*
X64433Y41212D01*
X64554Y42126D01*
X64433Y43040D01*
X64326Y43299D01*
X84923Y63896D01*
X85249Y64385D01*
X85364Y64961D01*
Y105497D01*
X85623Y105604D01*
X86355Y106165D01*
X86915Y106896D01*
X87268Y107748D01*
X87388Y108661D01*
X87268Y109575D01*
X86915Y110426D01*
X86355Y111158D01*
X85623Y111719D01*
X84772Y112071D01*
X83858Y112192D01*
D02*
G37*
G36*
X34252Y70066D02*
X33338Y69945D01*
X32487Y69593D01*
X31756Y69032D01*
X31195Y68300D01*
X30842Y67449D01*
X30722Y66535D01*
X30842Y65622D01*
X31195Y64770D01*
X31756Y64039D01*
X32487Y63478D01*
X32747Y63371D01*
Y41339D01*
X32861Y40762D01*
X33188Y40274D01*
X38699Y34762D01*
X39188Y34436D01*
X39764Y34321D01*
X65339D01*
X65447Y34062D01*
X66008Y33331D01*
X66739Y32770D01*
X67590Y32417D01*
X68504Y32297D01*
X69418Y32417D01*
X70269Y32770D01*
X71000Y33331D01*
X71561Y34062D01*
X71914Y34913D01*
X72034Y35827D01*
X71914Y36740D01*
X71561Y37592D01*
X71000Y38323D01*
X70269Y38884D01*
X69418Y39237D01*
X68504Y39357D01*
X67590Y39237D01*
X66739Y38884D01*
X66008Y38323D01*
X65447Y37592D01*
X65339Y37332D01*
X40387D01*
X35757Y41962D01*
Y63371D01*
X36017Y63478D01*
X36748Y64039D01*
X37309Y64770D01*
X37662Y65622D01*
X37782Y66535D01*
X37662Y67449D01*
X37309Y68300D01*
X36748Y69032D01*
X36017Y69593D01*
X35166Y69945D01*
X34252Y70066D01*
D02*
G37*
G36*
X87717Y15606D02*
X86531Y15450D01*
X85425Y14992D01*
X84476Y14264D01*
X83748Y13315D01*
X83290Y12210D01*
X83134Y11024D01*
Y6299D01*
X83290Y5113D01*
X83748Y4008D01*
X84476Y3059D01*
X85425Y2331D01*
X86531Y1873D01*
X87717Y1717D01*
X88903Y1873D01*
X90008Y2331D01*
X90957Y3059D01*
X91685Y4008D01*
X92143Y5113D01*
X92299Y6299D01*
Y11024D01*
X92143Y12210D01*
X91685Y13315D01*
X90957Y14264D01*
X90008Y14992D01*
X88903Y15450D01*
X87717Y15606D01*
D02*
G37*
G36*
X77716D02*
X76530Y15450D01*
X75425Y14992D01*
X74476Y14264D01*
X73748Y13315D01*
X73290Y12210D01*
X73134Y11024D01*
Y6299D01*
X73290Y5113D01*
X73748Y4008D01*
X74476Y3059D01*
X75425Y2331D01*
X76530Y1873D01*
X77716Y1717D01*
X78903Y1873D01*
X80008Y2331D01*
X80957Y3059D01*
X81685Y4008D01*
X82143Y5113D01*
X82299Y6299D01*
Y11024D01*
X82143Y12210D01*
X81685Y13315D01*
X80957Y14264D01*
X80008Y14992D01*
X78903Y15450D01*
X77716Y15606D01*
D02*
G37*
G36*
X67716D02*
X66531Y15450D01*
X65425Y14992D01*
X64476Y14264D01*
X63748Y13315D01*
X63290Y12210D01*
X63134Y11024D01*
Y6299D01*
X63290Y5113D01*
X63748Y4008D01*
X64476Y3059D01*
X65425Y2331D01*
X66531Y1873D01*
X67716Y1717D01*
X68903Y1873D01*
X70008Y2331D01*
X70957Y3059D01*
X71685Y4008D01*
X72143Y5113D01*
X72299Y6299D01*
Y11024D01*
X72143Y12210D01*
X71685Y13315D01*
X70957Y14264D01*
X70008Y14992D01*
X68903Y15450D01*
X67716Y15606D01*
D02*
G37*
G36*
X57717D02*
X56530Y15450D01*
X55425Y14992D01*
X54476Y14264D01*
X53748Y13315D01*
X53290Y12210D01*
X53134Y11024D01*
Y6299D01*
X53290Y5113D01*
X53748Y4008D01*
X54476Y3059D01*
X55425Y2331D01*
X56530Y1873D01*
X57717Y1717D01*
X58903Y1873D01*
X60008Y2331D01*
X60957Y3059D01*
X61685Y4008D01*
X62143Y5113D01*
X62299Y6299D01*
Y11024D01*
X62143Y12210D01*
X61685Y13315D01*
X60957Y14264D01*
X60008Y14992D01*
X58903Y15450D01*
X57717Y15606D01*
D02*
G37*
G36*
X47717D02*
X46531Y15450D01*
X45425Y14992D01*
X44476Y14264D01*
X43748Y13315D01*
X43290Y12210D01*
X43134Y11024D01*
Y6299D01*
X43290Y5113D01*
X43748Y4008D01*
X44476Y3059D01*
X45425Y2331D01*
X46531Y1873D01*
X47717Y1717D01*
X48903Y1873D01*
X50008Y2331D01*
X50957Y3059D01*
X51685Y4008D01*
X52143Y5113D01*
X52299Y6299D01*
Y11024D01*
X52143Y12210D01*
X51685Y13315D01*
X50957Y14264D01*
X50008Y14992D01*
X48903Y15450D01*
X47717Y15606D01*
D02*
G37*
%LPD*%
G36*
X332446Y150393D02*
Y92566D01*
X331972Y92406D01*
X331716Y92740D01*
X330729Y93497D01*
X329580Y93973D01*
X328346Y94135D01*
X325202D01*
X302403Y116934D01*
Y127442D01*
X303869Y128907D01*
X304397Y128728D01*
X304464Y128220D01*
X304816Y127368D01*
X305377Y126637D01*
X306108Y126076D01*
X306960Y125724D01*
X307873Y125603D01*
X308787Y125724D01*
X309639Y126076D01*
X310370Y126637D01*
X310899Y127327D01*
X314960D01*
X315652Y127465D01*
X316238Y127856D01*
X326868Y138487D01*
X327259Y139073D01*
X327397Y139764D01*
Y154789D01*
X327859Y154980D01*
X332446Y150393D01*
D02*
G37*
D65*
X316836Y147933D02*
X318385Y146384D01*
X83858Y64961D02*
Y108661D01*
X61024Y42126D02*
X83858Y64961D01*
X34252Y41339D02*
Y66535D01*
Y41339D02*
X39764Y35827D01*
X68504D01*
X307207Y147933D02*
X316836D01*
X305735Y146462D02*
X307207Y147933D01*
X302367Y146462D02*
X305735D01*
X302367D02*
X302559Y146653D01*
X222047Y94095D02*
Y103150D01*
X232011Y113114D01*
X258783D01*
D66*
X40551Y130709D02*
Y137048D01*
X82244Y178740D01*
X302756D01*
X303897Y181496D02*
X334252Y151142D01*
Y78347D02*
Y151142D01*
X81102Y181496D02*
X303897D01*
X33465Y133858D02*
X81102Y181496D01*
X314960Y129134D02*
X325590Y139764D01*
X307873Y129134D02*
X314960D01*
X325590Y139764D02*
Y155905D01*
X302756Y178740D02*
X325590Y155905D01*
D67*
X305849Y139426D02*
X308661Y136614D01*
X305849Y139426D02*
X305849D01*
X305640Y139216D02*
X305849Y139426D01*
X245626Y139216D02*
X305640D01*
X308661Y136614D02*
Y141732D01*
X323228Y89370D02*
X328346D01*
X249606Y85039D02*
Y88583D01*
X250394Y89370D01*
X323228D01*
X297638Y114961D02*
X323228Y89370D01*
X297638Y114961D02*
Y129416D01*
X304793Y136571D01*
X308618D01*
X308661Y136614D01*
X241732Y143110D02*
X245626Y139216D01*
D69*
X43465Y107638D02*
Y110630D01*
X39449Y103622D02*
X43465Y107638D01*
X7874Y103622D02*
X39449D01*
X39685Y93622D02*
X46850Y100787D01*
X53543Y101417D02*
Y108268D01*
X7874Y83622D02*
X35748D01*
X53543Y101417D01*
X7874Y93622D02*
X39685D01*
D71*
X377953Y15748D02*
D03*
Y181102D02*
D03*
X15748D02*
D03*
Y15748D02*
D03*
D72*
X241732Y143110D02*
D03*
Y165945D02*
D03*
D73*
X222835Y154921D02*
D03*
D74*
X67716Y8661D02*
D03*
X77716D02*
D03*
X87717D02*
D03*
X57717D02*
D03*
X37716D02*
D03*
X47717D02*
D03*
D75*
X385827Y103622D02*
D03*
Y113622D02*
D03*
Y123622D02*
D03*
Y93622D02*
D03*
Y73622D02*
D03*
Y83622D02*
D03*
X7874Y103622D02*
D03*
Y113622D02*
D03*
Y123622D02*
D03*
Y93622D02*
D03*
Y73622D02*
D03*
Y83622D02*
D03*
D76*
X382283Y165748D02*
D03*
X387205Y155905D02*
D03*
Y57480D02*
D03*
X382283Y47638D02*
D03*
X387205Y37795D02*
D03*
X382283Y27953D02*
D03*
X372441Y165748D02*
D03*
X377362Y155905D02*
D03*
X372441Y126378D02*
D03*
Y106693D02*
D03*
Y67323D02*
D03*
X377362Y57480D02*
D03*
X372441Y47638D02*
D03*
X377362Y37795D02*
D03*
X372441Y27953D02*
D03*
X362598Y185433D02*
D03*
Y165748D02*
D03*
X367520Y155905D02*
D03*
Y136221D02*
D03*
X362598Y126378D02*
D03*
X367520Y116535D02*
D03*
X362598Y106693D02*
D03*
X367520Y96850D02*
D03*
Y57480D02*
D03*
X362598Y47638D02*
D03*
X367520Y37795D02*
D03*
X362598Y8268D02*
D03*
X352756Y185433D02*
D03*
X357677Y175591D02*
D03*
X352756Y165748D02*
D03*
Y106693D02*
D03*
X357677Y57480D02*
D03*
X352756Y47638D02*
D03*
X357677Y37795D02*
D03*
X352756Y8268D02*
D03*
X342913Y185433D02*
D03*
X347835Y175591D02*
D03*
X342913Y165748D02*
D03*
Y126378D02*
D03*
Y106693D02*
D03*
X347835Y57480D02*
D03*
X342913Y47638D02*
D03*
X347835Y37795D02*
D03*
X342913Y8268D02*
D03*
X333071Y185433D02*
D03*
X337992Y175591D02*
D03*
X333071Y165748D02*
D03*
X337992Y57480D02*
D03*
X333071Y47638D02*
D03*
X337992Y37795D02*
D03*
X333071Y8268D02*
D03*
X323228Y185433D02*
D03*
X328150Y175591D02*
D03*
Y116535D02*
D03*
X323228Y106693D02*
D03*
Y67323D02*
D03*
X328150Y57480D02*
D03*
X323228Y47638D02*
D03*
X328150Y37795D02*
D03*
X323228Y8268D02*
D03*
X313386Y185433D02*
D03*
X318307Y175591D02*
D03*
Y155905D02*
D03*
Y116535D02*
D03*
X313386Y67323D02*
D03*
X318307Y57480D02*
D03*
X313386Y47638D02*
D03*
X318307Y37795D02*
D03*
X313386Y8268D02*
D03*
X308465Y116535D02*
D03*
X303543Y67323D02*
D03*
X308465Y57480D02*
D03*
X303543Y47638D02*
D03*
X308465Y37795D02*
D03*
X303543Y8268D02*
D03*
X293701Y106693D02*
D03*
X298622Y96850D02*
D03*
X293701Y67323D02*
D03*
X298622Y57480D02*
D03*
X293701Y47638D02*
D03*
X298622Y37795D02*
D03*
X293701Y27953D02*
D03*
Y8268D02*
D03*
X288779Y116535D02*
D03*
X283858Y106693D02*
D03*
X288779Y96850D02*
D03*
X283858Y67323D02*
D03*
X288779Y57480D02*
D03*
X283858Y47638D02*
D03*
X288779Y37795D02*
D03*
X283858Y27953D02*
D03*
X288779Y18110D02*
D03*
X283858Y8268D02*
D03*
X278937Y155905D02*
D03*
Y116535D02*
D03*
X274016Y106693D02*
D03*
X278937Y96850D02*
D03*
Y77165D02*
D03*
X274016Y67323D02*
D03*
X278937Y57480D02*
D03*
X274016Y47638D02*
D03*
X278937Y37795D02*
D03*
X274016Y27953D02*
D03*
X278937Y18110D02*
D03*
X274016Y8268D02*
D03*
X269094Y155905D02*
D03*
X264173Y126378D02*
D03*
X269094Y116535D02*
D03*
Y77165D02*
D03*
X264173Y67323D02*
D03*
X269094Y57480D02*
D03*
X264173Y47638D02*
D03*
X269094Y37795D02*
D03*
X264173Y27953D02*
D03*
X269094Y18110D02*
D03*
X264173Y8268D02*
D03*
X254331Y165748D02*
D03*
X259252Y155905D02*
D03*
X254331Y126378D02*
D03*
Y67323D02*
D03*
X259252Y57480D02*
D03*
X254331Y47638D02*
D03*
X259252Y37795D02*
D03*
X254331Y27953D02*
D03*
X259252Y18110D02*
D03*
X254331Y8268D02*
D03*
X249410Y155905D02*
D03*
X244488Y126378D02*
D03*
Y67323D02*
D03*
X249410Y57480D02*
D03*
X244488Y47638D02*
D03*
X249410Y37795D02*
D03*
X244488Y27953D02*
D03*
X249410Y18110D02*
D03*
X244488Y8268D02*
D03*
X239567Y155905D02*
D03*
X234646Y126378D02*
D03*
X239567Y37795D02*
D03*
X234646Y27953D02*
D03*
X239567Y18110D02*
D03*
X234646Y8268D02*
D03*
X229724Y155905D02*
D03*
X224803Y126378D02*
D03*
Y67323D02*
D03*
Y47638D02*
D03*
X229724Y37795D02*
D03*
X224803Y27953D02*
D03*
X229724Y18110D02*
D03*
X224803Y8268D02*
D03*
X214961Y126378D02*
D03*
X219882Y116535D02*
D03*
X214961Y67323D02*
D03*
X219882Y57480D02*
D03*
X214961Y47638D02*
D03*
X219882Y37795D02*
D03*
X214961Y27953D02*
D03*
X219882Y18110D02*
D03*
X214961Y8268D02*
D03*
X205118Y126378D02*
D03*
X210039Y116535D02*
D03*
X205118Y67323D02*
D03*
X210039Y57480D02*
D03*
X205118Y47638D02*
D03*
X210039Y37795D02*
D03*
X205118Y27953D02*
D03*
X210039Y18110D02*
D03*
X205118Y8268D02*
D03*
X195276Y165748D02*
D03*
X200197Y155905D02*
D03*
X195276Y146063D02*
D03*
X200197Y136221D02*
D03*
X195276Y47638D02*
D03*
X200197Y37795D02*
D03*
X195276Y27953D02*
D03*
X200197Y18110D02*
D03*
X195276Y8268D02*
D03*
X185433Y165748D02*
D03*
X190354Y155905D02*
D03*
X185433Y146063D02*
D03*
X190354Y136221D02*
D03*
X185433Y106693D02*
D03*
Y87008D02*
D03*
Y67323D02*
D03*
X190354Y57480D02*
D03*
X185433Y47638D02*
D03*
X190354Y37795D02*
D03*
X185433Y27953D02*
D03*
X190354Y18110D02*
D03*
X185433Y8268D02*
D03*
X175591Y165748D02*
D03*
X180512Y155905D02*
D03*
X175591Y126378D02*
D03*
X180512Y116535D02*
D03*
X175591Y106693D02*
D03*
X180512Y96850D02*
D03*
X175591Y87008D02*
D03*
X180512Y77165D02*
D03*
X175591Y67323D02*
D03*
X180512Y57480D02*
D03*
X175591Y47638D02*
D03*
X180512Y37795D02*
D03*
X175591Y27953D02*
D03*
X180512Y18110D02*
D03*
X175591Y8268D02*
D03*
X165748Y165748D02*
D03*
X170669Y155905D02*
D03*
X165748Y126378D02*
D03*
X170669Y116535D02*
D03*
X165748Y106693D02*
D03*
X170669Y96850D02*
D03*
X165748Y87008D02*
D03*
X170669Y77165D02*
D03*
X165748Y67323D02*
D03*
X170669Y57480D02*
D03*
X165748Y47638D02*
D03*
X170669Y37795D02*
D03*
X165748Y27953D02*
D03*
X170669Y18110D02*
D03*
X165748Y8268D02*
D03*
X155905Y165748D02*
D03*
X160827Y136221D02*
D03*
X155905Y126378D02*
D03*
X160827Y116535D02*
D03*
X155905Y106693D02*
D03*
X160827Y96850D02*
D03*
X155905Y87008D02*
D03*
X160827Y77165D02*
D03*
X155905Y67323D02*
D03*
X160827Y57480D02*
D03*
X155905Y47638D02*
D03*
X160827Y37795D02*
D03*
X155905Y27953D02*
D03*
X160827Y18110D02*
D03*
X155905Y8268D02*
D03*
X146063Y165748D02*
D03*
X150984Y136221D02*
D03*
X146063Y126378D02*
D03*
X150984Y116535D02*
D03*
X146063Y106693D02*
D03*
X150984Y96850D02*
D03*
X146063Y87008D02*
D03*
X150984Y77165D02*
D03*
X146063Y67323D02*
D03*
X150984Y57480D02*
D03*
X146063Y47638D02*
D03*
X150984Y37795D02*
D03*
X146063Y27953D02*
D03*
X150984Y18110D02*
D03*
X146063Y8268D02*
D03*
X136221Y165748D02*
D03*
X141142Y136221D02*
D03*
X136221Y126378D02*
D03*
X141142Y116535D02*
D03*
X136221Y106693D02*
D03*
X141142Y96850D02*
D03*
X136221Y87008D02*
D03*
X141142Y77165D02*
D03*
X136221Y67323D02*
D03*
X141142Y57480D02*
D03*
X136221Y47638D02*
D03*
X141142Y37795D02*
D03*
X136221Y27953D02*
D03*
X141142Y18110D02*
D03*
X136221Y8268D02*
D03*
X126378Y165748D02*
D03*
X131299Y136221D02*
D03*
X126378Y126378D02*
D03*
X131299Y116535D02*
D03*
Y96850D02*
D03*
Y77165D02*
D03*
Y57480D02*
D03*
Y37795D02*
D03*
X126378Y27953D02*
D03*
X131299Y18110D02*
D03*
X126378Y8268D02*
D03*
X116535Y165748D02*
D03*
X121457Y136221D02*
D03*
X116535Y126378D02*
D03*
X121457Y37795D02*
D03*
X116535Y27953D02*
D03*
X121457Y18110D02*
D03*
X116535Y8268D02*
D03*
X106693Y165748D02*
D03*
X111614Y136221D02*
D03*
X106693Y126378D02*
D03*
X111614Y37795D02*
D03*
X106693Y27953D02*
D03*
X111614Y18110D02*
D03*
X106693Y8268D02*
D03*
X96850Y165748D02*
D03*
X101772Y136221D02*
D03*
X96850Y126378D02*
D03*
X101772Y37795D02*
D03*
X96850Y27953D02*
D03*
X101772Y18110D02*
D03*
X96850Y8268D02*
D03*
X87008Y165748D02*
D03*
X91929Y155905D02*
D03*
Y96850D02*
D03*
Y77165D02*
D03*
Y37795D02*
D03*
X77165Y185433D02*
D03*
X82087Y155905D02*
D03*
X77165Y106693D02*
D03*
Y67323D02*
D03*
X67323Y185433D02*
D03*
X72244Y155905D02*
D03*
X67323Y106693D02*
D03*
Y67323D02*
D03*
X57480Y185433D02*
D03*
X62402Y175591D02*
D03*
X57480Y165748D02*
D03*
Y126378D02*
D03*
Y67323D02*
D03*
X47638Y185433D02*
D03*
X52559Y175591D02*
D03*
X47638Y165748D02*
D03*
Y126378D02*
D03*
Y87008D02*
D03*
Y67323D02*
D03*
X37795Y185433D02*
D03*
X42717Y175591D02*
D03*
X37795Y165748D02*
D03*
X42717Y155905D02*
D03*
X27953Y185433D02*
D03*
X32874Y175591D02*
D03*
X27953Y165748D02*
D03*
X32874Y155905D02*
D03*
Y77165D02*
D03*
X27953Y27953D02*
D03*
Y8268D02*
D03*
X18110Y165748D02*
D03*
X23031Y155905D02*
D03*
X18110Y146063D02*
D03*
Y27953D02*
D03*
X8268Y165748D02*
D03*
X13189Y155905D02*
D03*
X8268Y146063D02*
D03*
X13189Y57480D02*
D03*
X8268Y47638D02*
D03*
X13189Y37795D02*
D03*
X8268Y27953D02*
D03*
X334252Y78347D02*
D03*
X318385Y146384D02*
D03*
X33465Y133858D02*
D03*
X307873Y129134D02*
D03*
X40551Y130709D02*
D03*
X43465Y110630D02*
D03*
X46850Y100787D02*
D03*
X53543Y108268D02*
D03*
X83858Y108661D02*
D03*
X61024Y42126D02*
D03*
X34252Y66535D02*
D03*
X68504Y35827D02*
D03*
X323228Y89370D02*
D03*
X328346D02*
D03*
X249606Y85039D02*
D03*
Y90551D02*
D03*
X308661Y141732D02*
D03*
X302559Y146653D02*
D03*
X308661Y136614D02*
D03*
X222047Y94095D02*
D03*
X258783Y113114D02*
D03*
D77*
X291535Y128937D02*
D03*
Y132087D02*
D03*
X342520Y82677D02*
D03*
Y79528D02*
D03*
M02*
